<svg height="178" viewBox="0 0 178 178" width="178" xmlns="http://www.w3.org/2000/svg"><circle cx="89" cy="89" fill="#141414" r="89"/><g fill="#fff"><path d="m218.793 323.292c-.53.042-.646.445-.827.853l.642.4c-.076.435-.151.863-.23 1.328h-.71c-.144-.508-.276-.971-.429-1.507l-1.034.135c-.078.552-.151 1.062-.23 1.619l.727.259a3.6 3.6 0 0 0 .559 2.236l.947.062v.839l-2.037 1.162c.307.577.307.577 1.865.06-.056.6-.086 1.169-.168 1.727-.124.853-.275 1.7-.43 2.548a4.46 4.46 0 0 1 -.883 2.393 1.492 1.492 0 0 0 -.18.421 1.441 1.441 0 0 1 .2 1.463c-.564 1.95-1.069 3.918-1.657 5.86-.395 1.3-.866 2.587-1.352 3.861-.607 1.587-1.211 3.177-1.915 4.724-.862 1.9-1.825 3.757-2.7 5.534-.632.415-1.469.346-1.655 1.226l.781.222a79.288 79.288 0 0 1 -8.831 12.483 9.53 9.53 0 0 0 -4.746-1.2l.169-1.087c-.51-.139-.7.147-.832.5s-.249.726-.4 1.187c.949 1.149 2.289 2.085 3.133 3.555a78.917 78.917 0 0 1 -10.947 9.592c-.037-.319-.061-.523-.086-.737-.125-.008-.249-.047-.278-.012a1.812 1.812 0 0 0 -.351.528 3.347 3.347 0 0 0 -.076.719 32.275 32.275 0 0 1 -3.892 2.662c-.071-.241-.122-.41-.171-.575-.82.02-.995.2-1.383 1.5-.358.219-.778.493-1.213.742a78.727 78.727 0 0 1 -8.928 4.379 75.779 75.779 0 0 1 -11.279 3.755c-1.913.46-3.855.809-5.768 1.267a57.317 57.317 0 0 1 -6.257.913c-1.171.147-2.36.14-3.538.247-.718.065-1.428.214-2.143.326h-5.586a13.615 13.615 0 0 0 -1.8-.318 69.21 69.21 0 0 1 -8.9-.936 74.824 74.824 0 0 1 -11.862-2.968c-.024-.008-.041-.037-.061-.055 1.039-.761 1.039-.761 1.178-1.262-.7-.206-1.237.115-1.811 1.122a82.553 82.553 0 0 1 -8.286-3.324c.208-.547.654-1.02.191-1.607-.708-.013-1.015.493-1.386 1.052a78.424 78.424 0 0 1 -12.213-7.3c.252-.463.93-.321 1.015-.9a1.05 1.05 0 0 0 -.978-.023 1.842 1.842 0 0 1 -2.061-.542c-.176-.172-.373-.326-.661-.579 1.215-.059 2.289.518 3.392.182.093-.607-.3-.8-.513-.98h-2.983c-.563-.276-.369-1.058-1-1.224-.327.4.029.721.02 1.134a59.434 59.434 0 0 1 -5.5-4.864v-1.177l-.752.373a.757.757 0 0 1 -.195-.112c-.907-.951-1.835-1.886-2.7-2.876a4.963 4.963 0 0 1 -.571-1.234l-.651-.13-2.325-2.859c.554-.2 1.211-.135 1.257-.89-.627-.324-1.295-.032-2.057-.222a62.256 62.256 0 0 1 -5.083-7.608l2.716-.891a2.588 2.588 0 0 0 2.155.547c.724-.2 1.427-.473 2.181-.729.21.229.21.229.344 1.018.363.323.761.63 1.1.993a7.041 7.041 0 0 1 .634.94c-.827.4-1.879.216-2.406 1.125.193.493.541.386.9.244a4.477 4.477 0 0 1 1.322-.365c.147-.161.295-.323.5-.54a9.552 9.552 0 0 1 1.318 1.886 1.366 1.366 0 0 0 -1.981.56.545.545 0 0 0 .761.279c.48-.161 1.079-.2 1.208-.854a3.229 3.229 0 0 1 1.045 1.383c.152.354.388.674.571 1.017.144.268.266.548.4.823l-1.594 3.5a3.026 3.026 0 0 0 2.681.3c.059-.1.222-.358.449-.726l2.408 4.07-.486.446c.137.239.288.5.49.853.205-.244.319-.38.459-.545l.549.246a.555.555 0 0 0 .28-.813 4.824 4.824 0 0 0 -.737-1.2c-.544-.592-1.1-1.149-.91-1.966-.435-.634-1.078-1.045-1.086-1.911.8.274 1.086 1 1.625 1.436.585.475 1.076 1.057 1.62 1.582.522.5 1.059.992 1.63 1.525-.591.612-1.638.61-1.937 1.538.662.3 1.122-.207 1.53-.227-.41.441-.881.941-1.34 1.453-.037.042.007.154.012.231a3.812 3.812 0 0 0 3-1.861l3.611 2.881-.373.767c.246.316.5.2.744.152a1.756 1.756 0 0 1 1.493.39c.617.482 1.276.911 1.918 1.364l-.737.664c-.6.191-1.074.359-1.557.483-.349.089-.717.109-1.074.172-.258.045-.51.114-.769.172.2.707.2.706.793.724 1.239.04 2.479.075 3.717.127.525.022 1.061.241 1.613-.159.063-.174.144-.4.236-.654.071.007.193-.012.219.027.205.319.391.649.622 1.042h1.157c.912.493 1.943 1.05 3.067 1.659a7.177 7.177 0 0 1 -1.769.915c-.845.373-1.691.752-2.513 1.174a2.408 2.408 0 0 0 -1.1 1.331.789.789 0 0 0 .507 1.2 5.454 5.454 0 0 0 1.134.326 1.794 1.794 0 0 0 1.762-.574c.2-.234.369-.493.5-.677 1 .383 1.211.3 1.727-.58-.056-.149-.122-.323-.188-.495a1.818 1.818 0 0 1 .207-.181c.43-.264.883-.5 1.295-.791a1.639 1.639 0 0 1 1.818-.092c.988.471 2.011.874 3.028 1.286a67.71 67.71 0 0 0 12.108 3.663c.137.028.273.07.408.109l.825.237a20.172 20.172 0 0 0 1.83 2.56c.48-.109.591-.4.466-.761a4.905 4.905 0 0 0 -.913-1.537c3.47.366 6.772.876 10.119 1.033a94.567 94.567 0 0 0 10.061-.286l-.3.734c.7.132.83.017 1.035-.883a67.917 67.917 0 0 0 13.469-2.7.388.388 0 0 1 .022.629 5.467 5.467 0 0 1 -.64.537c-.442.341-.881.687-1.337 1.008-.273.191-.578.336-.868.5-.213.122-.466.212-.441.572a1.778 1.778 0 0 0 1.225-.048c1.018-.324 2.033-.665 3.021-1.067a15.23 15.23 0 0 1 4.493-1.406.741.741 0 0 0 .459-.181 2.294 2.294 0 0 1 1.45-.59 23.447 23.447 0 0 0 5.17-1.542 5.808 5.808 0 0 0 .9-.463c.134-.09.195-.288.383-.584-1.721-.077-3.155.769-4.717.54.015.062.03.125.044.187q-.7.253-1.389.508a.953.953 0 0 0 -.3.137 7.037 7.037 0 0 1 -4.021 1.336c-.166.02-.33.059-.534.094a3.794 3.794 0 0 1 -2.692 1.214c.529-.366 1.059-.732 1.616-1.12-.022-.234-.044-.47-.073-.767a79.193 79.193 0 0 0 13.062-5.672 74.409 74.409 0 0 0 11.766-8.039c.124.072.237.137.349.206.093.057.183.119.268.172.441-.375.441-.375.266-1.07a1.141 1.141 0 0 1 .141-.192c1.53-1.435 3.069-2.863 4.592-4.306.344-.326.637-.7.964-1.05a3.085 3.085 0 0 1 1.332-.988 1.034 1.034 0 0 0 .632-.829 4.9 4.9 0 0 1 .285-.669c.041.147.081.3.119.428a1.772 1.772 0 0 0 1.915-.965c.871-.324.973-.441.927-1.167a3.055 3.055 0 0 0 -.61.174c-.613.319-1.213.665-1.816 1a6.719 6.719 0 0 1 1.933-2.16 3.9 3.9 0 0 0 .947-1.038l.683-.318c-.024.258-.049.513-.073.767.92.105 1.028.02.92-.754h-.861c.156-.261.31-.522.488-.819l-.512-.39a73.253 73.253 0 0 0 12.233-28.691 5.426 5.426 0 0 0 .913-.471c.088-.069.014-.339.014-.562l-.647.057a.751.751 0 0 1 -.059-.244c.234-1.736.495-3.466.707-5.2.122-.993.176-1.993.246-2.991a1.1 1.1 0 0 1 .466-1.027c.088-.007.2-.02.31-.025a1.949 1.949 0 0 0 2.028-1.545c.125-.388.313-.756.522-1.251-.071-.132-.195-.366-.319-.6a1.259 1.259 0 0 0 -1.152 1.067c-.884.152-1.217.92-1.7 1.769v-2.3l.8-.679c.012-.236.029-.532.044-.834-.21-.149-.386-.273-.629-.446.268-.5.535-1 .778-1.456-.242-.622-.64-.423-1.074-.278a2.813 2.813 0 0 1 .027-1.66 12.322 12.322 0 0 0 .386-2.393l-.473-.3c.024-.177.051-.388.085-.642l-.593-.446c-.105-.776-.21-1.629-.341-2.476s-.291-1.7-.442-2.573c.085-.214.176-.441.281-.706l-.613-.634q-.152-.707-.332-1.545c.434-.166.983-.194 1.057-.814-.239-.565-.846-.283-1.378-.565-.091-.4-.205-.9-.3-1.341.213-.321.366-.552.557-.841-.068-.2-.144-.421-.23-.669l-.776.06c-.261-.354-.127-.629.107-.911a3.868 3.868 0 0 0 .871-1.493.747.747 0 0 0 -.842-.109c-.144.324-.286.654-.437.98-.02.045-.078.072-.154.139l-.854-2.356 1.328-.313c-.407-.7-1.044-.378-1.564-.605.217-.5.608-1.018.09-1.593-.241.032-.481.065-.785.107-.273-.7-.542-1.384-.8-2.043.471-.59 1.106-.395 1.63-.592l.717.318c.713-.052 1.471-.393 2.194.161l-1.881.331c.529.609 1.171.406 1.832.592a3.84 3.84 0 0 1 .346.8c.154.734.227 1.485.383 2.219.1.463.059 1.013.574 1.314.759-.987.459-5.152-.52-6.765l-.613.4-.434-.507-.862.174a4.942 4.942 0 0 1 2.716-1.406l-.851.528.4.669.686-.4c.149.313.291.612.454.956-.342.572-.166 1.018.3 1.518a8.636 8.636 0 0 1 1.486 3.249c-.268.6-.551 1.192-.069 1.868l.752.137c.342 1.229.69 2.485 1.044 3.754l-.569.734.906.525c.112.54.241 1.157.364 1.751a2.242 2.242 0 0 0 -.237 2.868c-.173.181-.32.336-.466.49-.058.288-.115.575-.2 1.022l-.542-.676-.846.886.446 1.1a2.622 2.622 0 0 0 .734-.338c.513-.485.981-1.015 1.5-1.567a1.5 1.5 0 0 1 .366.288 7.084 7.084 0 0 1 .322 2.455c-.8.774-.8.774-.427 1.358l.639-.451c.086 1.037.169 2.045.264 3.2-.374-.171-.585-.288-.808-.365a2.1 2.1 0 0 0 -.81-.2 3.234 3.234 0 0 1 -2.291-.714l-.656.279v1.008l-.746.219c-.269.612.168.826.359.995.247.766.424 1.411.663 2.032a1.183 1.183 0 0 0 1.435.885 3.7 3.7 0 0 0 2.572-1.443c.107-.124.191-.266.349-.487.147.527.269.961.391 1.394-.032 1.607-.032 3.222-.032 4.837zm-17.8 41.871c.852-.61 1.647-1.224 2.489-1.766s1.757-1.033 2.726-1.6l-.552-.654c-.979.433-1.894.838-2.809 1.241.01.045.019.09.029.135l-1.379-.279c-.154.441-.3.849-.446 1.272-.5.169-1.281-.059-1.4.864l.752.329c-.191.607-.425 1.2-.557 1.806a7.823 7.823 0 0 0 -.2 1.816c.014.615-.385 1.209-.091 1.951.23-.182.451-.279.549-.445a7.4 7.4 0 0 0 .7-1.411 5.238 5.238 0 0 1 .973-2.241c.042-.65-.47-.743-.788-1.018zm-11.246 8.67c.085.953.175 1.777.227 2.6a1.4 1.4 0 0 0 1.123 1.326c.347-.177.785-.358 1.179-.607a1.246 1.246 0 0 0 .325-1.983 6.024 6.024 0 0 0 -.879-.767c-.146-.12-.3-.226-.478-.353.105-.254.195-.477.3-.744-.901-.605-1.211.432-1.801.528zm24.02-61.825a1.519 1.519 0 0 0 .346-1.769 8.189 8.189 0 0 1 -.52-3.172 1.123 1.123 0 0 0 -.088-.487c-.144-.348-.358-.629-.786-.6-.761.754-.859 1.154-.49 2.011l.529.326c.08.918.154 1.767.225 2.573l-.995.716c.047.242.091.466.151.764l.947-.222c.076-.3.137-.538.207-.809.139.205.275.394.47.668zm-1.342-9.561.912-1.028c.247-.577-.344-.565-.63-.784-.034-.247-.066-.485-.1-.717l.973-.316c-.366-.582.43-1.078-.032-1.722-.356.137-.685.264-1 .386-.363.746-1.13 1.222-1.1 2.139a2.285 2.285 0 0 0 .973 2.042zm-35.685 86.381a3.724 3.724 0 0 0 -1.967 1.622c-.219.333-.522.664-.3 1.12a3.406 3.406 0 0 0 2.262-2.742zm38.444-45.821a2.411 2.411 0 0 0 -3.084.682c.407.3.41.318.717.266a4.627 4.627 0 0 0 2.362-.948zm-127.884 38.173a1.153 1.153 0 0 0 1.264.365 1.338 1.338 0 0 0 1.091-.508c.075-.125.012-.331.012-.625-.85.288-1.687.183-2.367.768zm126.626-47.743a.848.848 0 0 0 -.984-.739c-.469.005-1.022-.043-1.332.692a5.427 5.427 0 0 0 2.314.046zm1.067-29.135c-.788.416-.861.674-.444 1.542l.639.04a1.161 1.161 0 0 0 -.197-1.584zm.444 32.015c.708.172.918.013 1.223-.925a.641.641 0 0 0 -.949-.077.756.756 0 0 0 -.276 1.001zm-22.61 42.933a.73.73 0 0 0 -.024-1.107l-.686-.03c-.259.552-.259.552.012 1.1.224.012.486.026.698.037zm20.741-74.531c.837-.162 1.12-.607.856-1.343-.854.196-1.136.637-.856 1.343zm4.505 8.71-.608-.669c-.83.406-.9.731-.288 1.383zm-37.454 73.563c-.6-.466-1.04-.4-1.583.222.5.545 1.064.465 1.583-.222zm22.3-29.491a1.123 1.123 0 0 0 -.517 1.134c.036.249.205.385.529.306a1.115 1.115 0 0 0 -.012-1.441zm-19.941 28.13c-.463-.062-.815-.05-1.032.515l.5.467c.535-.365.535-.365.532-.982zm-1.588-.645a.692.692 0 0 0 -.918-.269c-.276.107-.48.278-.342.614.77.243.836.224 1.26-.346zm6.574-3.511c.142.816.527 1.007 1.23.674-.194-.549-.617-.697-1.23-.675zm-97.715-.761c.822.244 1.045.154 1.21-.451-.708-.168-.9-.105-1.21.45zm109.145-8.053c.075-.354.142-.67.217-1.025-.473-.117-.7.022-.776.368-.064.302-.042.602.559.657zm16.373-51.708c.537-.562.478-.873-.164-1.109-.339.579-.336.599.164 1.109zm-131.048 57.334c-.747-.2-.869-.084-.827.694.151 0 .376.062.442-.012a3.516 3.516 0 0 0 .385-.682zm129.725-46.205c.339.1.569.048.7-.207a.433.433 0 0 0 -.208-.645c-.436.088-.626.335-.492.852zm-110.238 58.718c.7-.065.771-.187.507-.814-.697.061-.77.176-.507.814zm-27.148-17.84c.337.351.595.371.871.149-.059-.58-.183-.732-.617-.669-.069.145-.157.324-.254.52zm101.82 12.106c.078.659.142.707.762.574.01-.685-.112-.777-.761-.574zm-52.493 12.374.561-.067c.069-.446 0-.719-.441-.767-.35.211-.382.463-.12.834zm-41.57-18.272c.146.8.163.814.729.525-.061-.366-.229-.593-.729-.525zm126.991-35.18c-.4-.257-.678-.309-.929.089.323.388.587.333.929-.088zm1.533-48.683a.367.367 0 0 0 -.613-.087c-.076.074-.032.269-.042.4.381.119.581.02.655-.313zm-132.939 80.554a.331.331 0 0 0 -.068-.545c-.1-.065-.283-.012-.441-.012.109.465.109.465.509.557z" transform="translate(-48.492 -230.972)"/><path d="m344.08 293.809a3.872 3.872 0 0 0 -2.311.557c-.4.182-.806.358-1.207.535l-3.125-2.567c.819-.142.908-.249.751-1.03l-.826.221a9.723 9.723 0 0 1 2.558-2.073c-.059.279-.119.56-.161.762.426.283.751.478 1.052.706a.566.566 0 0 0 .933-.124v-.876l-.5-.485-1.211-.092c.886-.617 1.766-1.247 2.664-1.848.363-.242.767-.423 1.19-.652l.421 1.192a1.813 1.813 0 0 0 1.07-.833c.042-.453-.182-.7-.63-.866 1.015-.455 1.973-.885 2.931-1.313l.717.56c.652-.027.575-.543.707-.971l1.256-.467c.358.391.694.756 1.055 1.152.441-.082.866-.16 1.289-.241.1-.624-.548-.819-.575-1.353l.629-.119.373.485c.406.12.507.03.846-.757 1.015-.152 2.08-.351 3.153-.456.828-.082 1.669-.055 2.5-.06.637-.005.637.007 1.291.426l-.592.386c-.186-.127-.338-.229-.456-.311-.44.1-.5.344-.341 1.164a1.46 1.46 0 0 0 1.1-.194c.654-.308 1.3-.634 1.923-1a1.756 1.756 0 0 1 1.187-.259 34.21 34.21 0 0 1 9.847 2.742 33.5 33.5 0 0 1 9.614 6.536 32.879 32.879 0 0 1 5.481 7.014 33.63 33.63 0 0 1 3.717 9.343 7.575 7.575 0 0 1 .169 1.473c.156.425.5.8.278 1.468a6.614 6.614 0 0 0 -3.351 4.757c1.073.216 2.424-.727 3.622-2.528a5.1 5.1 0 0 1 .184 2.048 20.685 20.685 0 0 1 -.015 2.087 2.544 2.544 0 0 1 -.568 1.96c.109.169.209.323.323.5a32.823 32.823 0 0 1 -3.759 11.719c-.291.057-.647.107-.99.2a15.731 15.731 0 0 0 -1.508.466.667.667 0 0 0 -.513.752l1.294.1c.033.361.069.724.119 1.254a33.293 33.293 0 0 1 -20.325 14.035c-.107-.192-.169-.308-.234-.423s-.137-.236-.252-.433l-.692.11c.043.361.075.624.115.945l-1.02.231c-.358-.562-.334-1.308-1.078-1.493-.757.271-.532 1-.684 1.635-1.757.421-3.535.139-5.3.242l-.508-.7-1.063.629a12.751 12.751 0 0 0 -2.113-.4 17.584 17.584 0 0 1 -2.858-.518 2.663 2.663 0 0 1 -1.311-.674 8.321 8.321 0 0 0 -1.154-.821 3.184 3.184 0 0 0 -.619-.209c.054.309.089.508.139.8l-1.013-.346a1.623 1.623 0 0 0 -1.839-1.124 3.021 3.021 0 0 1 -1.665-.443 32.853 32.853 0 0 1 -7.479-5.414c-.314-.314-.645-.61-.951-.933a6.351 6.351 0 0 1 -.436-.574c.3-.756.859-.07 1.311-.318-.043-.234-.089-.483-.145-.791.751-.393 1.368.132 2.08.242-.435.781-1.523.54-1.866 1.324.053.793.871.492 1.142.965.657-.411 1.435-.226 2.013-.709-.03-.358-.059-.686-.087-1.008.433-.779 1.212-.528 1.834-.614.212-.43-.242-.381-.333-.575.022-.048.03-.122.064-.135a8.509 8.509 0 0 1 .861-.3c2.257-.6 4.516-1.2 6.773-1.8 2.042-.543 4.08-1.092 6.24-1.67a66.849 66.849 0 0 1 4.909 5.182 8.744 8.744 0 0 1 2.468 2.376 2.993 2.993 0 0 1 -1.582 1.124c-.669.273-1.351.515-2.018.793-.244.1-.538.2-.517.575.212.328.54.273.819.177a12.1 12.1 0 0 0 1.373-.589c.57-.281 1.127-.59 1.527-.8.747.069 1.3.117 1.981.179 1.1 1.125 2.281 2.329 3.565 3.64a8.224 8.224 0 0 0 .4-.946c.575-2.177 1.125-4.362 1.705-6.538.851-3.2 1.721-6.387 2.582-9.584a3.262 3.262 0 0 1 1.527-.63q7.416-1.976 14.834-3.944c.211-.055.413-.139.726-.247a2.913 2.913 0 0 0 -.326-.577c-.456-.488-.946-.943-1.4-1.431-.356-.381-.679-.794-.96-1.127a52.306 52.306 0 0 1 -4.247-4.1l.5-.7-.421-.455-.679.376c-1.583-1.585-3.15-3.155-4.792-4.8a4.163 4.163 0 0 1 .085-.532q1.141-4.356 2.3-8.711c.214-.806.433-1.612.694-2.4a5.488 5.488 0 0 1 .537-.928 3.583 3.583 0 0 1 .269-2.224 7.512 7.512 0 0 0 .5-2.179c-.518-.278-.96 0-1.393.117-2.448.64-4.887 1.311-7.332 1.963-.7.186-1.4.346-2.157.53-.985-.752-2.252-.577-3.436-.883v-1.065l-.587-.336-1.261.492v.769c-.461.144-.9.283-1.338.416-.1.523.216.632.562.7.6.11 1.194.237 1.8.306a1.869 1.869 0 0 0 .8-.112 2.066 2.066 0 0 1 1.749.189l-4.566 1.254-4.61-4.705c.771-.4 1.465-.734 2.129-1.119a8.047 8.047 0 0 0 1.435-.985 2.61 2.61 0 0 0 .707-2.613 1.106 1.106 0 0 0 -.8-.876 3.24 3.24 0 0 0 -2.988.584 3.12 3.12 0 0 0 -1.279 3.379c.042.209.043.426.069.672a27.722 27.722 0 0 1 -4.284-4.125 4.519 4.519 0 0 0 .485.1 1.241 1.241 0 0 0 1.314-.933c.222-.557.465-1.107.717-1.706-.244-.321-.244-.321-.971-.251a3.985 3.985 0 0 1 -2.438 1.918l-2.062-1.931c-.672 1.456-.741 2.928-1.269 4.29-.788.052-1.535-.455-2.376-.224.062.627.569.552.923.655s.747.157 1.172.242c-.045.269-.079.477-.119.709l-.712.2c-.276-.311-.547-.617-.851-.958l-1-.445c-.774.37-.891.747-.523 1.726l.655.293-.033.045.948.8v.463l-.727-.187a8.549 8.549 0 0 0 -1.99 1.8c.038.2.075.385.124.632l-2.006.323-.015-.075-.843.339a3.044 3.044 0 0 1 -1.6-1.323c.237-.15.45-.308.681-.43.393-.207.8-.393 1.2-.589a.845.845 0 0 0 .58-.831c.3.206.615.309.873-.028a.433.433 0 0 0 -.135-.7c-.553-.067-.586.383-.733.721zm43.62 7.472a8.407 8.407 0 0 0 -.829-.473 2.252 2.252 0 0 0 -3.155.886 1.455 1.455 0 0 0 -.109 1.717 1.417 1.417 0 0 0 1.685.321 12.266 12.266 0 0 0 1.9-.826c.708-.371.808-.755.508-1.625zm-47.81 39.346c.075 1.1 1.309 1.022 1.461 1.807l.587.053c.565.482 1.045.946 1.582 1.333a2.082 2.082 0 0 0 1.789.508c.062-.5-.219-.624-.5-.766-.366-.186-.727-.381-1.08-.589-.5-.293-.993-.6-1.557-.943-.222-.408-.487-.89-.716-1.309-.54-.03-.986-.057-1.567-.093zm48.733-22.382c.211-.492.371-.869.533-1.246a3.106 3.106 0 0 0 -2.5.268c-.316.181-.624.375-.558.834.625.5 1.227.067 1.811-.023.259.062.496.122.714.168zm-37.171-32.127c-.533-.975-.533-.975-1.085-1.252-.772.455.04 1.027-.11 1.54-.625.813-.625.813-.52 1.408a2.747 2.747 0 0 0 1.715-1.695zm16.837 4.18a3.29 3.29 0 0 0 2.132.913c-.037-.349-.074-.689-.1-.946l-1.027-.734a1.107 1.107 0 0 0 -1.005.769zm-20.929 56.155c.069-.055.137-.112.2-.167-.075-.182-.1-.426-.232-.537a13.938 13.938 0 0 0 -1.4-1c-.092-.059-.284.045-.517.09l.366.841.784.39c.269.13.539.256.799.383zm8.618-5.583c-.976-.311-1.859.117-1.913.93 1.002.23 1.744-.131 1.913-.93zm29.172-41.383c-.284-.495-.473-.667-.888-.639-.433.03-.946-.03-1.187.5a1.406 1.406 0 0 0 2.075.139zm-.62 15.659.921-.3c.119-.813.119-.813-.159-1.281a1.255 1.255 0 0 0 -1.055.714c.084.25.171.504.293.867zm2.075-7.666a1.125 1.125 0 0 0 1.326-.159.6.6 0 0 0 .02-.866c-.851.055-1.151.294-1.351 1.024zm1.189 1.791c.079.53.069.572.418.652.52.12 1.058.477 1.724-.013a3.1 3.1 0 0 0 -2.143-.64zm-40.231 28.269c-.677.366-.891.828-.615 1.237.217.326.468.323.966-.018a1.16 1.16 0 0 0 -.351-1.22zm.781-50.036c-.878.059-1.137.288-1.2 1.075a1.166 1.166 0 0 0 1.281-.3c.223-.225.193-.501-.082-.779zm-6.16 4.118c-.642.294-.742.334-.719.57.042.42-.244.948.365 1.267.119-.1.329-.2.328-.3a2.957 2.957 0 0 0 -.147-.672c.054-.278.099-.499.173-.865zm20.75 56.369c.756-.176.871-.458.552-1.241-.73-.03-.87.26-.552 1.241zm18.6-55.52a.52.52 0 0 0 -.358-.709 3.054 3.054 0 0 0 -.542-.064c-.048.232-.09.43-.13.62.345.275.638.454 1.026.153zm-14.368-1.451c.14.435.319.655.637.55a.719.719 0 0 0 .41-.436c.035-.145-.139-.341-.256-.59zm17.729 25.432c-.809.1-.864.167-.756.808.742.066.861-.054.752-.809zm-42.9 24.7c.2.311.435.329.665.177a.545.545 0 0 0 .259-.754c-.619-.116-.619-.116-.929.578zm5.3-51.292-.895.242c.135.276.224.458.354.721l.838-.418c-.126-.213-.192-.328-.307-.544zm6.258 52.815a.538.538 0 0 0 -.808-.224.523.523 0 0 0 -.344.724 1.412 1.412 0 0 0 1.142-.499zm9.343-56.44c-.669.216-.784.451-.48.985.666-.313.706-.397.471-.984zm-13.976 59.133a.519.519 0 0 0 .831.033c.181-.172.207-.385-.059-.6-.32.04-.692.028-.772.567zm41.363-25.94c.005-.681-.065-.747-.777-.806-.117.57-.081.612.777.806zm-12.241-29.206c.411.522.492.512.869-.107-.402-.515-.499-.505-.869.107zm7.994 18.887c.358.719.572.729 1.023.1-.265-.489-.608-.285-1.023-.099zm-4.772 3.386c.569-.465.609-.776.152-.958l-.453.283c.1.229.184.416.301.68zm-.289-7.864a1.867 1.867 0 0 0 .662-.124c.217-.15.174-.38-.04-.585-.415-.103-.582.1-.622.71zm-38.413 33.9c.127-.323.191-.488.263-.672-.365-.212-.647-.266-.925.211z" transform="translate(-270.561 -226.868)"/><path d="m184.429 6.671.93.921c.58.237.861-.219 1.107-.7 2.433-.189 4.839-.344 7.238-.57 2.369-.222 4.73-.517 7.243-.8-.326.846-.634 1.573-.883 2.321-.242.722-.426 1.465-.654 2.262-.6-.1-1.109-.182-1.624-.259s-1.042-.149-1.573-.224l-.5-.684-.945.5-4.8-.513c.105-.451.639-.652.5-1.142-.483-.015-.483-.015-1.819 1.132a3.774 3.774 0 0 1 -2.348-.49 3.839 3.839 0 0 1 -2.909.268l-.712.274c-.625-.65-1.244-1.282-2.272-.777-.032.268-.065.535-.1.846a3.5 3.5 0 0 1 -2.715-.154 2.159 2.159 0 0 1 -1.684.734c-1.132.124-2.254.323-3.369.488-.854-.349-.854-.349-1.46-.227-.109.2-.229.41-.356.635l-4.071.95c-.229-.119-.448-.231-.619-.318-.542-.018-.6.4-.779.722-1.1.365-2.21.706-3.3 1.105-1.672.612-3.326 1.271-4.993 1.893a11.126 11.126 0 0 1 -1.2.329c-.567.14-1.142.249-1.7.411a2.611 2.611 0 0 0 -1.418.981 3.168 3.168 0 0 1 -1.157.923 71.236 71.236 0 0 0 -14.144 9.845c-.186.167-.385.321-.6.5l-.777.054c-.115.306-.231.607-.346.911l-4.287 4.409c-.527-.522-.992-.985-1.478-1.466h-.816q-.482-.868-.923-1.659l-.91-.247-.606-1.045c.386-1.214 8.872-9.012 11.343-10.472-.426.809-.774 1.47-1.137 2.16l-.558.256c-.764 1.231-.772 1.3-.209 1.888.365.067.542-.169.732-.426.445-.6.921-1.185 1.364-1.789a8.986 8.986 0 0 0 .721-1.12 12.981 12.981 0 0 0 .488-1.206l.423-.349c-.052-.214-.1-.423-.171-.712.809-.557 1.622-1.137 2.46-1.677a1.8 1.8 0 0 1 .717-.15c.266-.035.537-.045.854-.07-.035-.291-.06-.5-.084-.694 3.722-2.841 17.961-9.059 20.752-9.032.124.361.254.746.385 1.127.436-.114.436-.114.706-.632-.025-.229-.054-.5-.079-.729l3.025-1a15.805 15.805 0 0 0 -2.555 2.917c.189.483.189.483.691.589l.254-.766c1.052-.886 2.142-1.836 3.271-2.734a2.864 2.864 0 0 1 1.119-.5 42.953 42.953 0 0 1 5.929-.89c2.162-.184 4.314-.488 6.476-.572a32.964 32.964 0 0 1 6.5.171c.3.048.607.07.94.109.408.319.766.789 1.436.764.038-.187.075-.368.117-.577h1.975l-.371.761c.528.5.543.5 1.368-.6a37.945 37.945 0 0 1 5.837.946 5.242 5.242 0 0 0 -.37.56.962.962 0 0 1 -.953.542c-.473 0-.948-.022-1.42.008-1.525.1-3.046.214-4.57.321-.164.012-.328 0-.54 0v-.732c-.1-.043-.206-.122-.244-.1a1.567 1.567 0 0 0 -.562.43 1.357 1.357 0 0 1 -1 .65 18.9 18.9 0 0 1 -3.235.3c-1.107.045-2.212.186-3.316.311-.337.041-.69.125-.68.58zm-33.508 8.852c-.527-.042-1.077-.274-1.588.184.433.7.993.257 1.513.279.054-.157.1-.284.137-.41.435.037.918.247 1.224-.324a1.044 1.044 0 0 0 -1.241-.274c-.016.185-.03.364-.045.544zm30.279-8.067c1-.5 2.058-.055 2.926-.619a.883.883 0 0 0 -1.025-.749c-.58.043-1.157.135-1.737.162-1.744.08-3.491.1-5.233.221-.963.065-1.916.268-2.871.42-.1.015-.176.119-.331.231.085.216.166.426.241.619l5.872-.391.51.674a2.664 2.664 0 0 0 1.648-.568zm-41.085 14.928c.923-.44.8-1.515 1.525-2.025l-.455-.724c-.281.247-.48.421-.7.619.267.753-.713 1.196-.37 2.13zm18.658-14.408c.908.338 1.518.257 1.946-.259-.278-.592-.806-.465-1.277-.4-.351.054-.707.183-.669.659zm40.042-1.65c-.843.324-1.045.644-.913 1.435a.978.978 0 0 0 1.089-.537.576.576 0 0 0 -.176-.898zm-28.169 1.99c-.005-1.088-.023-1.122-.647-1.254a1.41 1.41 0 0 0 .035 1.533c.228-.105.437-.195.612-.279zm25.835.662a1.162 1.162 0 0 0 1.572-.555c-.634-.465-1.199-.283-1.572.555zm-34.768 1.463.281.833 1.072-.3c-.023-.284-.042-.5-.065-.793zm13.3-1.71c-.744-.425-1.18-.308-1.428.341.661.469 1.034.391 1.431-.341zm-3.351.751c.838.164.953.12 1.169-.461l-1.142-.125c-.009.251-.016.404-.024.585zm-29.792 8.347a.572.572 0 0 0 -.3-.858l-.59.55c.367.422.367.422.892.307zm26.666-10.429c-.585-.41-.869-.376-1.211.139.613.431.84.406 1.211-.139zm-21.454 8.3c.525.441.859.413 1.175-.1-.578-.389-.772-.372-1.175.1zm-17.312 10.445c-.607.4-.617.563-.067 1.02.587-.32.597-.517.067-1.02zm15.369-7.8c.012.612.012.612.672.629a.39.39 0 0 0 .042-.629.464.464 0 0 0 -.714-.004zm-6.3 5.68c.762.018.886-.171.567-.774-.406.063-.506.349-.567.77zm28.935-13.072c.458-.037.781-.077.7-.6-.616-.216-.674-.178-.7.596zm-20.168 6c.438.465.6.43.846-.186-.361-.267-.624-.167-.846.187zm-1.175.1c.331.563.38.567.861.067-.271-.344-.542-.392-.862-.066zm14.722-5.053c-.625.152-.625.152-.622.7.582-.033.582-.035.622-.7zm21.484-8.119c-.512.207-.6.343-.388.665l.587-.092c-.086-.248-.142-.409-.199-.571zm-34.914 9.868c.385-.428.313-.65-.082-.908-.1.164-.261.308-.251.44s.182.272.333.471zm16.463-3.2-.3.589c.376.249.562.157.7-.207-.113-.107-.22-.207-.4-.378z" transform="translate(-97.81 5.849)"/><path d="m293.37 344.849.219.762.689.281a2.523 2.523 0 0 1 -.921 1.2c-.495.1-1.022-.226-1.522.236.127.284.256.574.421.948-.177.187-.371.408-.584.612-.257.249-.543.47-.791.729a.426.426 0 0 0 .03.687c.772.047 1.022-.739 1.619-1.089l.7.144 1.883-2.558a4.079 4.079 0 0 1 1.976 1.157c.094.53-.3 1.028.04 1.493l1.257.381c.109.222.2.42.232.48l2.694 1.249a.86.86 0 0 0 .513-.971q-.966-.943-1.9-1.851a.711.711 0 0 1 .8-.463 2.45 2.45 0 0 0 1.829-.66c.211-.2.395-.42.671-.716l.881.264c-.115 1.023-.115 1.023-.629 1.634.037.179.079.393.119.594-.386 1.46-.769 2.909-1.169 4.423l-17.1 4.595a4.686 4.686 0 0 0 .426.682c.4.428.813.841 1.236 1.244a2.107 2.107 0 0 1 .57.992c.2.692.463 1.369.727 2.042a4.591 4.591 0 0 0 .456.7c.329-.784-.089-1.326-.124-1.9.473.246 8.456 8.158 9.161 9.094q-.838 3.148-1.7 6.406c-.864.064-1.232.632-1.612 1.236a3.581 3.581 0 0 1 -1.144 1.062c.037.328.072.655.115 1.033l.888-.1.634.868c-.2.794-.4 1.6-.625 2.4a2.206 2.206 0 0 1 -.291.495 9.06 9.06 0 0 0 -.587 1.075c-1.277 1.129-3.02.915-4.58 1.557.02-.361.037-.645.06-1.035l-1.077-.226a32.18 32.18 0 0 1 -4.856-10.052c.214-.072.338-.117.466-.156s.264-.07.418-.11c.12-.333.237-.657.383-1.055.425.311.769.562 1.179.859.288-.308.523-.558.783-.838.936.04 1.617.756 2.5 1.11l.324-.587c-.482-.624-1.388-.406-1.824-1.072l.64-.911a.719.719 0 0 0 -.826-.6 6.528 6.528 0 0 0 -1.565.159 2.159 2.159 0 0 1 -2-.5c-.453-.353-.961-.635-1.543-1.012a33.715 33.715 0 0 1 1.027-14.032c.468-.527 1.3-.4 1.6-1.075a1.375 1.375 0 0 0 .007-.463l-.973-.443a32.876 32.876 0 0 1 7.559-12.116c.655.269.757.948 1.212 1.309.329.136.656.265.999.399zm-5.2 28.035a1.548 1.548 0 0 0 1.665-.284l-.254-.662-1.167.075c-.08.301-.149.55-.241.871zm2.264-5.31-.712.1v1.262c.286.069.528.125.9.212-.066-.59-.122-1.031-.185-1.574zm-.14-16.9c-.813.371-.955.532-1.043 1.139.832.175 1.303-.304 1.049-1.139zm.027 4.135c-.66-.035-1.017.724-.719 1.56a2.012 2.012 0 0 0 .722-1.56zm.025-7.907.752-.149c-.087-.65-.087-.65-.451-.956-.392.386-.392.386-.298 1.103zm6.235 3.411c-.645-.451-.719-.428-1.037.261l.545.386zm-4.466 22.666-.249-.778-.721.217c.1.3.172.537.269.843zm.326 3.968c.436-.152.483-.356.321-.562-.087-.11-.279-.14-.425-.206l-.137.132z" transform="translate(-226.254 -277.154)"/><path d="m8.972 228.014c.274.1.5.184.714.263.532-.1.767-.441.928-.975l-1.055-.754a5.405 5.405 0 0 1 1.124-2.261 2.3 2.3 0 0 0 .395-.709c.217-.59.4-1.194.572-1.707l.891-.483c-.017-.268-.033-.537-.057-.918l1.11-1.938c.436-.3.938-.365 1.1-.936-.045-.145-.11-.349-.182-.58l1.445-2.215c1.339.582 1.389.62 1.884 1.416-.025.207-.055.451-.092.761h.99l.843.806c-.44.709-.833 1.373-1.259 2.016a2.386 2.386 0 0 0 -.323 1.65c.461.217.677-.007.853-.321q.469-.838.936-1.675l.436-.777.895.274c-1.394 2.334-2.729 4.565-4.07 6.809l-.933 2.24a2.357 2.357 0 0 0 -2.142-.242c.344.955 1.227.438 1.844.764q-.211.484-.418.961l-.836.43c.06.286.119.57.177.856l-2.914 8.114c-.361.1-.649-.2-1-.334a10.454 10.454 0 0 0 -3.434-.891 1.23 1.23 0 0 0 -.308.069c-.261.582-.261.582.219 1.194a7.791 7.791 0 0 1 4.265.981c-.451 1.955-.886 3.841-1.316 5.708l-.752.244.535.963c-.037.2-.084.465-.14.781h-1.453c-.107.958.694.811 1.231 1.1a7.617 7.617 0 0 1 -.005.849c-.164 1.52-.343 3.036-.518 4.555-.022.194-.07.385-.075.579-.06 2.083-.207 4.172-.142 6.252.07 2.189.331 4.372.537 6.556.13 1.374.313 2.744.485 4.234-1.366-.308-2.714-.271-3.919-.941a1.838 1.838 0 0 0 -.951-.209 2.866 2.866 0 0 1 -2.01-.594 45.423 45.423 0 0 1 -.5-5.966 3.386 3.386 0 0 1 .538-.211c.712-.125 1.425-.263 2.142-.339a11.462 11.462 0 0 1 1.443.042l1.2-.622c-.2-.46-.543-.386-.821-.361-1.3.115-2.6.261-3.9.4-.189.02-.376.055-.6.089a3.043 3.043 0 0 1 -.306-1.456c0-1.446-.06-2.9.015-4.341.094-1.769.3-3.531.466-5.374a24.756 24.756 0 0 0 4.453.789c.119-.4-.145-.5-.348-.615a9.2 9.2 0 0 0 -2.732-1c-.378-.077-.751-.169-1.179-.266a24.063 24.063 0 0 1 .358-3.978h1.15c.182-.772-.443-.864-.8-1.1.118-3.484 3.76-15.524 5.316-17.656zm-2.33 15.142c.724-.737.786-1.105.341-1.747-.359.032-.716.065-1.073.094s-.791-.065-.963.274c.092.557.166 1 .256 1.54.45-.052.934-.106 1.439-.161zm2.13 17.814a1.9 1.9 0 0 0 -1.689.03c-.263.156-.518.343-.361.762.625.2 1.16-.2 1.736-.308.115-.021.187-.28.314-.484zm2.5-33.183c.841.7 1.5.737 2.016.154a1.526 1.526 0 0 0 -2.013-.154zm-2.91 41.231c-.537-.45-.767-.395-1.115.266.588.432.829.376 1.115-.266zm-5.292-4.118c.319.477.6.538 1.012.391v-.808c-.373.157-.647.271-1.012.417z" transform="translate(5.739 -170.558)"/><path d="m110.942 336.781a2.268 2.268 0 0 0 -1.97-1.68c-2.625-.612-5.245-1.247-7.869-1.869a1.685 1.685 0 0 0 -.348 0c-.022.418.278.567.5.742 1.15.921 2.317 1.824 3.471 2.742q2.415 1.924 4.82 3.859c.129.1.239.226.435.413l-.869 3.535c-.321.1-.6.2-.895.278q-3.273.838-6.549 1.664c-1.185.3-2.374.589-3.56.893-.309.079-.61.192-.895.284.042.45.336.45.562.5 1.135.271 2.277.522 3.414.791 1.488.353 2.975.709 4.458 1.08a1.966 1.966 0 0 0 2.155-.527 1.823 1.823 0 0 1 -.321 1.406 9.258 9.258 0 0 0 -3.078-.386c-.109.365-.216.722-.321 1.077.538.311.756-.207 1.172-.289a4.786 4.786 0 0 1 2.048.652c-.074.308-.147.614-.229.951h-4c-.022-.318-.038-.582-.06-.9-.808-.341-1.391.458-2.147.381-.1.259-.187.48-.279.717a9.909 9.909 0 0 1 -3.876-.368c-1.51-.378-3.025-.737-4.536-1.109-.62-.152-1.244-.3-1.856-.483a1.758 1.758 0 0 0 -1.722.326 4.954 4.954 0 0 1 -.455.278c.719-2.552 1.1-5.046 1.883-7.427.263-.1.466-.187.679-.246 2.118-.582 4.239-1.155 6.355-1.736q2.453-.675 4.9-1.364a7.985 7.985 0 0 0 .858-.361 42.967 42.967 0 0 0 -3.3-2.949c-1.052-.951-2.145-1.856-3.22-2.782l-3.249-2.792a50.878 50.878 0 0 1 1.685-7.5 2.652 2.652 0 0 0 2.033 1.438c3.714.846 7.41 1.767 11.112 2.66.893.216 1.792.4 2.675.65a2.03 2.03 0 0 0 2.108-.406 39.8 39.8 0 0 1 -1.719 7.857zm-19.342 12.039c.084-.247.167-.495.236-.7-.722-.682-.9-.719-1.5-.356.184.644.759.811 1.276 1.047-.075.164-.152.328-.261.565a2.525 2.525 0 0 0 .624.107 4.114 4.114 0 0 1 2.4.562 7.878 7.878 0 0 0 1.314.522 1.5 1.5 0 0 0 .574-.069c0-.622-.406-.732-.761-.871a3.623 3.623 0 0 1 -1.69-1.08 2.949 2.949 0 0 0 -2.212.273zm9.815 1.008a2.534 2.534 0 0 0 2.6.941.479.479 0 0 0 -.254-.629 3.79 3.79 0 0 0 -2.347-.312zm-3.815 1.781c.614-.605 1.538-.129 1.99-.863-.438-.538-.441-.538-1.746-.033-.281.005-.584-.263-.916.152.191.213.395.435.672.744z" transform="translate(-65.781 -261.852)"/><path d="m566.58 21.2c.326-.39.518-.622.645-.774.176-.57.321-1.042.468-1.523a1.95 1.95 0 0 0 1.5-1.46 5.588 5.588 0 0 1 1.336-2.169l.935.236c-.151.284-.263.493-.366.691.545.547.751.5 1.513-.4a80.314 80.314 0 0 1 34.429 18.979c.027.161.059.224.042.269-.354.928-.726 1.849-1.072 2.781-.152.411-.259.841-.385 1.262a5.214 5.214 0 0 1 -.234.793c-.251.523-.543 1.027-.873 1.639a96.292 96.292 0 0 0 -8.273-7.088 73.279 73.279 0 0 0 -9.138-5.825 76.528 76.528 0 0 0 -9.97-4.453 84.273 84.273 0 0 0 -10.557-2.958zm8.409-2.453c-.044.513-.747.848-.358 1.535l.759-.212c.253-.4.466-.744.686-1.094-.258-.462-.589-.487-1.087-.233zm-2.989-.447a1.092 1.092 0 0 0 -.192 1.751c.698-.484.771-1.021.192-1.751zm30.483 20.533c.164.339.445.3.7.162.331-.179.808-.231.839-.751a.976.976 0 0 0 -1.535.588zm-23-16.714c.1-.448.018-.746-.4-.881-.406.418-.406.418-.094 1 .165-.038.335-.079.501-.119zm-5.205-2.169c-.411-.288-.629-.232-.773.02-.12.209-.107.421.242.6.165-.18.334-.379.538-.62z" transform="translate(-462.651 -5.076)"/><path d="m582.343 147.111c-.547 1.16-1.027 2.18-1.553 3.3-5.391-2.428-10.681-4.846-16.08-7.315a3.493 3.493 0 0 1 .391-.207 2.4 2.4 0 0 0 1.413-1.44c1.082-2.409 2.192-4.807 3.282-7.213.918-2.027 1.821-4.06 2.73-6.09a1.969 1.969 0 0 0 -.127-1.936c.7.069 13.858 5.966 15.023 6.723-.408.92-.819 1.851-1.252 2.831a12.876 12.876 0 0 0 -1.667-1.187c-1.667-.829-3.369-1.587-5.058-2.371l-1.609-.746a15.994 15.994 0 0 0 -2.161 4.54c.3.174.624.365.978.572.04.152.087.331.145.557h1.01c1.991.635 3.66 1.928 5.852 2.142a18.524 18.524 0 0 1 -1.433 3.3c-.346-.293-.634-.579-.963-.8a7.9 7.9 0 0 0 -1.092-.607c-.9-.43-1.818-.843-2.727-1.259-.682-.313-1.364-.629-2.05-.931-.276-.122-.565-.212-.936-.351a8.519 8.519 0 0 0 -.525.838c-.359.752-.689 1.52-1.035 2.279-.547 1.2-.39 1.8.8 2.376 1.7.828 3.443 1.567 5.157 2.366a5.851 5.851 0 0 0 2.232.629c.356.011.712 0 1.255 0z" transform="translate(-461.302 -97.467)"/><path d="m425.15 410.672c1.562-1.236 1.281-2.7-.443-3.968 1.458-.445 2.834-.863 4.439-1.351-1.425 2.107-.731 3.638.993 4.976-1.144.846-2.237.573-3.464.226l-1.137.9c.328.55.59 1.033.893 1.49a10.968 10.968 0 0 0 3.433 3.474 4.612 4.612 0 0 0 3.349.689 3.1 3.1 0 0 0 2.478-2.22 2.29 2.29 0 0 0 -1.344-2.582 1.16 1.16 0 0 0 -.788.082 1.429 1.429 0 0 0 -.7 1.958c.048.124.1.249.149.38a1.53 1.53 0 0 1 -2.008-1.118 2.8 2.8 0 0 1 2.04-3.344 3.642 3.642 0 0 1 3.048.555c.11.189.236.4.351.6 1.468.65 1.889 2.557 1.378 4.051a5.05 5.05 0 0 1 -4.61 3.383 7.307 7.307 0 0 1 -5.061-2.032 13.067 13.067 0 0 1 -2.886-3.648c-.171-.311-.365-.607-.579-.961-1.167.5-1.988 1.6-3.359 1.533-.14.244-.276.478-.435.756.381.691.751 1.371 1.132 2.045a13.5 13.5 0 0 1 1.587 4.107 9.545 9.545 0 0 1 .072 2.241 1.586 1.586 0 0 1 -.642 1.244 1.416 1.416 0 0 1 -1.71-.642 8.007 8.007 0 0 1 -1.234-3.16 19.406 19.406 0 0 1 -.329-4.4c0-.351-.053-.7-.085-1.08l-4.779.844a5.5 5.5 0 0 0 -.333 1.9 11.987 11.987 0 0 1 -.772 3.148c-.134.3-.309.584-.473.89h-1.043l-.858.617c-.156-.465.105-.637.268-.834a8.065 8.065 0 0 0 1.861-4.041c.077-.542.059-1.1.085-1.705-.542-.124-1-.222-1.448-.333a8.167 8.167 0 0 1 -4.249-2.162 4.13 4.13 0 0 1 -1.1-3.767 6.99 6.99 0 0 1 2.909-4.329 20.086 20.086 0 0 1 2.294-1.351c.237-.135.5-.231.816-.376-.084-.461-.161-.886-.237-1.319.293-.473.7-.93.157-1.639l-1.764-.461.005-.074h2.063c.425.891.873 1.833 1.326 2.782l5.336-1.318a9.548 9.548 0 0 0 -.2-3.18l1.383-.838 1-.045c.129-.311.232-.562.354-.854l1.883-1.321c.181.428.329.774.5 1.184-.5.346-.978.679-1.458 1-.555.371-1.127.719-1.669 1.109a1.65 1.65 0 0 0 -.542.6 2.729 2.729 0 0 0 .59 2.421l-.866.811c.117.353.184.555.268.806l-.831.834c-.129-.634-.226-1.107-.331-1.629a12.624 12.624 0 0 0 -4.722 1.257c.112 1.249 3.632 8.024 4.57 8.825a4.025 4.025 0 0 0 .274-1.528q.08-2.084.135-4.17a.858.858 0 0 1 .657-.958c.055 2.547-.015 5.029-.015 7.5a5.719 5.719 0 0 0 3.418-1.894 63.889 63.889 0 0 1 -2.466-6.008l.655-.314a35.23 35.23 0 0 0 2.821 5.736zm-11.467 3.362a3.9 3.9 0 0 0 .107-.542 43.022 43.022 0 0 0 -.558-7.947.484.484 0 0 0 -.8-.542 6.085 6.085 0 0 0 -2.49 2.826 4.278 4.278 0 0 0 2.879 6.1 5.96 5.96 0 0 0 .862.105zm.4-9.113c.109 1.139.207 2.145.3 3.15.1 1.048.171 2.1.293 3.145a30.168 30.168 0 0 0 .179 3.077 7.125 7.125 0 0 0 4.322-.579c-1.605-2.906-3.157-5.718-4.715-8.527-.047-.078-.162-.118-.38-.265zm7.043 12.067-.221.055a1.666 1.666 0 0 0 -.135.45 12.683 12.683 0 0 0 .963 4.6c.114.293.3.612.741.582.762-.5.221-1.267.344-1.879l.59-.2c-.052-.2-.043-.425-.14-.485a4.971 4.971 0 0 0 -.831-.339c-.182-.451-.359-.948-.584-1.423s-.482-.907-.728-1.36z" transform="translate(-330.074 -320.389)"/><path d="m438.942 119.215a10.976 10.976 0 0 0 2.936 1.856 12.088 12.088 0 0 0 5.509.582 6.668 6.668 0 0 0 2.123-.707 1.718 1.718 0 0 0 .258-3.045 7.527 7.527 0 0 0 -2.817-1.209c-1.048-.278-2.107-.515-3.167-.747a10.568 10.568 0 0 1 -3.294-1.378 4.171 4.171 0 0 1 -1.557-5.4c.779-.232.779-.232 1.11-.784l-.441-.478a7.727 7.727 0 0 1 3.971-2.508 17.7 17.7 0 0 1 6.287-.51c1.384.1 2.769.214 4.153.324a3.915 3.915 0 0 1 .416.074 3.314 3.314 0 0 1 .075 1.619c-.281.441-.981.254-1.127.951l1.092.127v1.169c-.732-.349-1.415-.717-2.129-1.007a9.765 9.765 0 0 0 -4.34-.644c-.326.02-.657-.017-.985-.007a1.179 1.179 0 0 0 -.56.089 11.707 11.707 0 0 0 -1.5 1.043 1.794 1.794 0 0 0 .257 3.068 9.249 9.249 0 0 0 2.9 1.02c1.242.3 2.493.582 3.709.968a14.954 14.954 0 0 1 2.518 1.085 3.9 3.9 0 0 1 1.518 5.715 6.609 6.609 0 0 1 -3.152 2.749 16.694 16.694 0 0 1 -6.25 1.282 19.438 19.438 0 0 1 -6.272-.7c-.371-.107-.761-.15-1.234-.241a34.692 34.692 0 0 1 -.007-4.356z" transform="translate(-356.543 -79.65)"/><path d="m219.911 220.673c.391.293.766.574 1.211.9-1.344 1.468-2.888 2.762-4.451 4.29-.085-1.968-.975-3.558-1.486-5.294.49-.344 1.309-.331 1.3-1.2-.574-.326-1.155-.114-1.8-.079-.488-1.286-.978-2.572-1.455-3.824.563-.8 1.57-1 1.951-1.819-.368-.485-.8-.13-1.149-.247-.336-.112-.671-.311-1.08-.018.018.174.038.376.062.6-.08-.005-.2.02-.227-.02a3.021 3.021 0 0 1 -.366-.63c-.547-1.458-1.068-2.926-1.619-4.382-.176-.465-.416-.9-.664-1.436.171-.242.373-.53.6-.853-.112-.211-.222-.42-.358-.672a24.209 24.209 0 0 1 3.727-3.317l1.2.761c-.069.418-.132.814-.2 1.232.739.234 1.077-.334 1.545-.757a.717.717 0 0 1 -.365.851 10.113 10.113 0 0 0 -2.241 1.849 2.728 2.728 0 0 1 -.809.425c.077.278.154.553.217.784.813.458 1.262-.013 1.605-.44a5.519 5.519 0 0 0 1.647-.162c.423-.186.717-.664 1.18-1.125l1.6-1.132c4.617 1.525 9.072 3.563 13.838 4.926-1.662 1.836-3.6 3.409-5.406 5.272-.408-1.114-1.338-1.418-2.247-1.747-.676-.246-1.353-.49-2.062-.746l.465-1a1.244 1.244 0 0 0 -1.517.523c-.375.418-.726.874-.365 1.512l-3.551 3.389.854 2.555c-.119.154-.261.334-.478.617.349.163.634.293.894.414zm-2.368-6.665c.879-.853 1.781-1.605 2.557-2.483a14.347 14.347 0 0 0 -4.533-2.008 14.979 14.979 0 0 0 1.977 4.491zm.465 4.063c-.012-.553-.119-.7-.525-.722-.463-.03-.682.167-.757.712a1.251 1.251 0 0 0 1.283.01zm-6.355-10.85c-.217.518-.217.518.033.915.609-.12.609-.12.684-.774a1.044 1.044 0 0 0 -.274-.134 2.531 2.531 0 0 0 -.443-.007zm13.512 3.286c-.691-.217-.91-.057-.9.662.716.038.788-.015.9-.662zm1.017-1.227c-.741-.117-.741-.117-.854.441.633.247.713.211.854-.441z" transform="translate(-166.876 -160.654)"/><path d="m685.2 233.932 1.679.719c-.968.838-1.839 1.592-2.782 2.406-3.717-4.3-7.385-8.541-11.134-12.878.212.015.326.013.436.032a1.79 1.79 0 0 0 1.552-.43c.676-.579 1.361-1.149 2.033-1.731q4.73-4.1 9.46-8.2a1.7 1.7 0 0 0 .65-1.3c0-.161.023-.321.05-.669l5.172 5.964a7.517 7.517 0 0 0 -1.5.274 6.727 6.727 0 0 0 -1.19.809c-.46-.5-.684-1.227-1.446-1.49-.3 1.219-.59 2.393-.888 3.6q-1.946 1.678-3.906 3.369c-.861.746-1.732 1.485-2.57 2.257a1.323 1.323 0 0 0 -.247 1.94 20.706 20.706 0 0 0 1.624 2.006c1.007 1.161 2.05 2.277 3.007 3.322zm2.732-17.122c.443-.665.423-.963-.075-1.622-.508.162-.573.216-.615.507a1.1 1.1 0 0 0 .688 1.116z" transform="translate(-551.228 -168.303)"/><path d="m827.337 186.537a1.685 1.685 0 0 0 -1.057.612c-.232.227-.482.438-.8.729l-2.21-4.137c.07-.659.781-.91.605-1.548-.741-.333-.654.5-1.07.757a74.8 74.8 0 0 0 -7.245-10.064 1.168 1.168 0 0 1 .385-1.058c.224-.247.47-.475.7-.721a2.118 2.118 0 0 0 .664-1.314 2.287 2.287 0 0 1 .6-1.257 1.15 1.15 0 0 1 1-.5c.415.01.828 0 1.269 0a77.994 77.994 0 0 1 10.288 15c-.7.667-.7.667-.834 1.19.48.361.789-.252 1.313-.216l1.259 2.515a4.806 4.806 0 0 1 -2.817.184c.1-.341.182-.625.288-.981l-.609-.324c.018-.408.037-.823.055-1.257-.125-.2-.258-.413-.4-.647l-.746-.072-.655-.731c-.451-.012-.7.174-.759.575.423.492.821.955 1.251 1.456a1.522 1.522 0 0 0 -1.1 1.423l.583.135c.008.048.028.152.048.257zm-.657-8.295a2.352 2.352 0 0 0 -1.257.828c-.283.719-.938 1.262-1.078 2.093.657.1.776-.518 1.17-.642l.816.132c-.023-.466-.04-.838-.058-1.2.119-.408.574-.704.407-1.211zm-2.827-1.3c.831-.2 1.017-.475.836-1.19-.763.002-1.024.348-.836 1.186zm.172.819c-.3-.221-.495-.207-.63.032-.12.214-.132.42.266.565zm-1.363 2.832c-.385.14-.385.14-.351.545.535-.028.535-.028.351-.548z" transform="translate(-669.559 -131.906)"/><path d="m416.4 765.461c-.145 1.935-.694 3.817-.383 5.85-1.306.018-2.6-.3-4.068-.373a3.031 3.031 0 0 0 .938-2.272c.145-1.1.242-2.209.376-3.312.181-1.49.385-2.976.567-4.466.149-1.214.314-2.426.4-3.643a7.126 7.126 0 0 0 -.214-1.495c.988.1 2.052.206 3.115.323.772.085 1.548.164 2.314.3a18.648 18.648 0 0 1 2.023.461 3.319 3.319 0 0 1 2.558 3.311 5.269 5.269 0 0 1 -.669 2.973 6.489 6.489 0 0 1 -.916 1.065 7.757 7.757 0 0 1 -.63.538c.665 2.552 1.545 5.028 2.436 7.539a1.129 1.129 0 0 1 -.316.06c-.719-.072-1.441-.117-2.152-.242a1.761 1.761 0 0 1 -1.443-1.239c-.393-1.159-.808-2.311-1.212-3.464-.1-.289-.179-.587-.3-.864a1.944 1.944 0 0 0 -2.424-1.05zm.485-2.533a11.58 11.58 0 0 0 1.388.212 1.965 1.965 0 0 0 2-1.229 2.538 2.538 0 0 0 -.048-2.7 1.442 1.442 0 0 0 -.356-.349 3.309 3.309 0 0 0 -2.573-.468c-.184 1.364-.366 2.677-.53 3.993a1.8 1.8 0 0 0 .12.541zm.293.446c-1.11-.463-1.893-.141-2.013.788a1.96 1.96 0 0 0 1.707.062c.099-.273.203-.564.306-.849z" transform="translate(-334.524 -619.746)"/><path d="m27.808 607.534-1.776.573a5.59 5.59 0 0 0 .161 1.975c.712.112 1.162-.4 1.722-.587s1.1-.351 1.707-.545c.37.572.7 1.077 1.038 1.605a10.35 10.35 0 0 0 -1.789.263 11.324 11.324 0 0 0 -1.67.858l-.495-.813-.958-.2-1.44.941-.828-.256c-1.189-2.067-2.175-4.27-3.22-6.539.607-.035.992.8 1.684.269a4.09 4.09 0 0 0 -2.3-1.975 67.724 67.724 0 0 1 -3.794-11.853c.286.182.537.344.793.5q1.527.938 3.058 1.874c.1.059.221.089.286.169.784.968 1.986 1.3 2.971 1.958a2.584 2.584 0 0 0 .284.176 2.721 2.721 0 0 1 1.369 1.687c.614 1.757 1.308 3.486 1.99 5.282a15.187 15.187 0 0 0 -2.473 1.557 4.587 4.587 0 0 0 2.68.814c.144-.109.316-.241.5-.381.635.308.717.961 1.007 1.478-.15.347-.291.675-.507 1.17z" transform="translate(-5.578 -483.344)"/><path d="m716.926 604.666c-.211.607-.391 1.122-.575 1.65.284.724.987.291 1.485.53a1.764 1.764 0 0 1 .179 1.568 11 11 0 0 1 -.722 2.123c-.854 1.747-1.776 3.461-2.675 5.187a1.445 1.445 0 0 1 -.207.226 3.932 3.932 0 0 0 -1.98-1.583q-4.61-2.428-9.218-4.861a4.1 4.1 0 0 0 -2.113-.687c-.007-.125-.044-.219-.012-.278 1.02-1.911 2-3.842 3.087-5.718a4.7 4.7 0 0 1 4.27-2.438 10.033 10.033 0 0 1 4.486 1.129 10.275 10.275 0 0 1 3.995 3.152zm-12.139 2.034c.288.181.532.351.792.493.415.226.843.426 1.261.647 1.868.99 3.727 1.991 5.6 2.968.487.252 1.012.428 1.527.644a2.966 2.966 0 0 0 .649-.477c.948-1.291 1.2-2.588.062-3.951-.463-.553-.978-1.063-1.468-1.594-.037.042-.072.085-.109.127-.5-.236-.993-.492-1.5-.7-.973-.4-1.948-.813-2.941-1.164a2.491 2.491 0 0 0 -2.724.781 4.32 4.32 0 0 0 -1.149 2.226zm10.3 7.22-.759-.219c-.528.395-.528.395-.642.928.5.43.5.43 1.262.045.033-.188.077-.421.135-.75zm.383-8.688c-.886-.254-1.264-.055-1.381.687.877.344 1.288.155 1.377-.683zm-10.947-1.829c.759.271 1.1.135 1.358-.5-.658-.25-.855-.185-1.362.504z" transform="translate(-574.601 -490.978)"/><path d="m343.061 135.778-4.6 4.336c-.948-2.259-1.682-4.489-2.552-6.673.047-.212.092-.423.127-.587-.033-.08-.037-.119-.055-.129-.828-.47-.789-1.416-1.147-2.139a23.283 23.283 0 0 1 -.861-2.254c-.048-.13-.1-.261-.144-.391a2.469 2.469 0 0 0 -1.828-1.8 7.461 7.461 0 0 1 3.638-.935l.359-.622 3.413-1.292a5.135 5.135 0 0 0 -.341 1.371 4.474 4.474 0 0 0 .41 1.341q1.766 4.72 3.543 9.435a2.085 2.085 0 0 1 .038.339z" transform="translate(-268.129 -95.035)"/><path d="m740.327 516.82 1.826.249c-.2.236-.339.408-.5.6.473.456.839.11 1.282-.059-.055-.149-.1-.268-.167-.446l.6.152a.941.941 0 0 1 -.124.249 3.93 3.93 0 0 0 -1.528 2.506 4.149 4.149 0 0 0 .1 1.639 1.862 1.862 0 0 0 3.142.741 6.96 6.96 0 0 0 .828-1.142c.45-.7.851-1.436 1.319-2.127a3.916 3.916 0 0 1 5.088-1.343 4.687 4.687 0 0 1 3.011 4.66 7.454 7.454 0 0 1 -.4 2.956c-.3.712-.711 1.378-1.115 2.147l-3.175-.527a1.5 1.5 0 0 1 .716-.619 4.661 4.661 0 0 0 1.7-4.274 1.814 1.814 0 0 0 -3.108-.926 7.871 7.871 0 0 0 -1.055 1.383c-.353.533-.63 1.115-.982 1.649a3.961 3.961 0 0 1 -4.8 1.675 6.734 6.734 0 0 1 -1.924-.966 4.32 4.32 0 0 1 -1.622-4.311c.189-1.286.574-2.535.888-3.866z" transform="translate(-606.128 -421.616)"/><path d="m574.941 734.917c.361.826.691 1.58 1 2.277-1.426.594-2.754 1.145-4.078 1.7-.1.04-.166.14-.3.264q.584 1.482 1.18 2.993c-.326.167-.589.3-.849.433a.784.784 0 0 0 1.109.515c.736-.241 1.463-.513 2.19-.778.236-.085.461-.2.7-.284a4.738 4.738 0 0 0 2.481-1.719c.408.908.762 1.694 1.16 2.583l-8.74 3.724a6.088 6.088 0 0 0 -.794-3q-1.979-4.688-4-9.358a2.75 2.75 0 0 0 -1.3-1.67c2.789-1.247 5.461-2.379 8.247-3.516l.9 2.185a25.108 25.108 0 0 0 -4.851 1.9 37.9 37.9 0 0 0 1.68 3.817 20.057 20.057 0 0 0 4.265-2.066zm-5.757-.863a3.062 3.062 0 0 0 -2.087.7 1.436 1.436 0 0 0 2.087-.7zm-.838 1.189c-.883-.227-1.231-.028-1.286.691.911.137 1.096.045 1.287-.691z" transform="translate(-461.359 -597.536)"/><path d="m640.025 680.652-.328-.58-1.2.453c-.448-.5-.925-1.03-1.4-1.563a12.491 12.491 0 0 0 -1-1.115 10.61 10.61 0 0 0 -1.231-.811c.737-.654 1.458-1.291 2.192-1.943a3.631 3.631 0 0 1 .677.072c2.128.645 4.255 1.294 6.375 1.968a3.451 3.451 0 0 1 .769.473l2.249.338a2.271 2.271 0 0 0 -.246-.537c-1.495-1.685-2.988-3.373-4.51-5.035a8.924 8.924 0 0 0 -1.16-.9c.657-.821 1.57-1.4 2.426-2.259.14 1.542 1.329 2.235 2.113 3.2 1.015 1.251 2.133 2.418 3.2 3.612.094.38-.4.761.127 1.152h.891l3.453 3.874-1.53 1.341-6.155-1.9c.119-.306.206-.528.309-.794l-.247-.513.667-.6a1.315 1.315 0 0 0 -1.443-.411l-1.012 1.122c.022.117.062.339.129.7l-3.4-1.025c.079.891.9 1.152 1.2 1.936l-.572.436-2.107.187c.314-.36.505-.579.764-.878zm8.594-1.267h.9c.052-.706.012-.739-.8-.7-.019.186-.053.387-.1.699z" transform="translate(-519.605 -548.162)"/><path d="m210.262 661.445a6.249 6.249 0 0 1 1.717 2.239 9.974 9.974 0 0 0 -1.426.289 11.034 11.034 0 0 0 -1.364.7l.279.462-.625.284c-1.373-.553-2.824-.1-3.08.96.527.224.918-.344 1.5-.232-.177 1.048-.354 2.1-.552 3.269a4.228 4.228 0 0 1 -1-1.115c-.3-.359-.585-.737-.91-1.15l.629-.522c-.232-.532-.7-.293-1.092-.411-.037-.6-.54-.8-1-1.06a6.387 6.387 0 0 1 -3.319-3.988 6.673 6.673 0 0 1 -.079-2.557 4.129 4.129 0 0 1 3.459-3.077 5.423 5.423 0 0 1 2.369.284c-.326.664-1.1 1.042-1.222 1.786a.564.564 0 0 0 .783.151 2.077 2.077 0 0 0 .406-.291q2.661-2.277 5.314-4.56c.346-.3.669-.61 1.2-.2-.767.826-1.883 1.3-2.361 2.334.2.463.622.209.923.4a4.393 4.393 0 0 0 -1.652 2.724c-.206.774-.421 1.547-.635 2.338l-3.269.53q.316-1.339.61-2.6c-1.114-.523-2.455.288-3.023 1.7a2.218 2.218 0 0 0 1.609 3.03c.495-.129.346-.644.575-.971l3.262-.811c-.027.438-.055.9-.087 1.413a2.7 2.7 0 0 0 2.061-1.348z" transform="translate(-158.369 -534.253)"/><path d="m326.045 731.358c-.8 1.07-1.075 2.4-1.838 3.59a16.457 16.457 0 0 0 4.486 1.923l-1.135 2.445a16.816 16.816 0 0 0 -4.11-2.169 24.624 24.624 0 0 0 -2.734 5.974 1 1 0 0 1 -.309-.035c-1.058-.488-2.113-.985-3.276-1.53l.93-.659c.368 0 .729.013 1.09 0a2.064 2.064 0 0 0 1.371-.533.7.7 0 0 0 .252-.9 7.94 7.94 0 0 0 -2.1.308 1.2 1.2 0 0 1 .035-.333c.876-1.893 1.766-3.779 2.64-5.673.734-1.59 1.466-3.182 2.169-4.787a6.507 6.507 0 0 0 .259-1.217c2.578 1.226 5.215 2.363 7.86 3.729-.334.756-.63 1.43-.958 2.169-.533-.353-.97-.684-1.446-.941-.512-.278-1.065-.48-1.6-.722a3.95 3.95 0 0 0 -1.586-.639z" transform="translate(-255.762 -596.436)"/><path d="m778.776 388.857c-.572-1.448-1.11-2.811-1.722-4.362 1.453.779 2.63 1.694 4.023 2.426l3.56-2.911a6.055 6.055 0 0 1 -.077.619c-.256 1.023-.528 2.043-.779 3.068a7.9 7.9 0 0 0 -.107.888c1.247.793 2.475 1.575 3.847 2.448l-4.612.451a12.8 12.8 0 0 0 -.605 2.2c-.177.694-.395 1.378-.647 2.242-.624-1.522-1.177-2.874-1.762-4.3l-4.685.273z" transform="translate(-635.973 -311.303)"/><path d="m520.411 761.742 1.938-.371c.1.577.182 1.089.266 1.6.338 2.057.654 4.117 1.025 6.167a7.836 7.836 0 0 0 .57 1.43c-1.2.308-2.535.4-3.951.632a3.382 3.382 0 0 0 .169-2.1c-.42-2.466-.806-4.939-1.2-7.411a2.6 2.6 0 0 1 0-.363c.177-.239.366-.5.614-.833l-.773-.314c-.393-1.281-.211-2.759-1.167-4.033 1.311-.37 2.605-.408 3.954-.694-.533 1.55.162 2.976.253 4.463-.809.356-1.809.499-1.698 1.827z" transform="translate(-422.565 -619.496)"/><path d="m17.681 566.193a10.494 10.494 0 0 1 -2.353-1.378 6.065 6.065 0 0 0 -1.739-1.129 18.916 18.916 0 0 1 -3.1-1.93c-.344-.231-.665-.495-1.01-.752-.279-1.451-.557-2.884-.856-4.434.916.13 1.714.2 2.49.375.257.057.487.339.682.558.612.681 1.194 1.389 1.806 2.07a5.024 5.024 0 0 0 .614.495c.356-.338.2-.563.035-.8-.431-.607-.859-1.219-1.353-1.921.908-.288 1.684.137 2.548.1l.9 3.836-.144.064-.686-1.189-.94-.06a3.8 3.8 0 0 0 .294.784 20.062 20.062 0 0 0 1.408 1.853 3.727 3.727 0 0 1 .874 1.582c.149.56.314 1.116.53 1.876z" transform="translate(.443 -454.641)"/><path d="m130.224 564.846c-.04-.284-.079-.548-.124-.859.652-.1.973.4 1.443.665a1.692 1.692 0 0 0 1.64-.4 2.87 2.87 0 0 0 -1.71-.985c-.609-.187-1.231-.334-1.9-.513-.291-.667-.584-1.339-.878-2.01.054-.047.107-.094.159-.142l3.76 2.291 3.635-2.956c-.378 1.562-.727 3.008-1.1 4.535.664.445 1.3.869 1.909 1.282-.463.346-.891.629-1.266.97-.092.084-.013.356-.013.565l-1.334.1q-.582 2.157-1.16 4.3l-.161.022c-.525-1.3-1.052-2.6-1.523-3.772l-.988-1.012c-.587-.027-.587-.027-.808.624-.064-.156-.124-.306-.187-.455-.01-.025-.035-.042-.085-.1l-1.1-.328c.467-.829 1.301-1.155 1.791-1.822z" transform="translate(-99.342 -457.422)"/><path d="m94.776 167.89c.152.463.246.746.309.938.508.363.956.644 1.358.981.368.309.684.681 1.06 1.063-.072.359-.624.675-.309 1.261.161.022.346.045.557.072.182.211.376.436.567.659.609-.09.724-.59.98-1.052l.579.346-1.764 2.125c-.52.03-.948-.451-1.483 0 .067.3.144.629.219.961l-.1.062-.95-1.129-.707.09-1.985 3.006c-.363-.179-.363-.179-.495-.834a1.513 1.513 0 0 1 -1.64-.806c-.122-.167-.37-.237-.525-.388-.234-.226-.44-.483-.716-.794.543-.764 1.05-1.5 1.577-2.214s1.058-1.43 1.614-2.125c.567-.712 1.165-1.401 1.854-2.222zm-2.388 7.123c-.085-.149-.177-.313-.271-.478-.438.12-.717.279-.737.714.403.264.691.127 1.009-.236zm3.635-2.536c.281.142.475.065.572-.169a.363.363 0 0 0 -.263-.53.437.437 0 0 0 -.308.698z" transform="translate(-67.105 -131.811)"/><path d="m387.3 533.483a2.91 2.91 0 0 1 -1.532-2.149 6.785 6.785 0 0 1 .008-2.552 4.061 4.061 0 0 1 3.809-3.077 5.143 5.143 0 0 1 1.724.164 2.3 2.3 0 0 1 1.593 2.963 1.738 1.738 0 0 1 -2.627.818 2.813 2.813 0 0 1 .191-.329c.431-.562.475-.853.181-1.264a1.383 1.383 0 0 0 -1.47-.517 2.1 2.1 0 0 0 -1.353 2.394 3.005 3.005 0 0 0 1.2 2.045l-.647.918c-.242.136-.63.345-1.077.586z" transform="translate(-312.709 -429.011)"/><path d="m377.293 203.97c.3.7.594 1.3.811 1.925.308.883.61 1.744 1.717 1.978l-.05.164-7.181 2.744a6.056 6.056 0 0 0 .326-1.331 5.878 5.878 0 0 0 -.263-1.272z" transform="translate(-301.862 -161.786)"/><path d="m803.407 144.627c-.293.376-.525.675-.819 1.052-.813.565-2.016-.105-2.995.637.627.676 1.376.154 1.983.373-.191.324-.38.649-.58.99l-.742.38a2.658 2.658 0 0 1 -.784 1.983 10.34 10.34 0 0 1 -1.909-1.97 6.48 6.48 0 0 1 1-2.19 3.509 3.509 0 0 0 .793-1.433 3.083 3.083 0 0 1 .338-.7c.789-.079 1.02-.762 1.42-1.383.857.726 1.555 1.534 2.295 2.261z" transform="translate(-654.586 -110.925)"/><path d="m670.373 744.71 3.08 3.456c.094.709.177 1.339.271 2.057l-1.3 1.254c-.321-1.583-1.545-2.383-2.4-3.451-.689-.864-1.458-1.664-2.212-2.516a4.155 4.155 0 0 1 2.561-.8z" transform="translate(-547.097 -610.937)"/><path d="m273.984 660.993c-.667.532-1.376 1.1-2.21 1.766-.053-.37-.11-.6-.117-.826a3.55 3.55 0 0 0 -.741-2 1.963 1.963 0 0 0 -1.886-.918 6.338 6.338 0 0 1 2.075-2.015 6.171 6.171 0 0 1 1.68 1.764c.425.676.763 1.406 1.199 2.229z" transform="translate(-215.852 -538.092)"/><path d="m879.808 286.764-.5-.612c-.727-.084-.675 1.012-1.5.849-.144-.311-.313-.679-.485-1.05l.525-.694h2.135a4.1 4.1 0 0 1 3.26-.181c-1.193.587-2.296 1.13-3.435 1.688z" transform="translate(-721.01 -228.96)"/><path d="m506.87 426.8c.816-.258.816-.258 1.528-1.376a22.164 22.164 0 0 1 1.575 3.209 4.354 4.354 0 0 1 -1.522-.532c-.488-.192-.97-.4-1.491-.624-.03-.228-.06-.435-.09-.677z" transform="translate(-413.426 -345.748)"/><path d="m117.339 215.109-1.814 2.513c-.3-.261-.535-.46-.834-.716l1.5-2.386c.326.043.617.084.931.127.078.159.141.301.217.462z" transform="translate(-87.891 -170.56)"/><path d="m412.052 422.43a6.476 6.476 0 0 1 2.515.328c-.222.338-.413.632-.609.928h-1.908c.002-.428.002-.796.002-1.256z" transform="translate(-334.665 -343.275)"/><path d="m416.9 567.432c.244-.319.451-.592.667-.876a4.614 4.614 0 0 1 2.722-.878 6 6 0 0 1 -3.389 1.754z" transform="translate(-338.689 -462.258)"/><path d="m175.54 599.529 1.791-.7.791.4c-.522.353-.729.377-2.582.3z" transform="translate(-138.567 -489.814)"/><path d="m359.959 557.508c-.264-.89.535-1.257.988-1.807-.115.5-.216 1-.349 1.495-.077.286-.237.504-.639.312z" transform="translate(-291.358 -453.978)"/><path d="m238.386 850.856c-.478.324-.784.533-1.107.751l-.779-.53c.194-.219.373-.42.574-.647.09.125.177.244.266.366z" transform="translate(-188.841 -698.595)"/><path d="m246.82 654.08a6.066 6.066 0 0 1 -1.94 1.706 2.925 2.925 0 0 1 1.94-1.706z" transform="translate(-195.802 -535.703)"/><path d="m886.03 274.444.734-.037.383-.828c.13.184.214.3.323.46l-.921 1c-.473-.025-.435-.353-.507-.6z" transform="translate(-728.264 -219.626)"/><path d="m192.646 499.19c-.446.557-.951.269-1.435.3 0-.059-.008-.115-.012-.174z" transform="translate(-151.212 -407.046)"/><path d="m287.262 522.155c-.788.263-.814.241-.769-.525z" transform="translate(-230.362 -425.685)"/><path d="m244.91 220.118c.329-.368.6-.8 1.117-.948-.227.497-.697.689-1.117.948z" transform="translate(-195.829 -174.429)"/></g></svg>