<svg id="Ebene_1" data-name="Ebene 1" xmlns="http://www.w3.org/2000/svg" width="1000" height="1000" viewBox="0 0 1000 1000">
  <path d="M875,584q-3.12,14.07-13.28,21.88a36.24,36.24,0,0,1-22.66,7.81H381.25l9.37,50H810.94q17.19,0,28.12,14.06T846.88,709l-9.38,39.07a85.54,85.54,0,0,1,50,78.12q0,35.94-25.78,61.72T800,913.67q-35.94,0-61.72-25.78t-25.78-62.5q0-36.72,26.56-61.72H410.94q26.57,25,26.56,61.72t-25.78,62.5Q385.93,913.68,350,913.67t-61.72-25.78q-25.78-25.78-25.78-61.72a86.12,86.12,0,0,1,11.72-43.75,92,92,0,0,1,32-32.81L196.88,213.67H87.5A37.35,37.35,0,0,1,50,176.17v-25a37.35,37.35,0,0,1,37.5-37.5H248.44a34.2,34.2,0,0,1,22.65,8.6,39.65,39.65,0,0,1,13.29,21.09l14.06,70.31H912.5q18.75,0,29.69,14.06T948.44,259Z"/>
</svg>
