<svg id="Ebene_1" data-name="Ebene 1" xmlns="http://www.w3.org/2000/svg" width="1000" height="1000" viewBox="0 0 1000 1000">
  <path d="M500,126.17q104.68,0,193.75,52.35a391.61,391.61,0,0,1,141.41,141.4Q887.49,409,887.5,513.67T835.16,707.42q-52.35,89.07-141.41,141.41T500,901.17q-104.69,0-193.75-52.34T164.84,707.42Q112.5,618.37,112.5,513.67t52.34-193.75a391.61,391.61,0,0,1,141.41-141.4Q395.32,126.17,500,126.17Zm89.06,546.88a16.94,16.94,0,0,0,14.06,3.12,20,20,0,0,0,12.5-7.81L659.38,609a19.44,19.44,0,0,0,3.9-14.06,17.11,17.11,0,0,0-7-12.5l-100-71.87V294.92a18.68,18.68,0,0,0-18.75-18.75h-75a18.68,18.68,0,0,0-18.75,18.75v262.5q0,9.38,7.81,15.63Z"/>
</svg>
