<svg id="Ebene_1" data-name="Ebene 1" xmlns="http://www.w3.org/2000/svg" width="1000" height="1000" viewBox="0 0 1000 1000">
  <path d="M287.5,463.67a144.81,144.81,0,0,0-75,20.31,153,153,0,0,0-54.69,54.69L50,723.05V288.67q0-31.25,21.88-53.12T125,213.67H375l100,100H725q31.25,0,53.12,21.88T800,388.67v75ZM945.31,569.92q10.94-18.75,0-37.5T912.5,513.67h-625a99.85,99.85,0,0,0-50,13.28,90.47,90.47,0,0,0-35.94,36.72L87.5,757.42q-10.94,18.75,0,37.5t32.81,18.75h625a99.85,99.85,0,0,0,50-13.28,90.23,90.23,0,0,0,35.94-36.72Z"/>
</svg>
