<svg id="Ebene_1" data-name="Ebene 1" xmlns="http://www.w3.org/2000/svg" width="1000" height="1000" viewBox="0 0 1000 1000">
  <path d="M900,876.17a37.35,37.35,0,0,1-37.5,37.5h-725a37.35,37.35,0,0,1-37.5-37.5v-175a37.35,37.35,0,0,1,37.5-37.5H367.19l76.56,76.56Q467.2,763.68,500,763.67t56.25-23.44l76.56-76.56H862.5a37.35,37.35,0,0,1,37.5,37.5ZM562.5,113.67a37.35,37.35,0,0,1,37.5,37.5v262.5H737.5q20.31,0,28.12,19.53t-6.24,33.6L521.88,704.3q-9.39,9.38-21.88,9.37t-21.88-9.37L240.62,466.8q-14.06-14.07-6.24-33.6t28.12-19.53H400V151.17a37.35,37.35,0,0,1,37.5-37.5ZM696.88,816.8q-9.39-9.37-21.88-9.38t-21.88,9.38q-9.36,9.38-9.37,21.87t9.37,21.88q9.39,9.38,21.88,9.37t21.88-9.37q9.36-9.37,9.37-21.88T696.88,816.8Zm100,0q-9.39-9.37-21.88-9.38t-21.88,9.38q-9.36,9.38-9.37,21.87t9.37,21.88q9.39,9.38,21.88,9.37t21.88-9.37q9.36-9.37,9.37-21.88T796.88,816.8Z"/>
</svg>
