<svg id="Ebene_1" data-name="Ebene 1" xmlns="http://www.w3.org/2000/svg" width="1000" height="1000" viewBox="0 0 1000 1000">
  <path d="M939.06,476.17a69.74,69.74,0,0,1,0,75Q871.88,665.23,756.25,732.42,639.06,801.18,500,801.17T243.75,732.42Q128.13,665.24,60.94,551.17a69.74,69.74,0,0,1,0-75q67.19-114.06,182.81-181.25Q360.95,226.18,500,226.17t256.25,68.75Q871.87,362.1,939.06,476.17ZM500,726.17q57.81,0,106.25-28.9a220.13,220.13,0,0,0,77.34-77.35q28.9-48.43,28.91-106.25T683.59,407.42a220,220,0,0,0-77.34-77.34Q557.82,301.18,500,301.17T393.75,330.08a220,220,0,0,0-77.34,77.34q-28.91,48.43-28.91,106.25t28.91,106.25a220.13,220.13,0,0,0,77.34,77.35Q442.19,726.18,500,726.17Zm162.5-212.5q0-67.18-47.66-114.84T500,351.17a163.17,163.17,0,0,0-76.56,18.75q28.13,0,47.65,19.53t19.53,47.66q0,28.13-19.53,47.66T423.44,504.3q-28.12,0-47.66-19.53t-19.53-47.66a163.17,163.17,0,0,0-18.75,76.56q0,67.19,47.66,114.85T500,676.17q67.18,0,114.84-47.65T662.5,513.67Z"/>
</svg>
