<svg id="Ebene_1" data-name="Ebene 1" xmlns="http://www.w3.org/2000/svg" width="1000" height="1000" viewBox="0 0 1000 1000">
  <path d="M800,412.65q42.18,0,71.09,28.91T900,512.65v175q0,10.94-7,18t-18,7H800v150q0,20.31-14.84,35.16T750,912.65H250q-20.31,0-35.16-14.84T200,862.65v-150H125q-10.94,0-18-7t-7-18v-175q0-42.18,28.91-71.09T200,412.65v-250q0-20.31,14.84-35.16T250,112.65H679.69q20.31,0,34.37,14.06l71.88,71.88Q800,212.65,800,233Zm-100,50v-150H625q-10.93,0-18-7t-7-18v-75H300v250Zm0,350v-150H300v150Zm75-237.5a37.35,37.35,0,1,0-26.56-10.94A36.16,36.16,0,0,0,775,575.15Z"/>
</svg>
