<svg id="Ebene_1" data-name="Ebene 1" xmlns="http://www.w3.org/2000/svg" width="1000" height="1000" viewBox="0 0 1000 1000">
  <path d="M800,363.67v512.5a37.35,37.35,0,0,1-37.5,37.5h-525a37.35,37.35,0,0,1-37.5-37.5v-725a37.35,37.35,0,0,1,37.5-37.5H550v212.5a37.35,37.35,0,0,0,37.5,37.5ZM507.81,548.05l1.57-1.57q7.8-32.81,9.37-50,4.69-31.25,0-48.43-4.69-21.89-21.09-29.69a44.27,44.27,0,0,0-33.6-2.34q-17.19,5.46-20.31,21.09-6.25,20.31-1.56,51.56,3.12,26.57,14.06,68.75-35.94,84.38-64.06,134.38-45.31,21.87-70.31,46.87-34.38,34.38-15.63,59.38a38.12,38.12,0,0,0,16.41,11.72q10.15,3.9,18,3.9,20.33,0,43-22.65t52.35-74.22L459.38,709q68.75-23.43,100-28.12a241.71,241.71,0,0,0,52.34,21.87q27.35,7.82,47.66,7.82t31.24-12.5a39.53,39.53,0,0,0,10.16-28.91q-.78-16.41-10.16-25.78-25-23.45-115.62-10.94Q529.68,604.29,507.81,548.05ZM342.19,778.52q7.81-5.47,17.19-18,14.06-17.19,29.68-40.63l-6.25,4.69q-40.62,37.5-48.43,57.81Q334.38,784,342.19,778.52Zm95.31-93,21.88-9.38q48.44-18.75,76.56-25-32.82-23.43-54.69-64.06Q457.81,648,437.5,685.55Zm40.62-217.19q0-28.12,3.13-28.13,9.38,0,9.37,30.47t-6.24,43Q478.13,496.48,478.12,468.36ZM635.94,124.61a36.17,36.17,0,0,0-26.56-10.94H600v200H800V304.3a36.2,36.2,0,0,0-10.94-26.57Zm35.94,545.31q-4.7-4.68-18.76-6.25-18.75-3.12-46.87-1.56Q632.82,673,650,677.73q12.5,1.57,18.75,0l4.69-1.56Q676.56,674.61,671.88,669.92Z"/>
</svg>
