<svg id="Ebene_1" data-name="Ebene 1" xmlns="http://www.w3.org/2000/svg" width="1000" height="1000" viewBox="0 0 1000 1000">
  <path d="M550,326.17a37.35,37.35,0,0,0,37.5,37.5H800v512.5a37.35,37.35,0,0,1-37.5,37.5h-525a37.35,37.35,0,0,1-37.5-37.5v-725a37.35,37.35,0,0,1,37.5-37.5H550ZM632.81,584q0-51.56-31.25-85.93t-82.81-34.38H392.19a18.68,18.68,0,0,0-18.75,18.75v312.5a18.68,18.68,0,0,0,18.75,18.75h48.43a18.68,18.68,0,0,0,18.76-18.75V705.86h12.5q62.49,3.12,98.43-12.5Q632.82,666.8,632.81,584ZM503.12,537.11H459.38v95.31h42.18q20.31,0,32-13.28t11.72-34.37q0-21.1-10.93-34.38T503.12,537.11ZM789.06,277.73A36.2,36.2,0,0,1,800,304.3v9.37H600v-200h9.38a36.17,36.17,0,0,1,26.56,10.94Z"/>
</svg>
