<svg id="Ebene_1" data-name="Ebene 1" xmlns="http://www.w3.org/2000/svg" width="1000" height="1000" viewBox="0 0 1000 1000">
  <g id="Gruppe_589" data-name="Gruppe 589">
    <path id="Pfad_63" data-name="Pfad 63" d="M1000,331c0-144.52-117.09-261.7-261.6-261.74A261.65,261.65,0,0,0,499.89,223.11C440.27,91.53,285.27,33.19,153.68,92.81S-36.24,307.42,23.38,439a261.57,261.57,0,0,0,69.07,91.54L491.62,927.07a12.4,12.4,0,0,0,8.89,3.67,12.66,12.66,0,0,0,8.95-3.67l414-411.33h0A260.48,260.48,0,0,0,1000,331.05Z"/>
  </g>
</svg>
