<svg id="Ebene_1" data-name="Ebene 1" xmlns="http://www.w3.org/2000/svg" width="1000" height="1000" viewBox="0 0 1000 1000">
  <path d="M500,613.67q-20.31,0-50-18.75-17.19-9.37-48.44-34.37l-15.62-10.94Q193.75,409,125,355.86l-10.94-7.81Q100,337.12,100,318.36V288.67q0-31.25,21.88-53.12T175,213.67H825q31.25,0,53.12,21.88T900,288.67v29.69q0,18.75-14.06,29.69l-7.82,6.25q-67.18,53.11-264.06,195.31l-15.62,10.94q-31.26,25-48.44,34.37Q520.32,613.67,500,613.67ZM884.38,412.11q-56.25,43.75-240.63,176.56l-15.63,12.5q-35.93,28.13-59.37,40.63-37.5,21.87-68.75,21.87t-68.75-20.31q-21.87-12.5-59.37-40.63l-15.63-14.06Q167.19,451.18,115.62,412.11a10.1,10.1,0,0,0-10.15-.78q-5.48,2.34-5.47,8.59V738.67q0,31.26,21.88,53.13T175,813.67H825q31.25,0,53.12-21.87T900,738.67V419.92a10.13,10.13,0,0,0-5.47-9.37Q889.06,407.42,884.38,412.11Z"/>
</svg>
