<svg id="Ebene_1" data-name="Ebene 1" xmlns="http://www.w3.org/2000/svg" width="1000" height="1000" viewBox="0 0 1000 1000">
  <path d="M750,837.65q0,31.25-21.88,53.13T675,912.65H125q-31.25,0-53.12-21.87T50,837.65v-550q0-31.25,21.88-53.12T125,212.65H512.5a36.16,36.16,0,0,1,26.56,10.94l25,25a37.5,37.5,0,0,1-26.56,64.06H150v500H650V573.59A36.16,36.16,0,0,1,660.94,547l25-25A37.5,37.5,0,0,1,750,548.59ZM932.81,129.84q-17.19-17.19-40.62-17.19H643.75q-18.75,0-31.25,12.5T600,156.4v28.13q0,18.75,13.28,31.25a45.08,45.08,0,0,0,32,12.5L750,225.15,360.94,611.09a37.71,37.71,0,0,0,0,53.12l37.5,37.5a37.71,37.71,0,0,0,53.12,0L837.5,312.65l-3.12,104.69q0,18.75,12.5,32t31.24,13.28h28.13q18.75,0,31.25-12.5T950,418.9V170.46Q950,147,932.81,129.84Z"/>
</svg>
