<svg id="Ebene_1" data-name="Ebene 1" xmlns="http://www.w3.org/2000/svg" width="1000" height="1000" viewBox="0 0 1000 1000">
  <g>
    <path d="M548.78,471.17V122a48.78,48.78,0,1,0-97.56,0V471.17C387.61,491.81,341.46,551.56,341.46,622s46.15,130.14,109.76,150.78V878.05a48.78,48.78,0,1,0,97.56,0V772.73C612.39,752.09,658.54,692.34,658.54,622S612.39,491.81,548.78,471.17ZM548.56,692c-1.49,1-3.14,1.85-4.7,2.8a83.29,83.29,0,0,1-8.32,4.52c-1.81.84-3.68,1.56-5.55,2.27a82.5,82.5,0,0,1-9.47,2.95c-1.68.42-3.33.89-5,1.21a77,77,0,0,1-30.94,0c-1.72-.32-3.37-.79-5-1.21A83.68,83.68,0,0,1,470,701.6c-1.88-.72-3.75-1.44-5.57-2.28a84.25,84.25,0,0,1-8.31-4.52c-1.56-.95-3.21-1.76-4.7-2.8a85.06,85.06,0,0,1,0-140.1c1.49-1,3.14-1.85,4.7-2.79a82.3,82.3,0,0,1,8.31-4.53c1.82-.84,3.69-1.56,5.57-2.27a83.72,83.72,0,0,1,9.46-2.95c1.68-.42,3.33-.89,5-1.21a77.49,77.49,0,0,1,30.94,0c1.72.32,3.37.79,5,1.21a86.65,86.65,0,0,1,9.47,2.95c1.87.71,3.74,1.43,5.55,2.27a81.38,81.38,0,0,1,8.32,4.53c1.56.94,3.21,1.75,4.7,2.79a85.06,85.06,0,0,1,0,140.1Z" fill="#1d1d1b"/>
    <path d="M890.24,251.66V122a48.78,48.78,0,1,0-97.56,0V251.66c-63.6,20.64-109.75,80.39-109.75,150.78s46.15,130.14,109.75,150.78V878.05a48.78,48.78,0,1,0,97.56,0V553.22C953.85,532.58,1000,472.83,1000,402.44S953.85,272.3,890.24,251.66ZM890,472.49c-1.5,1-3.14,1.85-4.7,2.8a85.56,85.56,0,0,1-8.32,4.52c-1.81.84-3.68,1.56-5.56,2.27A83.88,83.88,0,0,1,862,485c-1.67.42-3.33.89-5,1.21a77.54,77.54,0,0,1-31,0c-1.71-.32-3.37-.79-5-1.21a84.36,84.36,0,0,1-9.46-2.95c-1.88-.71-3.75-1.43-5.56-2.27a85.56,85.56,0,0,1-8.32-4.52c-1.56-1-3.21-1.76-4.7-2.8a85.07,85.07,0,0,1,0-140.1c1.49-1,3.14-1.85,4.7-2.8a85.56,85.56,0,0,1,8.32-4.52c1.81-.84,3.68-1.56,5.56-2.28a84.32,84.32,0,0,1,9.46-2.94c1.68-.42,3.34-.89,5-1.21a77.05,77.05,0,0,1,31,0c1.71.32,3.37.79,5,1.21a81.89,81.89,0,0,1,9.47,2.95c1.88.71,3.75,1.43,5.56,2.27a85.56,85.56,0,0,1,8.32,4.52c1.56,1,3.2,1.76,4.7,2.8a85.07,85.07,0,0,1,0,140.1Z" fill="#1d1d1b"/>
    <path d="M207.32,178.49V122a48.78,48.78,0,0,0-97.56,0v56.54C46.15,199.12,0,258.88,0,329.27S46.15,459.41,109.76,480.05v398a48.78,48.78,0,0,0,97.56,0v-398c63.6-20.64,109.75-80.39,109.75-150.78S270.92,199.12,207.32,178.49Zm-.22,220.83c-1.49,1-3.14,1.85-4.7,2.79a83.55,83.55,0,0,1-8.32,4.53c-1.81.84-3.68,1.56-5.56,2.27a85.31,85.31,0,0,1-9.47,2.95c-1.67.42-3.33.89-5,1.21a77.54,77.54,0,0,1-30.95,0c-1.71-.32-3.37-.79-5-1.21a83.88,83.88,0,0,1-9.47-2.95c-1.87-.71-3.75-1.43-5.56-2.27a85.65,85.65,0,0,1-8.32-4.53c-1.56-.94-3.2-1.76-4.7-2.79a85.07,85.07,0,0,1,0-140.1c1.5-1,3.14-1.85,4.7-2.8A85.56,85.56,0,0,1,123,251.9c1.81-.84,3.69-1.56,5.56-2.28a83.84,83.84,0,0,1,9.47-2.94c1.67-.42,3.33-.89,5-1.21a85,85,0,0,1,15.48-1.57A84.79,84.79,0,0,1,174,245.47c1.71.32,3.37.79,5,1.21a83.21,83.21,0,0,1,9.47,2.94c1.88.72,3.75,1.44,5.56,2.28a85.56,85.56,0,0,1,8.32,4.52c1.56.95,3.21,1.76,4.7,2.8a85.07,85.07,0,0,1,0,140.1Z" fill="#1d1d1b"/>
  </g>
</svg>
