<svg id="Ebene_1" data-name="Ebene 1" xmlns="http://www.w3.org/2000/svg" width="1000" height="1000" viewBox="0 0 1000 1000"><path d="M815.62,609q-51.55,112.5-137.5,196.88-71.86,70.3-150,101.56-28.11,12.51-56.24,0Q382.81,871.48,307.81,791.8,225,705.87,178.12,590.23,125,460.55,125,313.67a74.39,74.39,0,0,1,12.5-42.19,67.36,67.36,0,0,1,34.38-26.56l300-125q28.11-12.49,56.24,0l300,125a67.36,67.36,0,0,1,34.38,26.56A74.39,74.39,0,0,1,875,313.67Q875,474.6,815.62,609Zm-125,23.44Q771.88,499.61,775,330.86L500,215.23V810.55Q617.18,752.74,690.62,632.42Z"/></svg>