<svg id="Ebene_1" data-name="Ebene 1" xmlns="http://www.w3.org/2000/svg" width="1000" height="1000" viewBox="0 0 1000 1000">
  <g id="Gruppe_251" data-name="Gruppe 251">
    <g id="Twitter" style="isolation: isolate">
      <g style="isolation: isolate">
        <path d="M897.84,335.08C897.84,606,691.63,918.2,314.72,918.2c-116.12,0-224-33.63-314.72-92a424.51,424.51,0,0,0,49.49,2.54,410.46,410.46,0,0,0,254.45-87.57c-90.11-1.9-165.62-60.91-191.63-142.13A258.75,258.75,0,0,0,151,602.21a216.71,216.71,0,0,0,53.93-7A205,205,0,0,1,40.61,394.09v-2.54a206.4,206.4,0,0,0,92.64,26A205.26,205.26,0,0,1,69.8,143.45,582.49,582.49,0,0,0,492.38,357.92,231.5,231.5,0,0,1,487.31,311c0-113,91.37-205,205-205A204.46,204.46,0,0,1,842,170.74a403.61,403.61,0,0,0,130.07-49.49A204.39,204.39,0,0,1,882,234.19c41.24-4.44,81.22-15.86,118-31.73a440.75,440.75,0,0,1-102.79,106C897.84,317.31,897.84,326.2,897.84,335.08Z"/>
      </g>
    </g>
  </g>
</svg>
