<svg id="Ebene_1" data-name="Ebene 1" xmlns="http://www.w3.org/2000/svg" width="1000" height="1000" viewBox="0 0 1000 1000">
  <path d="M640.62,563.67A204.94,204.94,0,0,1,745.31,591.8a207.76,207.76,0,0,1,76.57,76.56A205,205,0,0,1,850,773.05v65.62q0,31.26-21.88,53.13T775,913.67H225q-31.25,0-53.12-21.87T150,838.67V773.05a205,205,0,0,1,28.12-104.69,207.76,207.76,0,0,1,76.57-76.56,204.94,204.94,0,0,1,104.69-28.13h26.56a272.69,272.69,0,0,0,228.12,0ZM500,513.67q-54.69,0-100.78-26.56a194.6,194.6,0,0,1-72.66-72.66Q300,368.36,300,313.67t26.56-100.78a194.6,194.6,0,0,1,72.66-72.66Q445.31,113.68,500,113.67t100.78,26.56a194.6,194.6,0,0,1,72.66,72.66Q700,259,700,313.67T673.44,414.45a194.6,194.6,0,0,1-72.66,72.66Q554.68,513.67,500,513.67Z"/>
</svg>
