<svg id="Ebene_1" data-name="Ebene 1" xmlns="http://www.w3.org/2000/svg" width="1000" height="1000" viewBox="0 0 1000 1000">
  <path id="Pfad_1818" data-name="Pfad 1818" d="M783.91,475.06l-1.4-3.27c-23-53.65-48-100.24-74.36-149.52l-5.6-10.42C662,236,610.6,150.64,545.5,50.77c-11.21-17.23-21.07-31.6-29.22-42.7a19.8,19.8,0,0,0-32.44.76,3040.12,3040.12,0,0,0-261.17,456l-3.1,6.92a535.13,535.13,0,0,0-55.78,178,317.39,317.39,0,0,0,89,239.45A321.62,321.62,0,0,0,498.35,1000c10.42,0,21.21-.42,32.08-1.26A333.68,333.68,0,0,0,745.78,893.5a339,339,0,0,0,91.14-229.25A520.07,520.07,0,0,0,783.91,475.06ZM444,802.56a99.9,99.9,0,0,1-45.83,11A101.9,101.9,0,0,1,295,721.34,208.32,208.32,0,0,1,332.15,614.6c4-7.17,7.88-14,11.52-20.78,17.56-33,33.25-62,51.44-91.59,17.09,26.79,34.71,56,52.16,88.73,2.5,4.68,5.16,9.52,7.85,14.51a266.58,266.58,0,0,1,40.76,109A98.57,98.57,0,0,1,444,802.59Z"/>
</svg>
