<?xml version="1.0" standalone="no"?>
<!DOCTYPE svg PUBLIC "-//W3C//DTD SVG 20010904//EN"
 "http://www.w3.org/TR/2001/REC-SVG-20010904/DTD/svg10.dtd">
<svg version="1.0" xmlns="http://www.w3.org/2000/svg"
 width="1000.000000pt" height="1000.000000pt" viewBox="0 0 1000.000000 1000.000000"
 preserveAspectRatio="xMidYMid meet">
<metadata>
Created by potrace 1.14, written by Peter Selinger 2001-2017
</metadata>
<g transform="translate(0.000000,1000.000000) scale(0.100000,-0.100000)"
fill="#000000" stroke="none">
<path d="M4595 9489 c-122 -11 -437 -56 -468 -68 -13 -5 -65 -46 -116 -91 -51
-45 -94 -80 -96 -78 -6 5 48 60 98 101 26 21 45 42 42 47 -6 10 -110 -15 -148
-36 -15 -8 -31 -13 -36 -9 -30 18 -475 -134 -731 -250 -198 -89 -560 -288
-560 -307 0 -3 8 -9 18 -12 9 -3 4 -4 -12 -2 -85 11 -670 -463 -898 -727 -45
-51 -50 -61 -36 -71 8 -6 18 -21 22 -33 5 -15 18 -24 41 -29 29 -5 37 -13 57
-60 21 -50 25 -54 50 -48 22 4 33 -2 64 -35 20 -23 40 -41 45 -41 5 0 64 57
131 126 265 273 586 520 923 709 66 38 138 85 160 106 45 42 72 55 148 68 29
5 133 40 232 78 157 61 324 113 580 181 43 11 69 23 67 30 -4 20 27 26 46 9
15 -13 29 -13 127 4 61 10 123 18 139 19 16 0 35 8 42 18 10 13 17 15 31 6 22
-13 159 -4 156 11 -1 6 -5 18 -8 28 -6 14 -2 17 20 17 35 0 65 -17 59 -34 -8
-20 182 -21 212 -1 19 12 23 12 28 0 4 -11 23 -15 70 -15 36 0 67 4 71 10 3 5
20 19 38 31 l32 23 -24 -27 c-30 -33 -30 -33 124 -47 66 -5 189 -20 273 -31
100 -14 157 -18 163 -12 5 5 12 27 16 49 3 21 14 57 24 78 11 22 19 46 19 53
0 8 9 31 20 53 25 49 25 50 -2 51 l-23 0 23 11 c12 6 21 16 19 22 -2 6 6 18
17 27 l21 17 -25 11 c-14 6 -83 19 -155 30 -130 20 -167 24 -345 41 -117 11
-648 10 -785 -1z m905 -54 c-7 -8 -17 -15 -23 -15 -5 0 -2 9 8 20 21 23 35 19
15 -5z m-97 -90 c-3 -9 -8 -14 -10 -11 -3 3 -2 9 2 15 9 16 15 13 8 -4z m402
-20 c-26 -10 -589 -65 -807 -78 -67 -5 -90 4 -45 17 12 4 99 11 193 16 94 5
183 14 198 20 15 5 31 8 34 6 4 -2 61 2 127 9 110 12 324 19 300 10z m-1975
-31 c0 -8 -4 -12 -10 -9 -5 3 -10 13 -10 21 0 8 5 12 10 9 6 -3 10 -13 10 -21z
m1029 -55 c-13 -4 -56 -7 -96 -8 -68 -1 -71 -2 -65 -23 3 -14 2 -19 -6 -14 -7
4 -12 13 -12 20 0 15 -102 13 -284 -5 -92 -9 -117 -7 -104 6 12 12 135 25 337
35 118 6 217 12 219 15 3 3 12 -1 20 -7 13 -11 11 -14 -9 -19z m865 -12 c-2
-7 -13 -18 -24 -25 -25 -16 -28 3 -4 29 18 20 36 17 28 -4z m-1824 -13 c0 -8
-5 -12 -10 -9 -6 4 -8 11 -5 16 9 14 15 11 15 -7z m1097 0 c-3 -3 -12 -4 -19
-1 -8 3 -5 6 6 6 11 1 17 -2 13 -5z m-867 -35 c0 -10 -4 -19 -10 -19 -5 0 -10
12 -10 26 0 14 4 23 10 19 6 -3 10 -15 10 -26z m530 11 c0 -5 -4 -10 -10 -10
-5 0 -10 5 -10 10 0 6 5 10 10 10 6 0 10 -4 10 -10z m-1107 -7 c-13 -2 -33 -2
-45 0 -13 2 -3 4 22 4 25 0 35 -2 23 -4z m2093 -48 c-11 -8 -25 -15 -30 -15
-6 0 -2 7 8 15 11 8 25 15 30 15 6 0 2 -7 -8 -15z m-1276 -15 c0 -5 -12 -10
-26 -10 -14 0 -23 4 -19 10 3 6 15 10 26 10 10 0 19 -4 19 -10z m-670 -100 c0
-5 -9 -10 -21 -10 -11 0 -17 5 -14 10 3 6 13 10 21 10 8 0 14 -4 14 -10z
m-617 -257 c-7 -2 -19 -2 -25 0 -7 3 -2 5 12 5 14 0 19 -2 13 -5z m-90 -30
c-7 -2 -19 -2 -25 0 -7 3 -2 5 12 5 14 0 19 -2 13 -5z m-473 -92 c0 -6 -4 -13
-10 -16 -5 -3 -10 1 -10 9 0 9 5 16 10 16 6 0 10 -4 10 -9z m-135 -9 c-5 -4
-19 -29 -31 -57 -27 -67 -144 -219 -157 -206 -14 14 22 81 39 74 7 -3 21 15
34 43 25 58 96 154 113 154 7 0 8 -3 2 -8z m355 -62 c0 -5 -2 -10 -4 -10 -3 0
-8 5 -11 10 -3 6 -1 10 4 10 6 0 11 -4 11 -10z m-250 -89 c0 -12 -20 -25 -27
-18 -7 7 6 27 18 27 5 0 9 -4 9 -9z m-43 -83 c-3 -8 -6 -5 -6 6 -1 11 2 17 5
13 3 -3 4 -12 1 -19z m-593 -279 c-3 -5 -10 -7 -15 -3 -5 3 -7 10 -3 15 3 5
10 7 15 3 5 -3 7 -10 3 -15z"/>
<path d="M5948 9297 c-32 -64 -51 -91 -62 -89 -18 3 -56 -53 -56 -82 0 -10
-11 -31 -25 -48 -14 -16 -25 -33 -25 -38 0 -4 35 -15 78 -25 42 -9 163 -40
267 -69 630 -177 1244 -528 1711 -978 50 -49 96 -88 102 -88 7 0 11 -4 10 -8
-4 -10 116 -142 128 -142 14 0 67 107 59 119 -4 7 3 10 16 8 17 -1 24 5 31 30
5 18 17 34 28 38 11 4 20 13 20 21 0 10 -15 14 -57 15 l-58 2 65 7 c81 9 100
17 100 41 0 10 6 19 14 19 35 0 23 25 -45 95 -40 41 -77 75 -83 75 -6 0 -19
-14 -28 -30 -11 -18 -22 -28 -31 -24 -16 6 -57 -52 -57 -81 0 -10 -7 -26 -15
-35 -9 -10 -31 -46 -50 -81 -19 -35 -35 -58 -35 -51 0 7 14 38 30 69 17 31 30
68 30 83 0 15 11 44 25 64 14 20 25 46 25 57 0 11 9 38 21 60 l20 41 -43 40
c-73 69 -278 238 -373 308 -423 313 -933 566 -1420 706 -139 40 -151 41 -158
14 -3 -11 -13 -20 -23 -20 -16 0 -16 1 -1 18 10 10 17 21 17 25 0 7 -67 27
-90 27 -9 0 -34 -39 -62 -93z m153 -164 c-9 -15 -10 -13 -11 13 0 17 3 34 8
38 11 12 14 -32 3 -51z m209 27 c-19 -13 -30 -13 -30 0 0 6 10 10 23 10 18 0
19 -2 7 -10z m-31 -41 c-16 -10 -23 -4 -14 10 3 6 11 8 17 5 6 -4 5 -9 -3 -15z
m228 -111 c-3 -8 -6 -5 -6 6 -1 11 2 17 5 13 3 -3 4 -12 1 -19z m1363 -938
c-8 -5 -22 -10 -30 -10 -13 0 -13 1 0 10 8 5 22 10 30 10 13 0 13 -1 0 -10z"/>
<path d="M5920 9320 c0 -11 5 -20 10 -20 6 0 10 9 10 20 0 11 -4 20 -10 20 -5
0 -10 -9 -10 -20z"/>
<path d="M4945 8536 c-123 -29 -195 -65 -272 -140 -45 -42 -54 -66 -27 -66 8
0 13 -4 10 -9 -3 -5 -14 -7 -24 -4 -37 9 -66 -120 -42 -193 42 -130 143 -191
420 -255 218 -50 293 -116 225 -198 -41 -48 -103 -66 -230 -65 -165 1 -267 37
-352 124 -21 22 -41 40 -46 40 -4 0 -6 -69 -5 -152 l3 -153 55 -7 c30 -3 71
-11 90 -17 72 -22 242 -32 356 -21 198 20 327 68 417 157 120 118 129 273 21
373 -66 60 -149 95 -346 144 -183 46 -239 71 -258 117 -15 35 -3 75 29 100 46
35 99 67 104 63 3 -3 54 -7 113 -8 120 -3 213 -30 278 -80 19 -14 39 -26 45
-26 13 0 15 89 2 109 -5 8 -16 11 -30 6 -12 -4 -21 -2 -21 4 0 6 11 11 25 11
29 0 38 24 33 91 l-3 44 -80 7 c-190 16 -429 18 -490 4z"/>
<path d="M3913 8342 c-69 -26 -123 -52 -123 -60 0 -7 -11 -12 -27 -10 -28 1
-203 -60 -203 -72 0 -3 20 -11 45 -18 52 -14 53 -15 125 -202 28 -74 57 -139
64 -145 6 -5 10 -17 8 -26 -1 -8 22 -78 51 -155 30 -76 58 -150 62 -164 4 -14
16 -43 25 -65 47 -105 50 -138 15 -189 -16 -24 -20 -36 -11 -36 7 0 85 27 172
61 87 33 193 73 234 89 41 15 76 32 78 38 1 5 -15 12 -37 16 -48 7 -60 23
-102 132 -17 44 -34 83 -40 88 -5 6 -40 -21 -91 -70 -97 -93 -176 -159 -184
-152 -4 5 90 94 230 220 l39 35 -48 124 c-142 372 -185 491 -185 512 0 12 11
39 25 60 16 23 21 37 13 36 -7 0 -68 -21 -135 -47z"/>
<path d="M6175 8370 c-3 -4 2 -13 10 -20 8 -6 19 -27 25 -45 13 -38 14 -35
-175 -450 -47 -104 -109 -241 -137 -303 -54 -119 -75 -142 -133 -142 -15 0
-25 -5 -23 -11 3 -9 166 -86 483 -229 72 -32 186 -84 255 -115 69 -32 144 -66
168 -76 l43 -19 50 105 c27 57 49 106 49 108 0 3 -35 7 -77 9 -72 4 -93 11
-257 86 -189 87 -216 103 -216 134 0 22 79 206 92 214 4 3 86 -30 181 -72 125
-57 183 -88 211 -116 22 -22 43 -35 47 -31 10 10 99 210 99 222 0 5 -17 7 -37
4 -31 -4 -64 7 -177 57 -95 42 -146 60 -162 56 -18 -5 -22 -3 -18 9 4 10 -6
20 -30 32 -20 9 -35 22 -32 27 43 106 92 209 101 212 6 3 94 -33 195 -78 131
-60 197 -95 230 -125 l47 -42 42 88 c22 49 41 96 41 104 0 8 -17 21 -37 29
-34 14 -362 162 -720 326 -73 33 -135 57 -138 52z"/>
<path d="M8331 8002 c-7 -12 -10 -26 -7 -31 3 -5 -7 -11 -22 -14 -31 -6 -83
-72 -87 -110 -1 -12 -3 -25 -4 -30 0 -4 -18 -26 -40 -50 -68 -75 -68 -77 -8
-149 103 -122 209 -269 307 -423 35 -55 66 -102 69 -105 3 -3 35 -61 70 -130
78 -151 79 -154 98 -139 7 7 16 9 20 6 3 -4 -2 -9 -11 -13 -9 -3 -16 -13 -16
-20 0 -22 39 -94 51 -94 6 0 7 -5 3 -11 -3 -6 -1 -21 5 -32 6 -12 24 -58 42
-102 17 -44 37 -93 44 -110 8 -16 32 -90 55 -162 23 -73 45 -133 49 -133 4 0
12 5 19 12 22 22 26 -2 5 -30 -18 -25 -19 -31 -7 -73 13 -42 18 -47 49 -53 19
-4 35 -11 35 -15 0 -13 -27 -21 -45 -15 -18 7 -18 8 1 -77 10 -46 20 -69 30
-69 11 0 12 -4 3 -17 -8 -14 -5 -51 10 -146 12 -70 21 -138 21 -152 0 -13 7
-30 15 -39 8 -8 12 -22 9 -31 -5 -11 0 -18 13 -21 17 -5 18 -10 10 -62 -14
-93 -19 -172 -13 -189 6 -14 8 -14 26 2 30 27 35 11 11 -30 -27 -46 -27 -65 0
-65 16 0 19 -4 13 -22 -3 -12 -15 -29 -25 -37 -14 -12 -19 -32 -20 -82 -1 -36
1 -72 6 -78 4 -7 3 -23 -3 -34 -6 -12 -16 -85 -22 -162 -54 -689 -284 -1348
-675 -1940 -51 -77 -95 -152 -99 -168 -3 -15 -21 -37 -39 -49 -42 -28 -157
-172 -157 -196 0 -21 -18 -42 -36 -42 -7 0 -82 -69 -166 -153 -237 -237 -384
-359 -628 -522 -391 -260 -744 -422 -1215 -555 -131 -37 -108 -32 -273 -64
-258 -51 -420 -67 -713 -73 -292 -6 -435 2 -687 38 -79 12 -146 18 -149 15 -4
-3 5 -19 19 -34 27 -29 48 -64 48 -81 0 -25 -18 -7 -58 58 l-42 69 -98 22
c-251 58 -557 157 -765 250 -96 43 -111 47 -135 37 -55 -24 -149 -91 -205
-145 -50 -50 -62 -57 -96 -56 -21 1 -51 8 -67 16 -37 18 -35 51 7 94 30 31 52
42 212 110 37 16 66 33 64 38 -2 6 -50 36 -107 68 -76 42 -107 54 -117 47 -15
-13 -33 -3 -33 19 0 23 -94 84 -116 75 -11 -4 -15 -3 -10 5 3 6 -4 18 -16 27
-152 109 -163 115 -203 115 -37 1 -39 2 -21 15 11 8 18 16 15 18 -5 4 -187
151 -229 185 l-28 23 -61 -30 c-68 -35 -79 -38 -61 -17 6 8 33 23 58 32 26 10
48 19 50 20 7 4 -279 279 -293 282 -26 6 -28 -26 -4 -68 12 -22 26 -40 31 -40
4 0 8 -13 8 -29 0 -19 14 -47 38 -78 47 -59 65 -90 59 -106 -5 -14 -79 97
-138 207 -22 42 -45 76 -50 76 -5 0 -16 -11 -25 -25 -14 -22 -23 -25 -75 -25
-33 0 -59 3 -59 6 0 3 6 18 14 32 8 15 28 58 46 95 l32 68 -29 57 c-35 72
-195 295 -246 344 -22 20 -36 42 -32 48 4 6 0 22 -9 35 l-16 24 -49 -26 c-56
-28 -139 -35 -165 -13 -15 11 -13 15 17 36 18 12 53 27 76 34 36 9 46 9 60 -4
10 -9 25 -16 34 -16 14 0 11 12 -20 70 -36 67 -40 70 -75 70 -20 0 -64 -13
-100 -30 l-63 -30 -5 42 c-5 45 2 58 33 58 30 0 77 29 77 48 0 10 5 23 11 29
8 8 4 23 -11 54 -39 76 -72 100 -83 60 -5 -19 -8 -19 -61 -7 -31 8 -59 16 -62
19 -7 7 96 67 114 67 19 0 15 15 -47 175 -33 83 -63 164 -67 179 -8 32 -43 61
-146 116 -43 23 -78 45 -78 50 0 4 -21 20 -47 36 -27 15 -90 54 -141 87 -51
33 -95 57 -99 54 -8 -8 60 -263 108 -408 64 -191 112 -302 131 -305 28 -4 127
-84 104 -84 -10 0 -57 30 -84 54 -36 32 -28 2 39 -145 71 -156 126 -259 147
-276 24 -20 55 -15 92 12 45 33 78 33 90 -1 6 -14 10 -27 10 -29 0 -5 -92 -35
-110 -35 -9 0 -24 -6 -33 -12 -15 -12 -9 -25 61 -138 43 -69 111 -172 151
-229 l73 -103 49 4 c27 1 49 0 49 -4 0 -5 -15 -8 -34 -8 -19 0 -37 -4 -40 -8
-8 -13 147 -201 166 -202 10 0 15 -6 12 -13 -5 -15 193 -237 213 -237 7 0 13
-6 13 -13 0 -7 37 -46 82 -87 200 -183 244 -220 260 -216 10 2 19 -4 22 -18 4
-11 29 -38 57 -59 44 -34 56 -38 87 -33 35 6 36 6 14 -7 l-24 -14 39 -30 c104
-81 339 -228 530 -332 132 -71 163 -82 163 -58 0 14 31 47 43 47 13 0 7 -38
-8 -50 -8 -7 -15 -17 -15 -22 0 -25 441 -200 666 -263 465 -131 780 -175 1264
-175 304 0 500 15 750 56 288 48 629 143 930 261 155 61 466 214 623 308 149
89 318 203 330 222 4 7 13 13 19 13 30 0 395 309 552 468 l89 91 -17 26 c-10
15 -52 63 -93 106 -42 44 -71 79 -65 79 6 0 13 12 15 28 l4 27 2 -26 c1 -26 3
-27 79 -31 56 -3 94 -12 141 -33 l63 -29 29 35 c446 533 755 1143 929 1834 23
89 29 130 21 133 -16 5 -14 18 6 37 9 9 22 51 30 93 13 77 53 372 53 395 0 9
-11 12 -34 9 -33 -4 -35 -2 -46 37 -13 50 -4 97 16 80 8 -6 21 -9 29 -5 12 4
15 -3 15 -34 0 -44 15 -61 24 -27 11 41 7 197 -5 197 -8 0 -7 5 1 15 20 24 7
519 -19 715 -18 133 -24 158 -43 173 -24 20 -24 20 -54 -30 -10 -16 -11 -15
-11 9 0 18 6 29 18 33 22 7 23 12 4 45 -20 35 -18 69 4 106 18 30 19 36 4 98
-12 56 -18 66 -36 67 -17 1 -18 2 -4 6 9 2 17 8 17 11 0 16 -62 237 -71 255
-8 13 -14 15 -23 8 -16 -14 -26 -4 -26 26 0 14 6 23 15 23 19 0 20 -4 -11 82
-36 102 -55 140 -79 160 -16 14 -17 19 -7 26 11 8 7 24 -18 86 -18 42 -35 76
-39 76 -9 0 -171 -97 -185 -111 -20 -19 8 -29 47 -17 32 10 40 9 48 -3 15 -25
10 -32 -21 -25 -17 3 -42 1 -56 -4 -19 -7 -31 -7 -40 1 -9 7 -33 10 -63 6 -58
-7 -71 8 -44 49 l17 26 17 -23 17 -22 118 59 c65 32 120 65 122 72 2 8 -10 12
-43 12 -28 0 -44 4 -40 10 3 6 24 10 46 10 21 0 39 5 39 10 0 9 -77 169 -86
179 -2 2 -16 -1 -31 -8 l-28 -12 25 21 25 20 -44 82 c-129 245 -376 596 -564
803 -43 48 -44 49 -56 27z m303 -526 c-6 -16 -24 -23 -24 -8 0 10 22 33 27 28
2 -2 1 -11 -3 -20z m90 -162 c-13 -19 -14 -28 -5 -37 6 -6 11 -16 11 -21 0 -6
-7 -2 -15 8 -14 18 -15 18 -36 -5 l-21 -24 21 32 c12 17 21 34 21 38 0 7 30
34 38 35 1 0 -5 -11 -14 -26z m66 -214 c0 -5 -5 -10 -11 -10 -5 0 -7 5 -4 10
3 6 8 10 11 10 2 0 4 -4 4 -10z m63 -45 c19 0 22 -5 22 -40 0 -29 -4 -40 -15
-40 -10 0 -15 10 -15 30 0 23 -4 29 -17 27 -10 -2 -18 1 -18 5 0 4 -3 19 -6
33 -5 24 -5 25 11 5 9 -11 26 -20 38 -20z m-23 -106 c0 -16 -4 -29 -10 -29 -5
0 -7 7 -3 16 5 13 2 15 -15 9 -26 -8 -28 2 -6 26 21 24 34 15 34 -22z m80 -9
c0 -5 -5 -10 -11 -10 -5 0 -7 5 -4 10 3 6 8 10 11 10 2 0 4 -4 4 -10z m6 -64
c13 3 36 3 52 -2 24 -7 21 -9 -28 -15 -30 -4 -65 -10 -77 -14 -14 -4 -23 -3
-23 2 0 6 10 23 23 39 21 28 22 28 25 6 3 -18 8 -21 28 -16z m-141 -6 c-3 -5
3 -10 14 -10 12 0 21 -4 21 -10 0 -5 -16 -10 -35 -10 -40 0 -41 2 -19 24 17
18 28 21 19 6z m335 -94 c0 -3 -4 -8 -10 -11 -5 -3 -10 -1 -10 4 0 6 5 11 10
11 6 0 10 -2 10 -4z m-24 -117 c18 -70 31 -269 17 -269 -6 0 -16 37 -23 83
-17 116 -30 145 -72 150 l-33 4 36 1 c40 2 49 14 49 64 0 42 8 31 26 -33z
m-216 -158 c0 -11 -4 -23 -10 -26 -6 -4 -10 5 -10 19 0 14 5 26 10 26 6 0 10
-9 10 -19z m114 -196 c-4 -8 -8 -15 -10 -15 -2 0 -4 7 -4 15 0 8 4 15 10 15 5
0 7 -7 4 -15z m202 -92 c-2 -2 -14 1 -27 8 -21 11 -21 13 -6 24 9 7 17 18 18
26 0 8 5 -1 10 -20 6 -18 8 -35 5 -38z m-41 -56 c4 -24 5 -56 3 -73 l-4 -29
-17 39 c-24 55 -22 126 4 110 4 -2 11 -24 14 -47z m95 -202 c-7 -9 -15 -13
-18 -10 -3 2 1 11 8 20 7 9 15 13 18 10 3 -2 -1 -11 -8 -20z m55 -55 c0 -13
-6 -25 -12 -27 -9 -3 -13 6 -13 27 0 21 4 30 13 28 6 -3 12 -15 12 -28z m-105
-79 c12 -23 14 -91 2 -91 -15 0 -52 32 -52 45 0 20 22 65 31 65 5 0 13 -9 19
-19z m24 -175 c10 -30 16 -65 14 -78 -3 -21 -5 -21 -22 11 -11 21 -16 44 -12
62 3 16 1 31 -4 34 -12 8 -13 25 -1 25 4 0 16 -25 25 -54z m106 19 c-7 -9 -15
-13 -17 -11 -7 7 7 26 19 26 6 0 6 -6 -2 -15z m-146 -130 c-4 -8 -12 -15 -20
-15 -17 0 -18 17 -1 23 22 9 27 7 21 -8z m260 -107 c-3 -4 -12 -8 -20 -8 -12
0 -13 4 -3 21 9 17 13 19 19 8 5 -7 6 -17 4 -21z m-150 -38 c22 -12 53 -19 80
-18 54 1 88 -19 106 -61 11 -26 10 -36 -7 -68 -40 -77 -158 -129 -195 -85 -34
39 -48 124 -27 164 8 15 8 27 0 45 -10 22 -8 43 4 43 3 0 20 -9 39 -20z m-78
-77 c-10 -10 -19 5 -10 18 6 11 8 11 12 0 2 -7 1 -15 -2 -18z m134 -269 c0 -8
-4 -12 -10 -9 -5 3 -10 10 -10 16 0 5 5 9 10 9 6 0 10 -7 10 -16z m-68 -70
c-25 -18 -36 -5 -16 17 13 14 20 16 25 7 4 -7 0 -17 -9 -24z m-18 -58 c-11
-36 -46 -66 -76 -66 -33 0 -35 13 -8 57 16 27 25 32 55 31 31 -1 35 -4 29 -22z
m156 -126 c9 -16 7 -22 -7 -27 -10 -4 -23 -13 -29 -21 -8 -12 -10 -7 -6 19 4
28 16 48 29 49 1 0 7 -9 13 -20z m50 -289 c0 -12 -71 -54 -78 -46 -6 6 -7 5
38 33 40 25 40 25 40 13z m-170 -85 c0 -3 -4 -8 -10 -11 -5 -3 -10 -1 -10 4 0
6 5 11 10 11 6 0 10 -2 10 -4z m-85 -86 c4 -6 -12 -10 -42 -10 -35 0 -44 3
-33 10 20 13 67 13 75 0z m-115 -50 c0 -5 -5 -10 -11 -10 -5 0 -7 5 -4 10 3 6
8 10 11 10 2 0 4 -4 4 -10z m268 -100 c-13 -20 -38 -28 -38 -12 0 12 23 32 37
32 11 0 11 -4 1 -20z m-92 -409 c-8 -12 -92 -34 -108 -28 -18 7 50 36 85 37
16 0 26 -4 23 -9z m-649 -863 c-3 -7 -5 -2 -5 12 0 14 2 19 5 13 2 -7 2 -19 0
-25z m163 -176 c0 -5 -23 -19 -51 -33 -28 -13 -77 -43 -108 -67 -54 -43 -111
-77 -111 -68 0 2 16 14 35 26 39 24 45 40 15 40 -20 0 -26 16 -12 36 8 13 72
7 72 -7 0 -18 21 -8 29 13 10 28 131 82 131 60z m-7170 -121 c0 -5 -15 -11
-32 -14 -18 -3 -44 -8 -58 -12 -38 -12 -17 5 27 20 45 17 63 18 63 6z m6770
-5 c0 -2 -8 -10 -17 -17 -16 -13 -17 -12 -4 4 13 16 21 21 21 13z m114 -5 c3
-5 -6 -11 -21 -14 -26 -5 -26 -4 -8 9 22 17 22 17 29 5z m-77 -57 c-3 -3 -12
-4 -19 -1 -8 3 -5 6 6 6 11 1 17 -2 13 -5z m109 -38 c18 -14 18 -16 2 -43 -9
-15 -23 -53 -32 -83 -9 -30 -24 -66 -32 -80 -14 -23 -15 -19 -9 59 6 80 28
161 44 161 4 0 16 -6 27 -14z m-6850 -11 c-11 -8 -29 -15 -40 -15 -21 1 -21 1
-2 15 11 8 29 15 40 15 21 -1 21 -1 2 -15z m6619 -85 c-10 -11 -21 -17 -24
-14 -3 3 3 12 13 20 28 20 32 17 11 -6z m-55 -39 c0 -12 -21 -27 -50 -36 l-25
-7 24 26 c24 25 51 35 51 17z m177 -233 c-3 -8 -6 -5 -6 6 -1 11 2 17 5 13 3
-3 4 -12 1 -19z m-6727 -38 c0 -5 -4 -10 -10 -10 -5 0 -10 5 -10 10 0 6 5 10
10 10 6 0 10 -4 10 -10z m6275 -40 c-3 -5 -13 -10 -21 -10 -8 0 -12 5 -9 10 3
6 13 10 21 10 8 0 12 -4 9 -10z m18 -51 c44 -23 67 -52 67 -85 0 -26 -7 -36
-34 -53 -41 -26 -72 -27 -84 -3 -5 9 -12 52 -15 94 l-5 77 24 -10 c14 -5 35
-14 47 -20z m-5739 -160 c-46 -37 -74 -52 -81 -46 -7 7 88 77 105 77 8 0 -3
-14 -24 -31z m5456 11 c0 -5 -2 -10 -4 -10 -3 0 -8 5 -11 10 -3 6 -1 10 4 10
6 0 11 -4 11 -10z m360 -86 c0 -16 -26 -19 -35 -4 -3 6 -4 14 0 20 8 13 35 1
35 -16z m-5732 -129 c-3 -3 -23 -8 -44 -12 -27 -4 -36 -2 -29 5 6 6 24 12 40
14 32 4 42 1 33 -7z m5512 -51 c0 -2 -7 -4 -15 -4 -8 0 -15 4 -15 10 0 5 7 7
15 4 8 -4 15 -8 15 -10z m-5134 -61 c-10 -10 -19 5 -10 18 6 11 8 11 12 0 2
-7 1 -15 -2 -18z m-336 -28 c11 -13 8 -15 -21 -15 -19 0 -52 3 -74 7 l-40 8
40 6 c67 10 82 10 95 -6z m293 -12 c-16 -13 -15 -14 14 -9 22 4 35 0 45 -11
12 -15 9 -16 -27 -10 -22 4 -75 7 -117 7 -45 0 -78 4 -78 10 0 6 17 10 38 10
20 1 47 6 60 14 13 7 37 10 53 8 28 -4 28 -5 12 -19z m147 -13 c0 -15 -7 -20
-27 -20 l-28 1 24 19 c29 25 31 25 31 0z m4600 -60 c0 -5 -9 -10 -21 -10 -11
0 -17 5 -14 10 3 6 13 10 21 10 8 0 14 -4 14 -10z m-95 -10 c3 -5 1 -10 -4
-10 -6 0 -11 5 -11 10 0 6 2 10 4 10 3 0 8 -4 11 -10z m195 -39 c0 -12 -20
-25 -27 -18 -7 7 6 27 18 27 5 0 9 -4 9 -9z m-150 -65 c0 -2 -9 -6 -20 -9 -11
-3 -20 -1 -20 4 0 5 9 9 20 9 11 0 20 -2 20 -4z m20 -89 c0 -2 -10 -12 -21
-23 -22 -19 -22 -19 -10 4 10 18 31 31 31 19z m-490 -49 c-75 -33 -171 -65
-247 -82 -96 -21 -102 -20 -59 9 20 14 45 25 55 25 10 0 30 9 44 20 16 12 41
20 69 21 23 0 66 7 93 14 75 19 96 16 45 -7z m242 -20 c-34 -49 -72 -86 -72
-70 0 15 78 112 91 112 5 0 -3 -19 -19 -42z m-4032 8 c0 -2 -8 -10 -17 -17
-16 -13 -17 -12 -4 4 13 16 21 21 21 13z m80 -36 c0 -5 -4 -10 -10 -10 -5 0
-10 5 -10 10 0 6 5 10 10 10 6 0 10 -4 10 -10z m3086 -66 c2 -5 -13 -19 -33
-32 -28 -18 -34 -19 -29 -7 3 9 6 23 6 30 0 21 51 30 56 9z m234 -14 c-8 -6
-25 -10 -37 -10 -12 0 -59 -13 -104 -30 -46 -16 -84 -28 -86 -26 -2 2 10 9 26
16 16 6 37 20 47 31 11 12 32 19 58 20 23 1 55 4 71 8 35 8 46 4 25 -9z m-355
-85 c-35 -28 -27 -31 40 -10 81 24 62 9 -31 -24 -48 -18 -94 -30 -103 -28 -10
2 -6 6 12 11 15 5 27 12 27 17 0 8 69 59 80 59 3 0 -8 -11 -25 -25z m-2515
-165 c-8 -6 -24 -15 -35 -21 -16 -8 -15 -6 4 10 13 12 28 21 35 21 6 0 4 -5
-4 -10z m770 -40 c0 -5 -5 -10 -11 -10 -5 0 -7 5 -4 10 3 6 8 10 11 10 2 0 4
-4 4 -10z"/>
<path d="M1532 7878 c-38 -46 -106 -132 -151 -193 l-82 -109 71 -69 c45 -44
76 -67 85 -63 9 3 15 -1 15 -11 0 -17 27 -42 46 -43 6 0 21 23 33 51 12 27 28
52 36 55 8 3 20 21 27 40 11 31 34 51 46 39 7 -7 -11 -40 -68 -120 -27 -38
-50 -75 -50 -81 0 -7 15 -23 33 -37 l34 -26 61 85 c34 46 59 90 57 96 -3 7 8
21 25 30 33 19 41 43 11 33 -11 -3 -24 1 -32 11 -12 15 -10 16 27 10 40 -7 41
-7 97 59 31 37 57 70 57 75 0 9 -45 40 -60 40 -5 0 -10 -8 -10 -18 0 -10 -6
-27 -14 -37 -14 -19 -15 -19 -27 10 -17 40 -16 40 -34 25 -21 -17 -19 -3 4 27
23 28 18 53 -10 53 -10 0 -19 4 -19 10 0 5 -25 28 -55 50 -41 30 -55 47 -55
65 0 44 -27 28 -98 -57z m154 -355 c-10 -10 -19 5 -10 18 6 11 8 11 12 0 2 -7
1 -15 -2 -18z"/>
<path d="M2630 7605 c-19 -14 -79 -69 -133 -123 -72 -71 -95 -98 -82 -100 9
-2 22 1 28 7 22 22 30 10 9 -12 -26 -27 -27 -34 -8 -52 8 -8 42 -91 77 -184
45 -123 68 -172 81 -177 11 -3 40 5 68 20 66 35 63 20 -5 -27 -30 -21 -55 -41
-55 -45 0 -4 20 -61 44 -127 36 -98 48 -120 63 -117 10 1 33 5 52 9 44 8 34
-13 -15 -33 -19 -8 -34 -18 -34 -22 0 -5 18 -60 41 -123 31 -86 40 -125 37
-162 -2 -26 1 -47 5 -47 12 0 297 271 297 281 0 5 -9 9 -20 9 -12 0 -32 11
-46 25 -14 14 -33 25 -42 25 -14 0 -14 2 -3 9 11 7 9 22 -15 87 l-28 77 122
119 c68 65 129 118 137 118 24 0 179 -61 198 -78 15 -13 17 -25 13 -54 -4 -21
-4 -38 0 -38 8 0 384 362 384 369 0 3 -26 6 -57 6 -50 0 -110 19 -416 133
l-358 133 -35 -30 c-41 -37 -57 -39 -76 -9 l-15 22 -51 -44 c-29 -24 -52 -51
-52 -62 0 -10 -6 -18 -14 -18 -8 0 -17 -7 -20 -16 -4 -10 -15 -14 -33 -12 -28
3 -45 28 -19 28 9 0 26 12 39 26 12 14 45 42 72 62 60 42 75 60 75 84 0 31
-28 33 -51 4 -27 -34 -40 -33 -29 3 9 32 8 34 -47 64 -40 22 -43 22 -83 -8z
m203 -206 c-20 -20 -38 -30 -53 -27 -20 3 -16 7 26 35 58 37 70 34 27 -8z
m-273 -58 c0 -6 -4 -13 -10 -16 -5 -3 -10 1 -10 9 0 9 5 16 10 16 6 0 10 -4
10 -9z m339 -172 l104 -43 -68 -63 c-37 -35 -69 -62 -71 -60 -13 13 -91 218
-81 214 6 -3 59 -24 116 -48z m381 -3 c0 -3 -4 -8 -10 -11 -5 -3 -10 -1 -10 4
0 6 5 11 10 11 6 0 10 -2 10 -4z m-94 -101 c-27 -35 -46 -45 -46 -24 0 14 59
73 67 65 3 -3 -6 -21 -21 -41z m-526 -65 c0 -5 -7 -7 -15 -4 -8 4 -15 8 -15
10 0 2 7 4 15 4 8 0 15 -4 15 -10z m225 -230 c-3 -5 -15 -10 -26 -10 -10 0
-19 5 -19 10 0 6 12 10 26 10 14 0 23 -4 19 -10z"/>
<path d="M7572 7533 c3 -21 0 -51 -6 -66 -12 -29 -657 -593 -695 -608 -16 -6
-35 -6 -58 2 -18 6 -38 9 -43 7 -10 -3 615 -734 644 -752 10 -7 36 10 100 65
47 41 86 76 86 79 0 3 -28 19 -63 35 -51 25 -80 50 -165 145 -132 147 -156
182 -148 214 4 16 75 85 199 191 126 109 195 175 200 193 4 15 16 58 25 96
l18 68 28 -41 c16 -23 33 -41 39 -41 5 0 25 14 45 31 29 26 41 30 71 26 20 -3
44 -8 54 -12 9 -4 17 -3 17 2 0 11 -323 387 -341 399 -9 5 -11 -4 -7 -33z m68
-233 c0 -16 -2 -30 -5 -30 -9 0 -26 41 -20 50 12 20 25 9 25 -20z"/>
<path d="M1220 7454 c-37 -57 -48 -82 -44 -100 5 -20 2 -24 -14 -24 -25 0
-107 -132 -104 -167 1 -13 -3 -23 -8 -23 -17 0 -70 -93 -70 -123 0 -16 -7 -30
-16 -34 -14 -5 -74 -121 -74 -143 0 -4 14 -13 30 -20 47 -20 36 -45 -20 -45
l-44 0 -29 -70 c-74 -182 -144 -400 -197 -610 -60 -239 -78 -335 -63 -335 5 0
18 -7 29 -16 18 -15 18 -15 -9 -11 -15 2 -30 1 -33 -4 -11 -18 -36 -241 -28
-248 5 -4 45 -17 89 -29 161 -42 185 -63 35 -31 -145 32 -134 35 -141 -46 -6
-67 -12 -595 -6 -595 1 0 38 7 82 15 96 17 189 20 180 5 -4 -6 -15 -8 -26 -5
-10 4 -69 -2 -130 -11 l-111 -18 6 -76 c4 -41 11 -123 18 -182 10 -106 11
-108 42 -128 20 -12 49 -19 77 -19 24 1 64 -8 89 -19 48 -22 206 -50 217 -39
3 4 -1 60 -10 124 -9 65 -22 174 -28 243 -15 167 -6 679 15 820 21 146 22 140
-18 140 -19 0 -38 5 -42 11 -4 7 7 10 37 7 42 -3 43 -2 50 32 5 25 3 40 -7 51
-18 20 -18 27 3 25 13 -1 21 21 38 105 13 58 32 137 43 177 23 81 32 68 -82
108 -38 13 -89 24 -113 24 -30 0 -45 5 -50 15 -3 9 -3 19 1 22 8 8 176 -37
201 -54 11 -7 31 -13 45 -13 25 0 28 7 54 93 15 50 54 160 87 242 32 83 54
152 49 153 -16 6 -12 22 5 22 10 0 34 39 66 108 28 59 52 112 53 117 1 6 13
28 27 50 14 22 47 78 74 124 26 47 68 116 92 155 42 65 44 70 27 83 -30 22
-63 16 -80 -14 -70 -126 -79 -138 -82 -115 -2 14 14 52 42 98 25 42 46 80 46
83 0 13 -56 61 -71 61 -7 0 -21 15 -29 32 -13 28 -91 95 -113 97 -4 1 -30 -33
-57 -75z m-125 -684 c8 -13 -35 -13 -55 0 -11 7 -7 10 17 10 17 0 35 -4 38
-10z m155 -10 c0 -11 -14 -11 -50 0 -22 7 -21 8 13 9 20 1 37 -3 37 -9z m-480
-778 c0 -28 -22 -49 -56 -55 -27 -5 -31 -3 -27 12 3 10 0 22 -6 25 -22 14 -10
25 32 29 23 2 45 4 50 5 4 1 7 -6 7 -16z m75 -1072 c3 -5 1 -10 -4 -10 -6 0
-11 5 -11 10 0 6 2 10 4 10 3 0 8 -4 11 -10z m-45 -14 c0 -2 -7 -6 -15 -10 -8
-3 -15 -1 -15 4 0 6 7 10 15 10 8 0 15 -2 15 -4z m30 -436 c0 -5 -7 -10 -16
-10 -8 0 -12 5 -9 10 3 6 10 10 16 10 5 0 9 -4 9 -10z"/>
<path d="M7644 7075 c-4 -14 -3 -29 0 -32 10 -10 49 34 42 46 -13 20 -35 12
-42 -14z"/>
<path d="M4780 6869 c-118 -15 -130 -18 -130 -39 0 -11 -4 -20 -10 -20 -5 0
-10 7 -10 16 0 14 -7 15 -42 10 -23 -4 -44 -9 -46 -11 -2 -2 8 -20 23 -39 l27
-36 -30 0 c-21 0 -38 9 -56 31 l-26 31 -50 -17 c-42 -14 -50 -21 -50 -41 0
-28 -15 -32 -29 -7 -9 16 -13 16 -68 -6 -87 -35 -254 -124 -336 -180 -98 -66
-247 -189 -247 -204 0 -7 30 -36 68 -64 37 -29 84 -68 105 -88 21 -19 41 -35
44 -35 3 0 41 16 85 36 44 20 82 33 85 30 8 -8 7 -9 -64 -45 -35 -17 -63 -37
-63 -44 0 -15 41 -56 82 -81 22 -14 31 -15 49 -5 24 12 83 21 133 20 26 0 45
-14 46 -32 0 -9 -39 -19 -76 -19 -16 0 -38 -6 -48 -13 -24 -18 -12 -41 49 -95
42 -36 54 -60 39 -75 -3 -3 -27 8 -52 24 -25 16 -56 29 -69 29 -17 0 -23 6
-23 21 0 12 -8 23 -20 26 -11 3 -20 12 -20 19 0 17 -12 18 -28 2 -18 -18 -27
0 -15 32 9 25 8 31 -16 53 -14 14 -46 35 -71 47 -42 21 -45 22 -55 5 -5 -10
-21 -32 -35 -49 -14 -17 -32 -43 -39 -58 -15 -30 -48 -40 -37 -12 4 11 2 15
-8 11 -10 -4 -12 0 -9 14 3 10 -1 27 -8 36 -13 15 -11 16 19 10 28 -6 37 -2
58 21 32 35 56 80 49 91 -3 5 -14 7 -25 4 -15 -4 -20 0 -20 16 0 16 -11 27
-41 40 -22 10 -51 35 -65 55 -14 20 -31 36 -39 36 -31 0 -194 -204 -289 -363
-61 -102 -156 -308 -156 -340 0 -8 13 -17 30 -20 17 -4 30 -10 30 -14 0 -5
-21 -19 -48 -33 -45 -24 -48 -28 -65 -95 -38 -150 -50 -258 -51 -445 -1 -102
3 -215 7 -252 8 -63 10 -68 33 -68 13 0 38 -13 55 -30 39 -36 82 -45 149 -31
48 10 100 6 100 -8 0 -3 -13 -20 -29 -37 -23 -26 -33 -30 -65 -26 -36 4 -37 3
-27 -16 14 -27 14 -32 -2 -32 -8 0 -22 9 -32 20 -26 29 -42 25 -56 -14 -11
-31 -16 -34 -41 -29 -36 7 -36 2 3 -111 69 -202 241 -513 278 -501 12 4 17 -2
19 -22 1 -15 6 -31 10 -35 11 -11 233 45 266 68 14 9 26 26 26 37 0 11 9 30
19 41 10 12 29 56 41 99 20 75 21 80 4 98 -15 16 -15 19 -2 19 9 0 20 6 26 13
6 6 35 107 66 222 31 116 62 235 71 265 l14 55 -280 280 c-266 265 -281 278
-274 242 3 -21 8 -46 11 -55 2 -9 -2 -3 -11 13 -8 17 -17 46 -21 66 -4 27 -22
52 -65 95 l-59 58 173 47 c94 26 300 82 457 124 157 41 294 79 306 84 16 7 27
34 52 132 18 68 32 133 32 144 0 12 4 25 9 30 5 6 16 36 26 69 16 56 14 93 -4
82 -4 -3 -16 3 -26 14 -20 22 -40 26 -50 10 -10 -16 15 -40 41 -40 15 0 24 -6
24 -15 0 -13 -7 -15 -33 -10 -24 5 -39 2 -49 -9 -14 -13 -18 -12 -44 15 l-28
30 44 39 c50 43 62 47 80 25 16 -19 26 -12 33 25 8 38 0 60 -23 60 -10 0 -20
7 -24 15 -3 8 -17 20 -31 25 -26 10 -32 34 -15 60 7 12 12 12 22 2 6 -6 19
-12 27 -12 8 0 27 -15 42 -32 24 -29 29 -32 55 -23 27 10 31 20 71 160 23 83
42 152 42 155 1 2 26 -20 56 -50 l55 -55 46 25 c26 13 60 41 77 62 34 42 71
56 42 16 -8 -13 -20 -40 -26 -61 -12 -44 -54 -72 -69 -46 -8 12 -12 11 -27 -4
-17 -17 -5 -30 262 -297 154 -154 284 -280 290 -280 5 0 69 16 142 37 84 23
133 41 133 49 0 22 -78 38 -120 25 -26 -8 -46 -8 -71 1 -19 6 -40 12 -46 14
-29 8 -11 25 23 22 41 -3 61 20 25 29 -27 7 -27 23 -1 23 11 0 20 5 20 10 0 6
9 10 20 10 18 0 20 -4 15 -34 -4 -18 -2 -36 3 -40 5 -3 43 -10 83 -16 40 -6
84 -17 96 -25 21 -14 44 -9 290 56 148 39 281 75 297 80 16 5 31 8 33 6 2 -2
-10 -54 -26 -115 -16 -61 -27 -113 -24 -116 3 -3 1 -11 -5 -18 -9 -12 -38
-115 -147 -527 l-46 -174 63 -65 c99 -101 432 -434 469 -468 19 -18 63 -62 99
-100 l65 -68 -75 -22 c-41 -12 -255 -70 -474 -128 -219 -58 -401 -108 -403
-110 -4 -4 -54 -188 -154 -571 -62 -237 -99 -369 -105 -374 -3 -3 -51 41 -108
98 -83 83 -108 102 -124 97 -11 -4 -32 -4 -47 0 l-26 6 22 24 23 25 -74 74
c-41 41 -80 75 -87 75 -7 0 -13 6 -13 13 -1 6 -58 72 -129 146 l-128 134 -219
-57 c-326 -86 -574 -155 -585 -162 -6 -3 -8 -12 -5 -19 3 -8 -7 -15 -29 -19
-43 -8 -59 -29 -52 -65 6 -28 4 -30 -41 -41 -36 -8 -56 -8 -77 0 -29 11 -29
12 -11 26 11 8 25 14 32 14 17 0 64 40 64 55 0 7 -17 16 -37 21 -30 6 -33 9
-16 12 22 3 43 45 30 58 -6 7 -66 -23 -85 -42 -7 -8 -17 -14 -22 -14 -14 0
-90 -72 -90 -85 0 -21 180 -186 278 -255 105 -74 247 -159 277 -164 11 -3 43
-8 70 -13 37 -6 50 -12 50 -25 0 -9 3 -19 6 -22 9 -10 144 -55 148 -50 2 2 -4
13 -14 24 -28 31 -12 24 34 -14 41 -35 82 -48 206 -67 33 -5 85 -13 115 -18
42 -7 59 -5 71 5 18 16 33 19 24 5 -3 -5 -1 -13 5 -16 14 -9 269 -8 315 1 33
6 35 9 35 45 0 21 5 41 10 44 18 11 40 -15 40 -46 0 -36 1 -36 148 -3 389 87
741 298 1002 600 79 91 170 214 170 228 0 4 -8 6 -17 6 -14 0 -13 4 6 24 30
32 21 48 -19 35 -16 -6 -39 -9 -52 -7 l-23 4 26 13 c14 7 52 18 84 24 69 14
75 21 150 199 78 183 129 415 141 638 7 115 -2 270 -14 270 -4 0 -20 -25 -36
-56 -41 -78 -170 -165 -150 -101 27 89 65 143 135 194 47 34 49 37 43 72 -4
20 -10 37 -15 39 -4 2 -6 9 -3 17 3 7 -4 52 -15 100 -88 368 -305 722 -596
973 -268 230 -579 378 -919 437 -117 20 -152 19 -186 -5 -30 -21 -100 -53
-100 -46 0 2 20 16 45 30 52 31 57 46 15 46 -17 0 -30 -5 -30 -12 0 -9 -3 -9
-12 0 -14 14 -174 14 -278 1z m-282 -157 c2 -7 -3 -12 -12 -12 -9 0 -16 7 -16
16 0 17 22 14 28 -4z m-8 -67 c-18 -19 -36 -32 -39 -30 -6 7 50 65 63 65 5 0
-5 -16 -24 -35z m680 5 c0 -5 -5 -10 -11 -10 -5 0 -7 5 -4 10 3 6 8 10 11 10
2 0 4 -4 4 -10z m-994 -11 c3 -6 -3 -20 -14 -32 -19 -19 -22 -19 -28 -4 -11
29 26 61 42 36z m184 -59 c0 -6 -12 -15 -26 -20 -36 -14 -39 -13 -19 10 19 21
45 27 45 10z m856 -75 c25 -38 14 -108 -21 -145 -34 -36 -181 -114 -200 -106
-19 7 -31 128 -16 165 16 38 71 90 107 101 16 4 48 9 71 9 35 1 46 -4 59 -24z
m-1315 -48 c-8 -8 -11 -7 -11 4 0 20 13 34 18 19 3 -7 -1 -17 -7 -23z m49 13
c0 -5 -4 -10 -9 -10 -6 0 -13 5 -16 10 -3 6 1 10 9 10 9 0 16 -4 16 -10z
m1608 -19 c35 -30 26 -40 -23 -23 -37 12 -43 17 -34 28 15 19 29 17 57 -5z
m-1578 -16 c0 -8 -6 -15 -14 -15 -20 0 -29 17 -14 23 22 9 28 7 28 -8z m427
-11 c-3 -3 -12 -4 -19 -1 -8 3 -5 6 6 6 11 1 17 -2 13 -5z m1053 -24 c0 -5 -4
-10 -10 -10 -5 0 -10 5 -10 10 0 6 5 10 10 10 6 0 10 -4 10 -10z m-1680 -34
c0 -3 -4 -8 -10 -11 -5 -3 -10 -1 -10 4 0 6 5 11 10 11 6 0 10 -2 10 -4z
m2426 -33 c-7 -7 -26 7 -26 19 0 6 6 6 15 -2 9 -7 13 -15 11 -17z m-2206 -33
c0 -5 -5 -10 -11 -10 -5 0 -7 5 -4 10 3 6 8 10 11 10 2 0 4 -4 4 -10z m152
-42 c-7 -7 -12 -8 -12 -2 0 14 12 26 19 19 2 -3 -1 -11 -7 -17z m-512 -138 c0
-5 -4 -10 -10 -10 -5 0 -10 5 -10 10 0 6 5 10 10 10 6 0 10 -4 10 -10z m45
-180 c-10 -11 -23 -20 -28 -20 -6 0 -2 9 8 20 10 11 23 20 28 20 6 0 2 -9 -8
-20z m2720 0 c4 -6 -10 -10 -34 -10 -23 0 -41 5 -41 10 0 6 15 10 34 10 19 0
38 -4 41 -10z m-2465 -40 c0 -5 -5 -10 -11 -10 -5 0 -7 5 -4 10 3 6 8 10 11
10 2 0 4 -4 4 -10z m-350 -65 c-7 -8 -17 -15 -23 -15 -5 0 -2 9 8 20 21 23 35
19 15 -5z m2915 6 c40 -15 51 -24 53 -44 3 -21 -5 -30 -40 -51 -58 -34 -120
-47 -150 -32 -55 29 4 141 77 145 6 1 33 -8 60 -18z m75 -319 c0 -15 -24 -32
-44 -32 -20 1 -20 1 3 20 24 21 41 26 41 12z m-70 -142 c0 -5 -4 -10 -10 -10
-5 0 -10 5 -10 10 0 6 5 10 10 10 6 0 10 -4 10 -10z m137 -26 c-3 -3 -12 -4
-19 -1 -8 3 -5 6 6 6 11 1 17 -2 13 -5z m-228 -275 c-23 -14 -35 22 -13 38 17
13 19 12 22 -8 2 -12 -2 -25 -9 -30z m-19 -118 c0 -5 -7 -12 -16 -15 -14 -5
-15 -4 -4 9 14 17 20 19 20 6z m211 -34 c-6 -8 -9 -16 -7 -18 2 -2 -5 -4 -17
-5 -12 -1 -37 -5 -56 -9 -27 -6 -33 -5 -29 6 7 20 48 39 87 39 27 0 31 -3 22
-13z m-3001 -43 c0 -13 -4 -24 -10 -24 -5 0 -10 14 -10 31 0 17 4 28 10 24 6
-3 10 -17 10 -31z m-86 -229 c3 -8 1 -15 -4 -15 -6 0 -10 7 -10 15 0 8 2 15 4
15 2 0 6 -7 10 -15z m163 -17 c-3 -8 -6 -5 -6 6 -1 11 2 17 5 13 3 -3 4 -12 1
-19z m-177 -128 c8 -5 12 -11 9 -14 -3 -3 -14 1 -25 9 -21 16 -8 20 16 5z
m389 -187 c-7 -10 -24 -31 -36 -46 -13 -16 -23 -37 -23 -47 0 -27 -36 -45 -44
-23 -6 15 8 32 25 33 4 0 21 23 39 50 18 28 37 50 42 50 6 0 4 -8 -3 -17z
m421 -568 c0 -25 -14 -34 -24 -16 -8 12 3 41 15 41 5 0 9 -11 9 -25z m-288
-157 c-7 -7 -12 -8 -12 -2 0 6 3 14 7 17 3 4 9 5 12 2 2 -3 -1 -11 -7 -17z
m-78 -5 c6 3 19 -8 28 -24 18 -31 8 -38 -19 -13 -10 8 -29 24 -43 35 -24 19
-24 20 -2 9 13 -6 29 -9 36 -7z m811 -2 c-7 -12 -64 -25 -72 -17 -7 7 35 24
60 25 10 1 16 -3 12 -8z m-668 -117 c17 -13 38 -24 47 -24 8 0 18 -4 21 -10 3
-5 0 -10 -7 -10 -17 0 -103 53 -113 71 -10 15 5 7 52 -27z m948 16 c-31 -20
-83 -36 -91 -27 -5 5 92 46 111 46 6 1 -3 -8 -20 -19z m-772 -143 c16 -10 26
-21 24 -23 -7 -7 -77 37 -77 48 0 10 9 6 53 -25z m157 23 c0 -5 -5 -10 -11
-10 -5 0 -7 5 -4 10 3 6 8 10 11 10 2 0 4 -4 4 -10z m773 -125 c-3 -8 -9 -15
-14 -15 -10 0 -12 24 -3 33 11 11 24 -3 17 -18z m197 -65 c0 -5 -4 -10 -9 -10
-6 0 -13 5 -16 10 -3 6 1 10 9 10 9 0 16 -4 16 -10z"/>
<path d="M1666 6503 c-2 -10 -28 -114 -57 -232 -52 -214 -52 -214 -31 -230 52
-41 530 -456 528 -458 -3 -3 -200 -59 -486 -138 -113 -31 -210 -62 -216 -68
-12 -12 -114 -420 -114 -453 0 -14 8 -10 35 16 26 25 43 34 68 33 17 -1 129
-25 247 -53 118 -28 244 -56 280 -61 35 -5 67 -13 70 -18 5 -9 182 -52 189
-46 13 14 -15 33 -65 44 -33 7 -66 15 -75 17 -29 8 -10 38 34 57 52 21 61 21
53 2 -15 -40 1 -45 130 -45 122 0 125 1 134 24 25 65 -2 89 -101 90 -37 1 -56
5 -56 14 0 17 52 15 116 -4 30 -8 57 -12 61 -7 8 9 30 94 30 118 0 13 -8 10
-35 -14 -23 -20 -46 -31 -65 -31 -31 0 -494 109 -488 115 2 2 145 40 317 84
173 44 318 84 323 89 9 9 57 184 58 208 0 6 -112 100 -250 209 -137 109 -249
200 -247 201 8 8 473 -109 489 -123 10 -9 23 -31 30 -49 7 -19 15 -34 19 -34
4 0 32 102 62 228 65 265 70 292 64 292 -3 0 -19 -13 -35 -30 -22 -22 -40 -30
-65 -30 -31 0 -172 32 -702 161 -180 44 -209 59 -220 110 -7 32 -21 38 -29 12z
m-171 -1344 c12 -19 -3 -22 -27 -5 l-22 16 21 0 c12 0 25 -5 28 -11z m140 -60
c11 -10 40 -27 65 -38 25 -11 37 -20 27 -20 -10 -1 -40 11 -68 25 -28 14 -70
29 -93 33 -39 8 -40 9 -16 18 30 12 58 6 85 -18z m540 -70 c14 -14 -25 -10
-65 7 l-35 14 45 -6 c25 -3 49 -10 55 -15z m-245 -18 c0 -10 -42 -23 -49 -15
-7 6 20 24 37 24 6 0 12 -4 12 -9z"/>
<path d="M4420 6200 c0 -11 5 -20 10 -20 6 0 10 9 10 20 0 11 -4 20 -10 20 -5
0 -10 -9 -10 -20z"/>
<path d="M5565 6040 c-3 -5 -1 -10 4 -10 6 0 11 5 11 10 0 6 -2 10 -4 10 -3 0
-8 -4 -11 -10z"/>
<path d="M8191 5860 c-58 -49 -110 -86 -115 -83 -6 4 -57 35 -112 70 -100 62
-131 75 -121 51 3 -7 26 -66 52 -131 l47 -117 -28 -23 c-68 -53 -179 -150
-183 -159 -3 -8 121 -5 267 6 8 1 33 -48 63 -124 28 -69 52 -127 55 -129 9
-10 18 15 49 136 l32 128 54 6 c30 4 94 10 142 14 68 5 86 10 78 19 -6 7 -60
43 -120 79 l-109 67 34 128 c35 133 39 152 27 152 -5 -1 -55 -41 -112 -90z"/>
<path d="M5193 5777 c-39 -29 -100 -69 -133 -90 -52 -32 -61 -42 -56 -60 3
-12 9 -52 12 -88 l7 -67 -54 -7 c-30 -4 -91 -18 -137 -31 -45 -13 -86 -24 -91
-24 -5 0 -24 36 -42 80 l-33 80 -130 0 c-72 0 -148 3 -169 7 l-38 6 3 -54 3
-54 68 -3 c37 -2 67 1 67 5 0 4 9 19 18 31 18 23 20 23 81 11 69 -13 81 -27
57 -64 -13 -20 -15 -33 -7 -59 l9 -34 -72 -35 c-177 -88 -289 -250 -271 -393
16 -134 146 -234 358 -279 24 -5 27 -10 27 -44 0 -84 -57 -217 -119 -275 -17
-17 -31 -36 -31 -43 0 -18 64 -17 80 2 7 8 28 15 47 15 31 0 36 4 53 45 26 62
47 146 55 226 l7 65 101 17 c56 9 112 19 125 23 21 6 22 3 22 -44 0 -91 20
-251 40 -315 46 -146 150 -214 195 -127 48 93 9 280 -95 453 -43 71 -44 92 -2
100 15 3 55 24 89 46 l62 40 39 -67 c50 -84 147 -190 210 -231 123 -79 266
-93 371 -36 97 53 145 133 146 241 0 60 -4 76 -27 111 -15 23 -36 44 -48 48
-11 3 -20 13 -20 20 0 8 -19 24 -42 36 -33 17 -55 20 -112 17 -85 -4 -129 -29
-157 -92 -46 -101 -8 -184 89 -194 56 -5 59 -1 37 38 -21 36 -18 64 8 88 30
29 49 28 81 -5 53 -53 47 -123 -16 -177 -46 -40 -89 -52 -151 -42 -99 16 -202
96 -288 224 l-50 76 23 18 c13 10 32 16 43 13 78 -22 134 -17 174 14 l25 19
-46 45 c-74 71 -81 139 -23 217 14 19 22 36 18 37 -16 6 -297 -84 -301 -95 -2
-7 3 -12 10 -12 19 0 64 -49 77 -83 11 -29 -5 -87 -28 -101 -12 -8 -95 154
-133 257 -20 54 -23 58 -47 52 -14 -4 -30 -10 -35 -15 -11 -11 18 -94 86 -245
l49 -110 -23 -19 c-13 -10 -49 -31 -80 -47 l-58 -29 0 220 c0 235 -1 239 -47
201 -21 -18 -23 -28 -24 -133 -1 -62 -4 -138 -8 -168 l-6 -55 -45 75 c-53 91
-190 360 -190 376 0 7 17 19 38 27 54 21 189 50 202 42 5 -3 10 -26 10 -51 0
-55 16 -57 59 -9 32 37 40 65 19 65 -30 0 33 42 71 47 37 5 41 4 41 -16 0 -17
11 -27 48 -42 26 -11 73 -32 104 -46 32 -15 61 -24 64 -20 3 3 -18 55 -47 116
-38 82 -57 111 -71 111 -11 0 -18 -7 -18 -19 0 -10 -8 -29 -18 -41 -16 -20
-23 -21 -89 -15 -79 8 -83 12 -83 87 0 37 3 40 105 108 93 62 105 74 99 93
-16 52 -24 67 -36 66 -7 0 -45 -24 -85 -52z m-536 -613 c7 -43 15 -151 19
-238 l7 -159 -33 7 c-53 10 -118 54 -148 98 -23 36 -27 52 -27 117 0 61 5 86
25 125 26 51 115 139 134 133 6 -2 16 -39 23 -83z m175 -129 c45 -82 96 -174
115 -203 l33 -52 -27 -12 c-16 -6 -63 -11 -107 -12 l-78 -1 -4 55 c-10 138
-25 319 -29 360 -7 57 -6 55 97 -135z m343 -652 c25 -101 5 -139 -30 -57 -18
43 -45 173 -45 211 1 25 4 21 29 -27 16 -30 36 -87 46 -127z"/>
<path d="M2230 4835 c0 -16 58 -35 108 -35 17 0 32 4 32 9 0 5 3 16 6 25 5 14
-5 16 -70 16 -60 0 -76 -3 -76 -15z"/>
<path d="M2292 4748 c8 -13 18 -35 22 -50 8 -34 22 -36 30 -5 10 40 6 54 -19
65 -39 18 -49 15 -33 -10z"/>
<path d="M7460 4673 c0 -10 -11 -53 -25 -96 -31 -97 -34 -212 -6 -272 47 -103
146 -165 264 -165 116 0 179 41 244 160 50 91 99 140 139 140 141 0 113 -248
-35 -315 -66 -29 -60 -33 84 -55 39 -6 80 -13 93 -16 15 -3 24 1 29 13 3 10
19 45 34 78 100 208 30 430 -154 491 -147 49 -259 -11 -347 -187 -48 -94 -102
-126 -164 -98 -27 13 -56 64 -56 99 0 52 26 107 73 154 26 26 46 50 44 52 -5
5 -174 34 -199 34 -11 0 -18 -7 -18 -17z"/>
<path d="M3146 4651 c-9 -14 5 -69 19 -81 16 -13 62 -3 69 15 7 20 -78 83 -88
66z"/>
<path d="M4287 4599 c-128 -30 -207 -127 -207 -254 0 -66 21 -121 64 -172 15
-18 34 -33 42 -33 24 0 104 44 104 57 0 16 22 17 38 1 8 -8 15 -8 27 2 20 17
19 30 -2 30 -36 0 -84 40 -105 87 -17 39 -19 51 -9 84 7 22 24 47 42 60 26 18
34 19 59 9 41 -17 48 -46 18 -77 l-23 -25 24 -19 c28 -23 50 -24 95 -5 54 22
79 63 73 118 -6 68 -44 113 -109 133 -57 17 -75 17 -131 4z"/>
<path d="M554 4274 c11 -86 37 -220 44 -230 15 -22 161 -120 224 -151 37 -18
85 -48 106 -68 22 -19 44 -35 49 -35 5 0 31 -14 57 -31 27 -16 51 -28 53 -25
3 3 -6 46 -20 96 -22 74 -35 100 -76 150 -64 77 -77 100 -56 100 8 0 15 -6 15
-13 0 -17 56 -84 64 -76 4 3 -5 53 -19 110 -14 57 -25 114 -25 125 0 12 -6 26
-12 31 -11 9 -144 33 -178 33 -19 0 -10 -21 42 -92 61 -87 39 -72 -43 28 -58
71 -59 72 -116 78 -32 4 -71 9 -87 13 l-29 5 7 -48z"/>
<path d="M2028 4210 l-107 -90 -113 70 c-62 38 -118 70 -125 70 -8 0 0 -28 22
-82 19 -45 35 -83 35 -84 0 0 26 -7 58 -14 71 -15 132 -39 132 -51 0 -12 -67
-11 -75 1 -10 16 -77 41 -92 35 -10 -3 -11 -10 -3 -24 18 -34 11 -47 -49 -97
-59 -48 -75 -69 -46 -58 9 4 15 0 15 -9 0 -11 10 -15 33 -13 26 1 32 -3 32
-19 0 -17 8 -21 54 -25 l54 -5 46 -119 c25 -66 51 -121 56 -123 6 -2 25 54 42
124 18 70 36 130 40 134 5 4 58 10 118 14 122 7 155 12 155 23 0 4 -50 38
-110 76 -61 37 -112 72 -115 76 -3 5 9 63 25 130 17 67 30 128 28 136 -2 8
-44 -21 -110 -76z m167 -299 c-7 -12 -64 -25 -72 -17 -7 7 35 24 60 25 10 1
16 -3 12 -8z m-385 -51 c0 -5 -4 -10 -10 -10 -5 0 -10 5 -10 10 0 6 5 10 10
10 6 0 10 -4 10 -10z"/>
<path d="M4465 4261 c-10 -17 12 -21 25 -6 10 12 10 15 -3 15 -9 0 -18 -4 -22
-9z"/>
<path d="M4540 4233 c-66 -23 -130 -59 -135 -74 -3 -10 -26 -25 -51 -35 -65
-25 -43 -42 33 -26 72 15 147 52 193 93 32 30 33 33 15 40 -23 9 -35 9 -55 2z"/>
<path d="M7413 3900 c-113 -23 -163 -78 -286 -313 -53 -101 -97 -187 -97 -191
0 -3 17 -3 38 0 36 6 64 -7 358 -161 175 -93 327 -175 338 -184 10 -9 22 -26
27 -38 5 -13 12 -23 17 -23 12 0 179 317 202 385 20 59 25 124 11 160 -6 16
-16 19 -44 17 -37 -4 -37 -3 -30 30 3 18 13 38 20 43 12 9 9 18 -19 51 -123
149 -379 256 -535 224z m129 -229 c31 -10 85 -35 122 -54 129 -69 186 -131
186 -203 0 -49 -38 -118 -67 -122 -24 -4 -482 234 -490 254 -7 19 33 89 67
118 39 32 101 35 182 7z m318 -70 c0 -9 -41 -23 -48 -16 -2 2 -1 8 3 14 8 13
45 15 45 2z m-30 -491 c0 -15 -7 -20 -25 -20 -27 0 -32 9 -13 28 18 18 38 14
38 -8z"/>
<path d="M3560 3790 c-12 -7 -12 -12 -3 -21 9 -9 16 -9 28 1 29 24 9 42 -25
20z"/>
<path d="M7965 3589 c-4 -6 -4 -13 -1 -16 8 -8 36 5 36 17 0 13 -27 13 -35 -1z"/>
<path d="M2862 3394 c-53 -26 -85 -60 -116 -121 -27 -53 0 -41 98 45 121 104
127 130 18 76z"/>
<path d="M2860 3294 c-191 -165 -220 -188 -220 -175 0 6 19 32 41 56 23 25 40
47 37 50 -2 2 -35 10 -74 16 -59 10 -77 10 -124 -4 -158 -47 -227 -220 -150
-375 34 -66 134 -169 188 -191 24 -10 32 -20 32 -38 0 -22 3 -24 28 -19 25 6
26 5 8 -8 -17 -14 -16 -18 27 -73 25 -32 57 -71 70 -88 l24 -29 6 29 c38 189
39 193 66 200 42 11 121 47 121 55 0 5 -8 10 -17 12 -30 6 24 31 85 39 30 4
56 10 59 13 6 6 -117 166 -128 166 -4 0 -10 -9 -14 -20 -7 -21 -60 -70 -77
-70 -12 0 -6 37 28 173 39 159 78 217 145 217 71 0 136 -110 115 -195 -10 -38
8 -31 92 37 42 34 79 63 81 65 3 2 -5 13 -16 26 -11 12 -32 45 -48 73 -15 29
-48 73 -75 99 l-47 47 -46 -34 c-25 -18 -50 -43 -56 -55 -8 -18 -68 -46 -79
-38 -10 8 18 39 74 81 35 27 64 54 64 60 0 12 -32 24 -60 23 -8 0 -80 -57
-160 -125z m-184 -241 c-9 -31 -35 -147 -33 -149 1 -1 31 4 67 12 36 7 76 14
90 13 l25 0 -25 -14 c-14 -7 -56 -19 -93 -25 -62 -11 -70 -15 -79 -41 -11 -33
-9 -32 -42 -18 -56 26 -70 117 -27 178 34 48 129 83 117 44z m74 -398 c-14 -8
-29 -14 -35 -14 -5 0 1 6 15 14 14 8 30 14 35 14 6 0 -1 -6 -15 -14z"/>
<path d="M6848 3189 c-49 -45 -88 -85 -88 -90 0 -5 13 -9 28 -9 16 0 35 -6 43
-12 22 -18 269 -295 269 -302 0 -3 -14 0 -30 6 -17 5 -37 8 -44 5 -8 -3 -17 0
-19 8 -3 7 -19 16 -35 20 -16 3 -114 33 -217 65 l-188 59 -79 -70 c-43 -39
-78 -75 -78 -80 0 -5 13 -9 29 -9 24 0 45 -17 118 -95 61 -67 92 -94 103 -89
8 3 24 8 35 11 19 4 20 4 1 -11 -10 -8 -24 -17 -30 -19 -17 -6 25 -48 43 -43
48 13 81 17 81 8 0 -5 -11 -13 -25 -16 -14 -4 -28 -13 -31 -21 -4 -8 44 -69
120 -154 69 -78 128 -151 130 -163 3 -13 7 -31 8 -40 2 -14 14 -8 56 30 l53
47 -15 67 c-13 63 -20 74 -98 160 -45 51 -87 96 -92 100 -5 3 -25 4 -45 1
l-36 -4 23 20 24 21 -31 37 c-17 20 -29 39 -27 41 2 2 38 -7 81 -19 50 -15 79
-19 83 -12 10 14 47 33 66 33 21 0 20 -19 0 -41 -15 -17 -15 -19 7 -28 13 -6
100 -33 192 -61 l168 -51 44 38 c24 21 43 45 42 54 -1 10 -46 66 -100 127 -86
96 -100 109 -124 104 -24 -5 -25 -3 -19 22 6 24 -2 37 -61 104 -216 240 -233
262 -233 298 0 19 -3 34 -7 34 -5 0 -47 -37 -95 -81z m206 -465 c13 -5 8 -11
-19 -25 -36 -19 -74 -27 -42 -8 9 5 17 17 17 24 0 16 18 19 44 9z m196 -34 c0
-5 -4 -10 -9 -10 -6 0 -13 5 -16 10 -3 6 1 10 9 10 9 0 16 -4 16 -10z"/>
<path d="M3800 2701 c18 -35 11 -59 -74 -238 -179 -380 -214 -458 -207 -461 4
-1 34 4 66 13 63 16 75 14 56 -9 -18 -21 -78 -39 -107 -32 -17 5 -33 0 -51
-14 -14 -11 -32 -20 -40 -20 -8 0 -13 -5 -11 -11 4 -13 256 -135 263 -127 3 2
-1 18 -7 36 -11 28 -7 40 47 157 83 179 66 168 175 115 51 -25 99 -55 107 -67
9 -13 19 -23 23 -23 6 0 90 172 90 185 0 3 -17 5 -37 5 -37 0 -213 75 -213 91
0 8 76 169 84 176 2 2 51 -18 108 -45 71 -33 109 -57 122 -77 l19 -29 38 75
c21 41 38 79 39 85 0 6 -48 34 -107 62 -407 192 -404 191 -383 153z"/>
<path d="M6120 2649 c-63 -27 -170 -73 -238 -101 -67 -27 -125 -54 -128 -59
-3 -5 6 -13 20 -19 35 -13 47 -35 138 -247 200 -470 212 -503 188 -518 -14 -9
-13 -25 2 -25 14 0 509 208 520 219 8 7 -62 181 -72 181 -3 0 -13 -14 -22 -31
-17 -29 -98 -74 -201 -110 -58 -20 -74 -5 -127 131 l-19 48 100 42 c75 30 108
40 130 35 17 -4 29 -2 29 3 0 6 -14 41 -31 79 -17 37 -35 79 -40 93 l-10 24
-22 -27 c-24 -29 -206 -112 -218 -100 -4 5 -23 46 -42 93 l-35 85 35 18 c84
44 187 79 215 73 27 -5 29 -4 22 17 -14 45 -63 147 -71 147 -4 0 -60 -23 -123
-51z m-120 -269 c-8 -5 -22 -9 -30 -9 -10 0 -8 3 5 9 27 12 43 12 25 0z m-35
-60 c-3 -5 -13 -10 -21 -10 -8 0 -12 5 -9 10 3 6 13 10 21 10 8 0 12 -4 9 -10z
m278 -407 c-7 -2 -21 -2 -30 0 -10 3 -4 5 12 5 17 0 24 -2 18 -5z"/>
<path d="M5453 2435 c-73 -12 -136 -25 -140 -28 -4 -4 3 -14 14 -22 26 -18 38
-54 54 -157 10 -69 14 -78 33 -78 20 -1 20 -1 2 -15 -18 -14 -18 -19 14 -222
43 -272 47 -328 26 -352 -9 -10 -14 -20 -11 -22 6 -7 272 34 280 42 3 4 -5 18
-18 31 -20 20 -27 47 -45 158 -105 647 -102 621 -77 657 8 12 12 23 8 26 -5 2
-68 -6 -140 -18z m127 -295 c0 -13 -9 -22 -27 -26 -16 -3 -34 -7 -40 -10 -22
-6 -14 24 9 40 31 22 58 20 58 -4z"/>
<path d="M4432 2443 c2 -5 10 -20 17 -35 12 -24 9 -72 -28 -390 -23 -200 -44
-371 -47 -380 -3 -10 -16 -26 -30 -37 -14 -11 -21 -22 -16 -25 8 -5 245 -36
277 -36 15 0 14 4 -5 35 -21 34 -21 36 -6 163 9 70 16 131 16 135 0 4 14 7 30
7 48 0 72 -34 120 -170 52 -150 64 -176 90 -190 21 -11 201 -38 218 -32 6 2 1
17 -12 37 -20 29 -136 364 -136 392 0 5 18 27 40 48 51 50 80 125 80 208 -1
80 -26 137 -80 176 -60 43 -114 57 -307 80 -186 23 -227 25 -221 14z m340
-189 c15 -8 32 -23 38 -33 24 -46 2 -135 -41 -165 -24 -17 -124 -23 -133 -8
-2 4 2 53 10 107 7 55 14 106 14 113 0 15 71 6 112 -14z m-148 -252 c13 -21
-23 -37 -73 -33 -20 2 5 29 32 34 12 2 25 5 29 6 4 0 9 -3 12 -7z"/>
<path d="M1880 2310 c0 -5 5 -10 10 -10 6 0 10 5 10 10 0 6 -4 10 -10 10 -5 0
-10 -4 -10 -10z"/>
<path d="M7100 2310 c0 -15 23 -60 30 -60 9 0 54 49 49 54 -10 8 -79 14 -79 6z"/>
</g>
</svg>
