<svg id="Ebene_1" data-name="Ebene 1" xmlns="http://www.w3.org/2000/svg" width="1000" height="1000" viewBox="0 0 1000 1000">
  <path d="M725,263.67q51.57,0,88.28,36.72T850,388.67V590.23q0,37.5-20.31,68a129.85,129.85,0,0,1-53.13,46.1L650,760.55v65.62a37.35,37.35,0,0,1-37.5,37.5h-425a37.35,37.35,0,0,1-37.5-37.5v-625a37.35,37.35,0,0,1,37.5-37.5h425a37.35,37.35,0,0,1,37.5,37.5v62.5Zm-400,450q10.94,0,18-7t7-18v-350q0-10.94-7-18t-18-7q-10.94,0-18,7t-7,18v350q0,10.94,7,18T325,713.67Zm150,0q10.94,0,18-7t7-18v-350q0-10.94-7-18t-18-7q-10.94,0-18,7t-7,18v350q0,10.94,7,18T475,713.67ZM750,590.23V388.67q0-10.94-7-18t-18-7H650v287.5l85.94-39.06Q750,605.86,750,590.23Z"/>
</svg>
