<svg id="Ebene_1" data-name="Ebene 1" xmlns="http://www.w3.org/2000/svg" width="1000" height="1000" viewBox="0 0 1000 1000">
  <path d="M700,413.67q0,67.18-43.75,125t-118,91.41Q464.06,663.67,375,663.67q-93.75,0-173.44-39.06Q134.38,663.67,62.5,663.67q-7.81,0-10.94-7.81t3.13-14.06q6.24-6.25,18.75-25,23.43-29.7,35.94-59.38Q50,493.36,50,413.67q0-67.18,43.75-125t118-91.4q74.22-33.6,163.28-33.6t163.28,33.6q74.22,33.58,118,91.4T700,413.67ZM890.62,757.42q12.51,29.69,35.94,60.94,12.51,17.19,18.75,23.44t3.13,14.06q-3.13,7.82-10.94,7.81-71.88,0-139.06-39.06Q718.74,863.67,625,863.67q-100,0-181.25-42.19T325,710.55a459,459,0,0,0,50,3.12q101.56,0,187.5-40.62T699.22,563.67Q750,494.93,750,413.67a285.19,285.19,0,0,0-1.56-31.25q89.05,28.13,145.31,91.41T950,615.23Q950,693.37,890.62,757.42Z"/>
</svg>
