<svg id="Ebene_1" data-name="Ebene 1" xmlns="http://www.w3.org/2000/svg" width="1000" height="1000" viewBox="0 0 1000 1000">
  <path d="M526.56,902.73a37.71,37.71,0,0,1-53.12,0L350,779.3Q339.06,766.79,339.06,752T350,726.17a36.17,36.17,0,0,1,26.56-10.94h79.69V557.42H298.44v79.69a36.16,36.16,0,0,1-10.94,26.56q-10.94,10.94-25.78,10.94t-27.34-10.94L110.94,540.23a37.71,37.71,0,0,1,0-53.12L234.38,363.67q12.5-12.5,27.34-11.72a39.89,39.89,0,0,1,25.78,10.94q10.94,10.16,10.94,27.34v79.69H456.25V312.11H376.56q-17.19,0-27.34-10.94a39.87,39.87,0,0,1-10.94-25.78q-.78-14.85,11.72-27.34L473.44,124.61a37.71,37.71,0,0,1,53.12,0L650,248.05q10.93,12.49,10.94,27.34T650,301.17a36.17,36.17,0,0,1-26.56,10.94H543.75V469.92H701.56V390.23a36.17,36.17,0,0,1,10.94-26.56q10.93-10.94,25.78-10.94t27.34,10.94L889.06,487.11a37.71,37.71,0,0,1,0,53.12L765.62,663.67q-12.5,12.51-27.34,11.72a39.87,39.87,0,0,1-25.78-10.94q-10.93-10.16-10.94-27.34V557.42H543.75V715.23h79.69q17.19,0,27.34,10.94A39.89,39.89,0,0,1,661.72,752Q662.5,766.8,650,779.3Z"/>
</svg>
