<svg id="Ebene_1" data-name="Ebene 1" xmlns="http://www.w3.org/2000/svg" width="1000" height="1000" viewBox="0 0 1000 1000">
  <path d="M550,326.17a37.35,37.35,0,0,0,37.5,37.5H800v512.5a37.35,37.35,0,0,1-37.5,37.5h-525a37.35,37.35,0,0,1-37.5-37.5v-725a37.35,37.35,0,0,1,37.5-37.5H550ZM643.75,491.8v1.56q6.25-10.94.78-20.31t-16.41-9.38H573.44q-10.94,0-15.63,9.38L500,580.86q-14.07-31.25-25-50-14.07-25-32.81-57.81-4.69-9.37-15.63-9.38H371.88q-11,0-16.41,10.16t.78,19.53L450,638.67,356.25,785.55q-6.25,9.38-.78,18.75t16.41,9.37h54.68q10.94,0,15.63-9.37l29.69-51.57L500,696.48,557.81,804.3q4.7,9.38,15.63,9.37h54.68q10.95,0,16.41-9.37T643.75,784L550,638.67ZM800,304.3a36.2,36.2,0,0,0-10.94-26.57L635.94,124.61a36.17,36.17,0,0,0-26.56-10.94H600v200H800Z"/>
</svg>
