<svg id="Ebene_1" data-name="Ebene 1" xmlns="http://www.w3.org/2000/svg" width="1000" height="1000" viewBox="0 0 1000 1000">
  <path d="M587.5,363.67H800v512.5a37.35,37.35,0,0,1-37.5,37.5h-525a37.35,37.35,0,0,1-37.5-37.5v-725a37.35,37.35,0,0,1,37.5-37.5H550v212.5a37.35,37.35,0,0,0,37.5,37.5Zm-210.94,25q-31.24,0-53.12,21.88t-21.88,53.12q0,31.26,21.88,53.13t52.34,21.87q30.47,0,53.13-21.87t22.65-53.13q0-31.25-22.65-53.12T376.56,388.67Zm325,375v-175l-62.5-62.5q-4.68-4.68-12.5-4.69a22.88,22.88,0,0,0-14.06,4.69L451.56,688.67l-62.5-62.5a21.77,21.77,0,0,0-13.28-4.69,15.93,15.93,0,0,0-11.72,4.69l-62.5,62.5v75ZM800,304.3a36.2,36.2,0,0,0-10.94-26.57L635.94,124.61a36.17,36.17,0,0,0-26.56-10.94H600v200H800Z"/>
</svg>
