<svg id="Ebene_1" data-name="Ebene 1" xmlns="http://www.w3.org/2000/svg" width="1000" height="1000" viewBox="0 0 1000 1000">
  <g id="Gruppe_252" data-name="Gruppe 252">
    <g id="Linkedin" style="isolation: isolate">
      <g style="isolation: isolate">
        <path d="M1000,84.21V940c0,39.73-32.14,72.1-71.43,72.1H71.21C31.92,1012.11,0,979.74,0,940V84.21c0-39.73,31.92-72.1,71.21-72.1H928.57C967.86,12.11,1000,44.48,1000,84.21ZM314.06,240.9a85.94,85.94,0,1,0-85.93,85.94A86.11,86.11,0,0,0,314.06,240.9Zm-11.6,628.35V392H154V869.25H302.46Zm555.35-261.6c0-128.58-27.9-227.46-177.9-227.46-72.1,0-120.54,39.51-140.4,77h-2V392H395.31V869.25H543.53V633.09c0-62.28,11.83-122.54,89.06-122.54,75.89,0,77,71.2,77,126.56V869.25H857.81Z"/>
      </g>
    </g>
  </g>
</svg>
