<svg id="Ebene_1" data-name="Ebene 1" xmlns="http://www.w3.org/2000/svg" width="1000" height="1000" viewBox="0 0 1000 1000">
  <path d="M250,813.67q-62.5,0-106.25-43.75T100,663.67v-300q0-62.49,43.75-106.25T250,213.67H381.25A18.68,18.68,0,0,1,400,232.42v62.5a18.68,18.68,0,0,1-18.75,18.75H250q-20.31,0-35.16,14.85T200,363.67v300q0,20.31,14.84,35.16T250,713.67H381.25A18.68,18.68,0,0,1,400,732.42v62.5a18.68,18.68,0,0,1-18.75,18.75Zm437.5-362.5h-300a37.35,37.35,0,0,0-37.5,37.5v50a37.35,37.35,0,0,0,37.5,37.5h300L565.62,687.11a34.85,34.85,0,0,0-12.5,27.34q0,16.41,10.94,27.35l34.38,34.37a37.71,37.71,0,0,0,53.12,0l237.5-235.94a37.71,37.71,0,0,0,0-53.12L651.56,251.17a37.71,37.71,0,0,0-53.12,0l-34.38,34.38q-10.93,10.93-10.94,27.34a34.83,34.83,0,0,0,12.5,27.34Z"/>
</svg>
