<svg id="Ebene_1" data-name="Ebene 1" xmlns="http://www.w3.org/2000/svg" width="1000" height="1000" viewBox="0 0 1000 1000">
  <path d="M950,313.67H50v-75q0-31.24,21.88-53.12T125,163.67H875q31.25,0,53.12,21.88T950,238.67ZM71.88,841.8Q93.75,863.67,125,863.67H875q31.25,0,53.12-21.87T950,788.67v-275H50v275Q50,819.93,71.88,841.8Zm83.59-172.66a18.07,18.07,0,0,1,13.28-5.47h112.5A18.68,18.68,0,0,1,300,682.42v62.5a18.68,18.68,0,0,1-18.75,18.75H168.75A18.68,18.68,0,0,1,150,744.92v-62.5A18.07,18.07,0,0,1,155.47,669.14Zm200,0a18.07,18.07,0,0,1,13.28-5.47h212.5A18.68,18.68,0,0,1,600,682.42v62.5a18.68,18.68,0,0,1-18.75,18.75H368.75A18.68,18.68,0,0,1,350,744.92v-62.5A18.07,18.07,0,0,1,355.47,669.14Z"/>
</svg>
