<svg id="Ebene_1" data-name="Ebene 1" xmlns="http://www.w3.org/2000/svg" width="1000" height="1000" viewBox="0 0 1000 1000">
  <path d="M835.16,707.42q-52.35,89.07-141.41,141.41T500,901.17q-104.69,0-193.75-52.34T164.84,707.42Q112.5,618.37,112.5,513.67t52.34-193.75a391.61,391.61,0,0,1,141.41-141.4Q395.31,126.17,500,126.17t193.75,52.35a391.61,391.61,0,0,1,141.41,141.4Q887.49,409,887.5,513.67T835.16,707.42Zm-432-426.56q-42.18,23.43-75,73.44A15.65,15.65,0,0,0,325,367.58a19.74,19.74,0,0,0,7.81,11.72l54.69,40.62q4.68,4.69,12.5,3.91a17.12,17.12,0,0,0,12.5-7q25-29.68,39.06-40.63,21.88-15.62,50-15.62a88,88,0,0,1,49.22,14.84q22.65,14.85,22.66,36.72,0,17.19-14.06,29.69-9.39,7.81-35.94,23.43l-3.13,1.57q-39.06,21.87-54.69,39.06-28.11,29.68-28.12,70.31v6.25a18.68,18.68,0,0,0,18.75,18.75h87.5a18.68,18.68,0,0,0,18.75-18.75v-1.56q0-12.5,12.5-21.88,7.82-6.24,29.69-18.75,40.62-25,57.81-43.75,29.68-32.81,29.69-82.81,0-43.74-26.57-80.47t-68.74-57.81q-42.2-21.09-85.94-21.09Q448.43,254.3,403.12,280.86Zm46.1,382q-21.09,21.09-21.1,50.78t21.1,50.78q21.09,21.1,50.78,21.1t50.78-21.1q21.09-21.09,21.1-50.78t-21.1-50.78Q529.69,641.8,500,641.8T449.22,662.89Z"/>
</svg>
