<svg id="Ebene_1" data-name="Ebene 1" xmlns="http://www.w3.org/2000/svg" width="1000" height="1000" viewBox="0 0 1000 1000">
  <path d="M645.31,154.3A380,380,0,0,1,767.19,234l56.25-56.25A37.5,37.5,0,0,1,887.5,204.3V413.67a37.35,37.35,0,0,1-37.5,37.5H640.62a37.56,37.56,0,0,1-26.56-64.06l65.63-65.63a273.41,273.41,0,0,0-82-51.56,252.67,252.67,0,0,0-96.1-18.75,258.27,258.27,0,0,0-131.25,35.16,263.82,263.82,0,0,0-96.87,96.09,255.38,255.38,0,0,0-35.94,132q0,71.1,35.16,131.25A261.33,261.33,0,0,0,368,741q60.15,35.15,132,35.15a267,267,0,0,0,93-16.4,243.16,243.16,0,0,0,80.47-49.22q4.68-4.69,12.5-3.91t12.5,5.47l62.5,62.5q4.68,4.68,4.68,13.28t-6.24,13.28Q707.81,848,640.62,874.61A379,379,0,0,1,500,901.17q-104.69,0-193.75-52.34T164.84,707.42Q112.5,618.37,112.5,513.67t52.34-193.75a391.61,391.61,0,0,1,141.41-141.4Q395.31,126.17,500,126.17,576.56,126.17,645.31,154.3Z"/>
</svg>
