<svg id="Ebene_1" data-name="Ebene 1" xmlns="http://www.w3.org/2000/svg" width="1000" height="1000" viewBox="0 0 1000 1000">
  <path d="M860.94,607.42a16.85,16.85,0,0,1,8.59,9.38,20.63,20.63,0,0,1,.78,12.5,387.89,387.89,0,0,1-85.93,146.87,23.19,23.19,0,0,1-10.94,6.25,17.65,17.65,0,0,1-12.5-1.56L695.31,741.8A299.06,299.06,0,0,1,600,796.48v76.57a19.78,19.78,0,0,1-3.91,11.72,17.36,17.36,0,0,1-10.15,7,398.59,398.59,0,0,1-171.88,0,17.36,17.36,0,0,1-10.15-7A19.78,19.78,0,0,1,400,873.05V796.48a299.06,299.06,0,0,1-95.31-54.68l-65.63,39.06a17.65,17.65,0,0,1-12.5,1.56,23.19,23.19,0,0,1-10.94-6.25A387.89,387.89,0,0,1,129.69,629.3a20.63,20.63,0,0,1,.78-12.5,16.85,16.85,0,0,1,8.59-9.38l65.63-39.06a321.38,321.38,0,0,1,0-109.38l-65.63-39.06a16.83,16.83,0,0,1-8.59-9.37,20.64,20.64,0,0,1-.78-12.5,387.93,387.93,0,0,1,85.93-146.88,23.27,23.27,0,0,1,10.94-6.25,17.65,17.65,0,0,1,12.5,1.56l65.63,39.07A299.08,299.08,0,0,1,400,230.86V154.3a19.74,19.74,0,0,1,3.91-11.72,17.32,17.32,0,0,1,10.15-7,398.59,398.59,0,0,1,171.88,0,17.32,17.32,0,0,1,10.15,7A19.74,19.74,0,0,1,600,154.3v76.56a299.08,299.08,0,0,1,95.31,54.69l65.63-39.07a17.65,17.65,0,0,1,12.5-1.56,23.27,23.27,0,0,1,10.94,6.25,387.93,387.93,0,0,1,85.93,146.88,20.64,20.64,0,0,1-.78,12.5,16.83,16.83,0,0,1-8.59,9.37L795.31,459a321.38,321.38,0,0,1,0,109.38Zm-272.66-182Q551.56,388.67,500,388.67t-88.28,36.72Q375,462.11,375,513.67T411.72,602q36.72,36.72,88.28,36.72T588.28,602Q625,565.23,625,513.67T588.28,425.39Z"/>
</svg>
