<svg id="Ebene_1" data-name="Ebene 1" xmlns="http://www.w3.org/2000/svg" width="1000" height="1000" viewBox="0 0 1000 1000">
  <path d="M975,662.65q10.93,0,18,7t7,18v50q0,10.94-7,18t-18,7H900q0,62.51-43.75,106.25T750,912.65q-62.5,0-106.25-43.75T600,762.65H400q0,62.51-43.75,106.25T250,912.65q-62.5,0-106.25-43.75T100,762.65H75q-31.24,0-53.12-21.87T0,687.65v-500q0-31.25,21.88-53.12T75,112.65H575q31.25,0,53.12,21.88T650,187.65v75h68.75q31.25,0,53.13,21.88L928.12,440.78Q950,462.65,950,493.9V662.65Zm-725,175q31.25,0,53.12-21.87T325,762.65q0-31.24-21.88-53.12T250,687.65q-31.25,0-53.12,21.88T175,762.65q0,31.25,21.88,53.13T250,837.65Zm625-325V493.9L718.75,337.65H650v175Zm-125,325q31.25,0,53.12-21.87T825,762.65q0-31.24-21.88-53.12T750,687.65q-31.25,0-53.12,21.88T675,762.65q0,31.25,21.88,53.13T750,837.65Z"/>
</svg>
