<svg id="Ebene_1" data-name="Ebene 1" xmlns="http://www.w3.org/2000/svg" width="1000" height="1000" viewBox="0 0 1000 1000">
  <path d="M835.16,707.42q-52.35,89.07-141.41,141.41T500,901.17q-104.69,0-193.75-52.34T164.84,707.42Q112.5,618.37,112.5,513.67t52.34-193.75a391.61,391.61,0,0,1,141.41-141.4Q395.31,126.17,500,126.17t193.75,52.35a391.61,391.61,0,0,1,141.41,141.4Q887.49,409,887.5,513.67T835.16,707.42Zm-93-276.56q7.81-6.25,7.81-17.19t-7.81-17.19l-34.38-35.93q-7.81-7.82-18-7.82t-18,7.82L437.5,594.92,328.12,485.55q-7.8-7.82-18-7.82t-18,7.82l-34.38,35.93Q250,527.73,250,538.67t7.81,17.19l162.5,162.5q6.26,7.82,17.19,7.81t17.19-7.81Z"/>
</svg>
