<svg id="Ebene_1" data-name="Ebene 1" xmlns="http://www.w3.org/2000/svg" width="1000" height="1000" viewBox="0 0 1000 1000">
  <path d="M850,344.92a18.68,18.68,0,0,1-18.75,18.75H168.75A18.68,18.68,0,0,1,150,344.92V288.67q0-31.25,21.88-53.12T225,213.67h75V132.42a18.68,18.68,0,0,1,18.75-18.75h62.5A18.68,18.68,0,0,1,400,132.42v81.25H600V132.42a18.68,18.68,0,0,1,18.75-18.75h62.5A18.68,18.68,0,0,1,700,132.42v81.25h75q31.25,0,53.12,21.88T850,288.67ZM168.75,413.67A18.68,18.68,0,0,0,150,432.42V838.67q0,31.26,21.88,53.13T225,913.67H775q31.25,0,53.12-21.87T850,838.67V432.42a18.68,18.68,0,0,0-18.75-18.75Z"/>
</svg>
