<svg id="Ebene_1" data-name="Ebene 1" xmlns="http://www.w3.org/2000/svg" width="1000" height="1000" viewBox="0 0 1000 1000">
  <g>
    <path d="M125.1,0a68.19,68.19,0,0,0,5.06,6.48c4.09,4.16,8.51,8,12.59,12.15,5.4,5.51,10.53,11.29,15.95,16.78,2.86,2.89,6.21,5.31,9.12,8.16,3.37,3.29,6.48,6.84,9.74,10.23,2.84,3,5.75,5.83,8.61,8.77,3.16,3.25,6.26,6.57,9.47,9.78,2.73,2.72,5.57,5.34,8.38,8,3.43,3.23,7,6.34,10.28,9.68,3,3.07,5.78,6.44,8.78,9.56,4.35,4.52,8.76,9,13.27,13.37s9.23,8.32,13.62,12.71c4.2,4.22,8,8.86,12.14,13.11,2.85,2.91,6.17,5.35,9.09,8.19,3.38,3.29,6.53,6.82,9.82,10.2,2.93,3,5.93,6,8.88,8.93,4.27,4.31,8.47,8.69,12.8,12.94,3.07,3,6.39,5.8,9.44,8.85,4.13,4.14,8.06,8.49,12.15,12.67,2.94,3,6,5.89,9,8.82,3.39,3.29,6.79,6.56,10.16,9.87,3.23,3.16,6.46,6.33,9.62,9.56,2.79,2.84,5.47,5.79,8.25,8.64,2.93,3,5.9,6,8.87,8.95,3.48,3.5,7,7,10.44,10.48,4,4.11,7.91,8.31,11.94,12.39,4.5,4.56,9,9.09,13.64,13.53s9.19,8.35,13.6,12.72c2.9,2.86,5.34,6.18,8.17,9.11s5.79,5.46,8.68,8.2c3.42,3.24,6.87,6.46,10.22,9.78,4.46,4.43,8.83,8.94,13.22,13.44,4.17,4.26,8.25,8.61,12.47,12.82,3.05,3,6.34,5.84,9.41,8.86,2.84,2.8,5.51,5.76,8.29,8.63s5.86,6,8.82,9c3.48,3.5,7,7,10.5,10.43,3,3,5.95,5.93,8.91,8.91s5.89,6,8.87,8.94,6,5.9,9,8.83c3.38,3.29,6.85,6.5,10.17,9.85,3,3.06,5.9,6.28,8.86,9.4,3.13,3.3,6.19,6.67,9.44,9.84,2.93,2.83,6.2,5.32,9.12,8.17,3.37,3.29,6.47,6.86,9.79,10.21,3,3,6.24,5.93,9.28,9s5.59,6,8.5,8.87c3.15,3.12,6.57,6,9.66,9.14,4.15,4.26,8,8.84,12.17,13.08s8.5,8,12.69,12.11c3.46,3.37,6.81,6.84,10.21,10.27,3,3,5.88,6,8.84,9s5.94,5.94,8.94,8.88,6.22,5.95,9.28,9c3.35,3.32,6.66,6.69,10,10.06,4.25,4.33,8.47,8.69,12.73,13,3,3,6,5.91,8.94,8.87s5.93,5.94,8.91,8.91c4.23,4.2,8.48,8.38,12.69,12.6,3,3,5.86,6,8.82,9,3.48,3.5,7,6.94,10.51,10.42,3,3,5.94,5.94,8.9,8.91s5.9,6,8.88,8.94,6,5.89,9,8.84c3.43,3.4,6.87,6.78,10.28,10.2q6.42,6.45,12.79,13c4.26,4.32,8.47,8.69,12.79,13,3.07,3,6.37,5.82,9.44,8.84,2.84,2.8,5.48,5.79,8.26,8.64,2.92,3,5.9,6,8.87,9,3.48,3.49,7,7,10.45,10.47,3,3,6,5.9,9,8.85s5.86,5.72,8.73,8.63,5.76,6.12,8.76,9.06c3.36,3.29,6.93,6.38,10.29,9.67s6.34,6.48,9.48,9.75c4.2,4.38,8.26,8.9,12.58,13.16s9.18,8.37,13.59,12.74c2.89,2.86,5.33,6.18,8.17,9.11s5.79,5.45,8.68,8.19c3.42,3.25,6.84,6.49,10.21,9.79s6.41,6.38,9.58,9.61c2.79,2.84,5.55,5.72,8.3,8.61s5.64,5.93,8.4,9c3.42,3.74,7.08,7.31,10.07,11.37,3.86,5.22,7.21,10.8,10.66,16.31a13.35,13.35,0,0,1,1.54,4.16c1.5,6.66,2.85,13.35,4.41,20,.27,1.1,1.37,2,2.08,3V922c-.71,1-2,2.07-2,3.15-.45,9.06-3.41,17.22-7.51,25.29-3.7,7.29-7.56,14.25-13.07,20.39-4.82,5.38-9.92,10.26-16.19,13.85-3.28,1.89-6.46,4-9.87,5.59a111,111,0,0,1-14.06,5.82c-3.59,1.13-7.53,1.17-11.27,1.93-.91.18-1.63,1.29-2.44,2H900.39c-1.08-.71-2.08-1.81-3.26-2-4-.8-8.16-.82-12-2-4.15-1.32-8-3.62-11.93-5.55-3.72-1.83-7.71-3.32-11-5.73a128.16,128.16,0,0,1-14.26-12.07c-4.34-4.26-8.13-9.09-12.17-13.67-2.75-3.12-5.47-6.28-8.27-9.36-3-3.24-6.07-6.34-9-9.63-3.53-4-6.78-8.27-10.37-12.21-4.18-4.58-8.77-8.79-12.88-13.43-4.42-5-8.4-10.35-12.73-15.43-2.92-3.42-6.08-6.63-9.16-9.92-2.77-3-5.61-5.86-8.35-8.85-3.19-3.49-6.29-7.06-9.45-10.57-1.84-2-3.75-4-5.59-6-4.85-5.33-9.73-10.64-14.49-16.05-4.29-4.87-8.36-9.94-12.67-14.79s-8.76-9.4-13.08-14.16c-3.76-4.14-7.39-8.4-11.14-12.55-3.6-4-7.34-7.86-10.93-11.87-2.81-3.14-5.44-6.44-8.22-9.61-3.19-3.66-6.43-7.27-9.67-10.87-3.11-3.45-6.28-6.83-9.36-10.29s-6.23-7.15-9.33-10.75c-5.57-6.47-11.06-13-16.75-19.39-2.81-3.15-6.06-5.9-9-9s-5.72-6.5-8.57-9.76c-3-3.45-6-6.94-9.08-10.35-3.26-3.65-6.64-7.19-9.88-10.84-2.88-3.24-5.59-6.62-8.47-9.86-1.84-2.07-3.89-4-5.75-6q-5.67-6.23-11.23-12.55c-4-4.58-7.81-9.32-11.9-13.81-4.31-4.75-9-9.19-13.25-14s-8.19-9.89-12.42-14.7c-2.85-3.25-6-6.21-9-9.35-2-2.09-4-4.19-5.8-6.43-1.22-1.5-1.51-1.57-2.88.17a107.75,107.75,0,0,1-9.51,10c-3.1,3-6.44,5.76-9.55,8.76-4.51,4.35-9,8.75-13.35,13.25-3,3.11-5.73,6.49-8.73,9.62a36,36,0,0,1-4.43,3.35c-3.61-3.47-7.44-7.1-11.21-10.79-2-2-3.86-4-5.85-6-3.57-3.54-7.25-7-10.78-10.57-3.31-3.36-6.41-6.94-9.73-10.3s-6.95-6.7-10.43-10c-2.36-2.27-4.72-4.54-7.05-6.84q-5-4.92-9.9-9.88c-3.62-3.68-7.17-7.43-10.82-11.08-5-5-10.07-9.85-15-14.9-4.51-4.62-8.73-9.53-13.32-14.08-3.51-3.48-7.47-6.51-11.08-9.9-2.3-2.17-4.27-4.69-6.47-7-3-3.12-6-6.18-9.09-9.23-3.73-3.71-7.47-7.43-11.25-11.08-3.41-3.3-6.94-6.47-10.32-9.78-2.19-2.14-4.18-4.48-6.32-6.66-3.17-3.24-6.41-6.42-9.6-9.64-3.63-3.67-7.21-7.4-10.87-11s-7.46-7.16-11.08-10.86c-4.53-4.62-8.87-9.44-13.43-14-3.48-3.51-7.21-6.78-10.77-10.21-1.92-1.85-3.68-3.86-5.58-5.74-3.66-3.63-7.4-7.19-11-10.84s-7.14-7.47-10.84-11.07c-3.38-3.29-7-6.29-10.41-9.6-2.18-2.14-4-4.67-6.09-6.9-3-3.14-6-6.17-9.1-9.22-3.73-3.72-7.49-7.42-11.24-11.12-5-4.94-10.1-9.84-15.09-14.83s-9.65-9.91-14.54-14.81-10-9.65-14.81-14.59c-4.53-4.62-8.81-9.49-13.35-14.09-3.4-3.44-7.06-6.62-10.55-10-2-1.93-3.92-4-5.88-5.95-3.46-3.51-7-7-10.37-10.56-1.51-1.58-2.91-3.27-4.27-5-2.47-3.13-4.93-6.27-7.28-9.49-3.62-5-7.31-9.88-10.65-15-2.18-3.37-3.79-7.13-5.67-10.7s-3.78-6.94-5.49-10.49a44.47,44.47,0,0,1-1.6-5.06c-1.57-4.6-3.05-9.23-4.8-13.76-1.15-3-2.9-5.75-4-8.74a50,50,0,0,1-1.52-7.06c-1-4.72-2.11-9.43-2.88-14.19s-.62-9.48-1.8-14c-4.07-15.67-1.4-31.57-2.08-47.34a68.37,68.37,0,0,1,.25-11.18c.87-7.12,2.14-14.19,3.23-21.29.08-.5.13-1,.21-1.52,1.43-8.42,2.56-16.9,4.39-25.22,1.26-5.69,3.56-11.15,5.25-16.75,1.62-5.32,2.84-10.77,4.63-16,1.54-4.55,3.68-8.89,5.48-13.35.7-1.73,1.22-3.52,1.8-5.29,1.43-4.33,2.79-8.68,4.32-13A29.74,29.74,0,0,1,88,0Z"/>
    <path d="M0,900.39c.72-.91,1.9-1.72,2.09-2.73.8-4.1.81-8.41,2-12.36,1.27-4.13,3.54-8,5.49-11.87,1.82-3.65,3.36-7.55,5.78-10.77,3.94-5.24,8.38-10.14,12.82-15,4.85-5.27,9.93-10.34,14.94-15.46,3.27-3.33,6.6-6.61,9.89-9.92,3.15-3.16,6.26-6.36,9.44-9.49,2.88-2.82,5.85-5.54,8.72-8.36,3-3,6-6,9-9,3.26-3.34,6.45-6.74,9.73-10,4.48-4.51,9-9,13.53-13.44,4.34-4.18,8.9-8.14,13.15-12.41s8.35-9.08,12.66-13.49c4-4,8.2-7.84,12.21-11.85,4.43-4.42,8.65-9,13.1-13.44,4.22-4.14,8.68-8,12.93-12.15,2.89-2.79,5.58-5.8,8.4-8.66,3.51-3.55,7.07-7,10.62-10.56q4.29-4.26,8.63-8.48c3.27-3.2,6.61-6.35,9.83-9.62,2.74-2.78,5.3-5.72,8-8.52,3.4-3.5,6.87-7,10.32-10.4,4.27-4.25,8.56-8.48,12.82-12.73l12.79-12.78c2.93-2.92,5.86-5.84,8.82-8.74,3.11-3.05,6.28-6,9.36-9.11,2.85-2.84,5.58-5.8,8.4-8.66,3.51-3.55,7.1-7,10.6-10.59,3-3,5.79-6.21,8.83-9.19,3.21-3.14,6.49-6.25,10-9.07a3.9,3.9,0,0,1,3.79.12c4.56,4.41,8.8,9.15,13.29,13.64,3.14,3.14,6.54,6,9.74,9.11,2.44,2.35,4.72,4.88,7.13,7.27,3.46,3.47,7,6.84,10.46,10.34s6.41,6.91,9.72,10.28c1.79,1.82,3.86,3.37,5.7,5.15,2.53,2.44,4.95,5,7.44,7.49,3.47,3.46,7,6.84,10.44,10.36s6.35,7,9.65,10.32,6.75,6.51,10.13,9.76c2.45,2.35,4.92,4.68,7.35,7.06,3.31,3.26,6.59,6.56,9.88,9.86,3,3,6.2,5.85,8.92,9.1,2.16,2.57-.26,4.3-1.95,6-3,3-5.88,6-8.83,9-3.39,3.43-6.76,6.87-10.18,10.27-4.3,4.28-8.65,8.51-13,12.76s-8.66,8.5-12.9,12.82c-3,3.07-5.84,6.33-8.85,9.4-2.8,2.84-5.75,5.52-8.61,8.29-3,2.92-6,5.83-9,8.8-3.49,3.48-6.91,7-10.39,10.51-3,3-6,5.91-8.94,8.87S330,794,327,796.92s-5.92,5.94-8.89,8.9c-3.49,3.48-7,6.93-10.49,10.42-3,3-5.86,6-8.84,9-4.31,4.27-8.74,8.41-13,12.72-3,3.07-5.79,6.41-8.81,9.48-4,4.08-8.24,8-12.31,12-3.12,3.11-6.12,6.34-9.22,9.47-3.24,3.28-6.54,6.5-9.79,9.76s-6.34,6.45-9.56,9.62c-2.84,2.79-5.79,5.46-8.65,8.23-3,2.92-6,5.9-8.94,8.86q-5.24,5.22-10.45,10.46c-3,3-5.9,6-8.88,8.92-4.31,4.26-8.7,8.44-13,12.76-3,3.07-5.78,6.4-8.82,9.44-4.14,4.13-8.46,8.08-12.67,12.14-2.94,2.84-5.86,5.7-8.73,8.62-3.2,3.26-6,7-9.57,9.8A153.57,153.57,0,0,1,129,989.06c-3.84,2.17-8.48,2.9-12.39,5-7.11,3.77-14.78,3.45-22.38,4.06-.82.07-1.55,1.24-2.32,1.9H84.17c-1.24-.7-2.48-2-3.71-2a59.34,59.34,0,0,1-24.74-5.39,110.92,110.92,0,0,1-12.5-6.44c-5.35-3.19-11.23-6-15.56-10.3a97.91,97.91,0,0,1-17.15-23.25c-.58-1.08-.76-2.35-1.24-3.49C7.5,945,5.25,940.93,4,936.61c-1.16-4-1.18-8.3-1.94-12.43-.15-.82-1.34-1.45-2-2.17Z"/>
    <path d="M715.29,242.08c3.52-3.32,6.89-6.38,10.12-9.58,4.38-4.35,8.57-8.89,13-13.2s9.17-8.37,13.58-12.73c2.89-2.87,5.34-6.19,8.18-9.12s5.78-5.46,8.67-8.2c3.42-3.25,6.86-6.48,10.23-9.79,3.23-3.16,6.41-6.38,9.58-9.61,2.79-2.85,5.5-5.78,8.32-8.59,3.13-3.12,6.41-6.09,9.52-9.22,3.33-3.35,6.51-6.84,9.81-10.22,2.93-3,5.94-5.95,8.89-8.94,4.27-4.31,8.47-8.7,12.79-13,3.08-3,6.42-5.79,9.46-8.85,4.13-4.15,8.05-8.51,12.15-12.69,2.94-3,6-5.87,9-8.77a30.08,30.08,0,0,1,4.74-4.18c.89-.54,2.94-.53,3.6.12,5.24,5.06,10.21,10.39,15.36,15.54,4.46,4.46,9.07,8.77,13.58,13.18,2.92,2.86,5.82,5.75,8.64,8.71,2.5,2.61-.23,4.16-1.57,5.56-5.48,5.69-11.15,11.21-16.78,16.76-4.34,4.29-8.78,8.48-13.06,12.83s-8.31,8.89-12.6,13.21c-4.13,4.16-8.53,8-12.66,12.21-5.68,5.71-11.15,11.63-16.84,17.32-4.14,4.14-8.61,7.94-12.72,12.1-6.89,6.94-13.55,14.1-20.44,21-4.11,4.16-8.51,8-12.7,12.12-4.67,4.54-9.26,9.16-13.87,13.75-5.24,5.21-10.49,10.41-15.69,15.66-2.75,2.77-5.39,5.65-8.66,9.09,4.85,4.51,9.67,8.92,14.41,13.43q6.5,6.17,12.85,12.5c3,3,5.86,6.05,8.78,9.08a34.63,34.63,0,0,0,4.49,4.49c.6.42,2.45-.12,3.19-.81,4.71-4.36,9.36-8.78,13.83-13.37,4.16-4.26,8-8.86,12.13-13.11,2.84-2.9,6.13-5.37,9.08-8.18,3.33-3.18,6.5-6.53,9.76-9.79s6.46-6.32,9.63-9.55c2.78-2.84,5.45-5.8,8.22-8.65,2.92-3,5.91-6,8.87-8.93q5.22-5.24,10.44-10.46c3-3,6-5.88,8.94-8.86,4.27-4.31,8.43-8.72,12.74-13,3.07-3,6.42-5.77,9.46-8.82,4.13-4.13,8.05-8.48,12.13-12.66,2.94-3,6-5.85,9-8.8,3.43-3.38,6.82-6.81,10.24-10.21s6.59-7,10.25-10c3-2.54,5.15.5,7.05,2.29q9,8.52,17.73,17.34c5.49,5.57,10.71,11.4,16.23,16.94,2.24,2.26,1.25,3.7-.48,5.41-5.88,5.84-11.72,11.72-17.58,17.57q-7.76,7.77-15.52,15.51l-17.42,17.3c-6.8,6.72-13.67,13.36-20.39,20.16-6.11,6.18-12,12.58-18.09,18.77-3.57,3.62-7.46,6.92-11,10.53-7.49,7.61-14.8,15.4-22.3,23-4.63,4.7-9.56,9.09-14.21,13.77-6.41,6.45-12.63,13.1-19,19.56-3.41,3.44-7.13,6.58-10.59,10-5.79,5.67-11.45,11.47-17.22,17.16q-10.21,10.1-20.52,20.09c-4.41,4.3-8.62,8.85-13.35,12.75-3.92,3.23-8.43,5.78-12.78,8.45-5.48,3.35-11,6.55-16.62,9.73a20.49,20.49,0,0,1-4.13,1.62c-4.82,1.47-9.88,2.39-14.43,4.44-5.31,2.4-11.1,2.32-16.35,4-9,2.93-18.42,1.27-27.39,3.45A114.1,114.1,0,0,0,675.61,462c-4.1,1.49-7,.57-10.05-2.87s-6.88-6.59-10.32-9.89q-4.35-4.17-8.65-8.42c-4.42-4.4-8.86-8.78-13.19-13.25s-8.38-9-12.68-13.41c-3.26-3.33-6.75-6.43-10.07-9.71-1.83-1.81-3.47-3.82-5.27-5.67-2.66-2.73-5.39-5.39-8.09-8.09-3.24-3.24-6.44-6.54-9.73-9.73-4.7-4.57-9.54-9-14.19-13.63-3.83-3.81-7.4-7.87-11.19-11.72-3.27-3.33-6.69-6.52-10-9.79-3-3-6.06-6-9.1-8.94a16.48,16.48,0,0,1-2.83-2.76c-1.16-1.91-3-4.14-2.78-6,.5-4.26,2.09-8.39,3.22-12.58a12.56,12.56,0,0,0,.49-2.25c.59-7.27.92-14.57,1.79-21.81a123.11,123.11,0,0,1,2.95-15.05,165.39,165.39,0,0,1,4.77-16.25,120,120,0,0,1,5.68-12.18c1.8-3.64,3.6-7.29,5.65-10.8a113.88,113.88,0,0,1,7.1-11c3.46-4.63,7.17-9.08,10.95-13.45,2.84-3.27,5.91-6.34,8.94-9.43,2.88-2.93,5.88-5.74,8.78-8.66s5.84-6.08,8.81-9.07c3.49-3.53,7-7,10.55-10.49,4.24-4.23,8.43-8.51,12.71-12.69,4.11-4,8.34-7.95,12.46-12,3.35-3.26,6.64-6.58,9.91-9.92,2.73-2.77,5.37-5.63,8.12-8.38,3.13-3.13,6.38-6.13,9.49-9.28,3.34-3.37,6.56-6.86,9.86-10.27,2.85-3,5.74-5.89,8.62-8.84,3.09-3.17,6.11-6.42,9.28-9.51,2.94-2.87,6.09-5.52,9-8.38,3.41-3.3,6.71-6.7,10-10.07,4.29-4.34,8.55-8.69,12.84-13S738,54.19,742.21,50c3-3,6-6,9-8.93s5.86-5.77,8.75-8.69,5.88-6,8.84-9Q774,18,779.3,12.8c3.35-3.3,6.58-6.75,10.16-9.78,3.1-2.61,5.1.44,7,2.22q7,6.53,13.8,13.36c5.3,5.35,10.46,10.83,15.7,16.25.87.9,1.77,1.77,2.71,2.58,4.33,3.72,4.06,5.89-.48,9.72-3.47,2.93-6.51,6.37-9.71,9.61q-6.59,6.66-13.11,13.38c-4.2,4.31-8.32,8.72-12.61,13s-8.95,8.45-13.35,12.74c-2.8,2.73-5.41,5.64-8.14,8.44-3,3-5.95,6.06-8.94,9.06-3.45,3.46-6.93,6.89-10.38,10.34-4.26,4.27-8.49,8.55-12.74,12.82l-12.78,12.8c-2.92,2.93-5.85,5.85-8.75,8.8-3.05,3.11-6,6.29-9.11,9.37-2.84,2.85-5.8,5.57-8.66,8.4-3.55,3.52-7,7.11-10.58,10.61-3,3-6.15,5.86-9.22,8.8a32.16,32.16,0,0,0-4.25,4.33,3.33,3.33,0,0,0,.13,3.2c4.15,4.13,8.54,8,12.76,12.07,4.07,3.91,8,7.93,12,11.92q7.07,7.07,14.08,14.17A2.49,2.49,0,0,1,715.29,242.08Z"/>
  </g>
</svg>
