<svg id="Ebene_1" data-name="Ebene 1" xmlns="http://www.w3.org/2000/svg" width="1000" height="1000" viewBox="0 0 1000 1000">
  <path d="M588.28,877Q551.56,913.67,500,913.67T411.72,877Q375,840.23,375,788.67t36.72-88.28q36.72-36.72,88.28-36.72t88.28,36.72Q625,737.11,625,788.67T588.28,877ZM410.94,577.73q0,15.63,10.94,25.79t26.56,10.15H551.56q15.63,0,26.56-10.15t10.94-25.79l21.88-425A38.82,38.82,0,0,0,600,125.39q-10.93-11.72-26.56-11.72H426.56q-15.62,0-26.56,11.72a38.82,38.82,0,0,0-10.94,27.34Z"/>
</svg>
