<svg id="Ebene_1" data-name="Ebene 1" xmlns="http://www.w3.org/2000/svg" width="1000" height="1000" viewBox="0 0 1000 1000">
  <path d="M835.16,707.42q-52.35,89.07-141.41,141.41T500,901.17q-104.69,0-193.75-52.34T164.84,707.42Q112.5,618.37,112.5,513.67t52.34-193.75a391.61,391.61,0,0,1,141.41-141.4Q395.31,126.17,500,126.17t193.75,52.35a391.61,391.61,0,0,1,141.41,141.4Q887.49,409,887.5,513.67T835.16,707.42ZM449.22,612.89q-21.09,21.09-21.1,50.78t21.1,50.78q21.09,21.1,50.78,21.1t50.78-21.1q21.09-21.09,21.1-50.78t-21.1-50.78Q529.69,591.8,500,591.8T449.22,612.89Zm-5.47-66.41q0,6.25,5.47,11.72a18.05,18.05,0,0,0,13.28,5.47h75a18.05,18.05,0,0,0,13.28-5.47q5.47-5.46,5.47-11.72L568.75,334q0-9.37-5.47-14.84A18.05,18.05,0,0,0,550,313.67H450a18.05,18.05,0,0,0-13.28,5.47q-5.48,5.48-5.47,14.84Z"/>
</svg>
