<svg id="Ebene_1" data-name="Ebene 1" xmlns="http://www.w3.org/2000/svg" width="1000" height="1000" viewBox="0 0 1000 1000">
  <path d="M550,326.17a37.35,37.35,0,0,0,37.5,37.5H800v512.5a37.35,37.35,0,0,1-37.5,37.5h-525a37.35,37.35,0,0,1-37.5-37.5v-725a37.35,37.35,0,0,1,37.5-37.5H550Zm89.06,187.5a19.78,19.78,0,0,0-11.72,3.91,12,12,0,0,0-5.46,10.15q-23.45,107.82-31.26,154.69Q587.5,709,587.5,726.17v4.69q-3.12-23.45-46.88-203.13a18.76,18.76,0,0,0-6.24-10.15,16.57,16.57,0,0,0-10.94-3.91H478.12q-7.8,0-12.5,3.91a18.76,18.76,0,0,0-6.24,10.15l-14.07,59.38q-29.68,118.76-31.25,132.81-3.12-42.18-34.37-190.62,0-7.81-5.47-11.72a19.76,19.76,0,0,0-11.72-3.91H323.44a17.84,17.84,0,0,0-14.85,7q-5.46,7-2.34,16.41l57.81,262.5a17.38,17.38,0,0,0,7,10.16,19.84,19.84,0,0,0,11.72,3.9h57.81a19.79,19.79,0,0,0,11.72-3.9,17.4,17.4,0,0,0,7-10.16l34.37-142.19a119.55,119.55,0,0,0,4.69-31.25H500l1.56,15.63q3.13,18.75,20.32,85.93l17.18,71.88a17.38,17.38,0,0,0,7,10.16,19.84,19.84,0,0,0,11.72,3.9h59.38a19.84,19.84,0,0,0,11.72-3.9,17.38,17.38,0,0,0,7-10.16l59.37-262.5a20.21,20.21,0,0,0-3.9-16.41,17.84,17.84,0,0,0-14.85-7ZM800,304.3a36.2,36.2,0,0,0-10.94-26.57L635.94,124.61a36.17,36.17,0,0,0-26.56-10.94H600v200H800Z"/>
</svg>
