<svg id="Ebene_1" data-name="Ebene 1" xmlns="http://www.w3.org/2000/svg" width="1000" height="1000" viewBox="0 0 1000 1000">
  <path d="M300,513.67q0,46.88,4.69,100H126.56q-14.06-51.55-14.06-100t14.06-100H304.69Q300,465.24,300,513.67ZM389.06,141.8q-56.25,78.12-78.12,221.87H142.19a395.43,395.43,0,0,1,99.22-138.28A382.55,382.55,0,0,1,389.06,141.8ZM142.19,663.67H310.94q23.43,143.75,78.12,221.88A382.58,382.58,0,0,1,241.41,802,395.34,395.34,0,0,1,142.19,663.67ZM350,513.67q0-50,4.69-100H645.31q4.7,50,4.69,100t-4.69,100H354.69Q350,563.68,350,513.67Zm289.06-150H362.5q17.19-106.25,54.69-171.87T500,126.17q45.32,0,82.81,65.63T639.06,363.67Zm-276.56,300h275q-17.19,106.25-54.69,171.88T500,901.17q-45.31,0-82.81-65.62T362.5,663.67Zm495.31-300H689.06Q665.63,219.92,610.94,141.8a382.55,382.55,0,0,1,147.65,83.59A395.43,395.43,0,0,1,857.81,363.67ZM610.94,885.55q56.25-78.13,78.12-221.88H857.81A395.34,395.34,0,0,1,758.59,802,382.58,382.58,0,0,1,610.94,885.55Zm262.5-471.88a362.65,362.65,0,0,1,0,200H695.31q4.7-51.55,4.69-100t-4.69-100Z"/>
</svg>
