<svg id="Ebene_1" data-name="Ebene 1" xmlns="http://www.w3.org/2000/svg" width="1000" height="1000" viewBox="0 0 1000 1000">
  <path d="M942.19,482.42q7.81,7.81,7.81,18a27.94,27.94,0,0,1-6.25,18l-32.81,37.5q-7.82,7.82-18,7.81a27.94,27.94,0,0,1-18-6.25L517.19,241.8a26.76,26.76,0,0,0-34.38,0L125,557.42a27.94,27.94,0,0,1-18,6.25q-10.16,0-18-7.81l-32.81-37.5a27.94,27.94,0,0,1-6.25-18q0-10.15,7.81-18l400-353.12q18.75-15.63,42.19-15.63t42.19,15.63L700,269.92V188.67q0-10.93,7-18t18-7H825q10.93,0,18,7t7,18v212.5ZM500,293.36l342.19,300q9.38,9.38,9.37,7.81L850,599.61V888.67q0,10.94-7,18t-18,7H175q-10.94,0-18-7t-7-18V599.61Q101.57,644.93,500,293.36ZM648.44,698.05Q676.57,668.37,675,627t-34.38-68q-28.11-23.43-64.84-20.31t-61.72,29.69L500,582.42l-14.06-14.06q-25-26.57-62.5-29.69T359.38,559Q326.56,585.55,325,627t26.56,71.1L484.38,832.42a22.64,22.64,0,0,0,31.24,0Z"/>
</svg>
