<svg id="Ebene_1" data-name="Ebene 1" xmlns="http://www.w3.org/2000/svg" width="1000" height="1000" viewBox="0 0 1000 1000">
  <g id="Gruppe_591" data-name="Gruppe 591">
    <path id="Pfad_55" data-name="Pfad 55" d="M376.75,378.66a458,458,0,0,1-197.29,40.12,332.15,332.15,0,0,1,93.43-202.2,306.09,306.09,0,0,1,206.79-82.43,194.6,194.6,0,0,0-4.57-88.78,36.35,36.35,0,0,1,2-33.52A26.76,26.76,0,0,1,503.84.39a23.27,23.27,0,0,1,21.9,16.15,249.53,249.53,0,0,1,12.53,106c-.27,2.43-.39,4.86-.44,7.3,0,1.68.2,3.33.34,5.57,91.51,8.9,168.92,43.79,222.91,121.18a348.37,348.37,0,0,1,59.46,163.76A489.21,489.21,0,0,1,624.1,379c-7.54,10.08-14.59,20.49-22.67,30.1a307.22,307.22,0,0,1-96,74.37,16.26,16.26,0,0,1-12.9-1A288.17,288.17,0,0,1,376.75,378.66Z"/>
    <path id="Pfad_56" data-name="Pfad 56" d="M801,568.16a181.12,181.12,0,0,1-27.76,92.46A15.21,15.21,0,0,1,756.63,669,177.75,177.75,0,0,1,641.55,612.3,207.25,207.25,0,0,1,588,503.67a14.32,14.32,0,0,1,4.21-10.56Q615.08,471,638.82,449.8A12.59,12.59,0,0,1,648.9,447a595.22,595.22,0,0,0,121.91,25.18,14.61,14.61,0,0,1,9.51,7.44A204.8,204.8,0,0,1,801,568.16Z"/>
    <path id="Pfad_57" data-name="Pfad 57" d="M199.48,571.06a204.91,204.91,0,0,1,20.68-91.46,15.56,15.56,0,0,1,10.51-7.54A532.65,532.65,0,0,0,348.4,447.3a12.15,12.15,0,0,1,14.94,3.55c14.36,14.6,30,27.95,44.84,42.16a13.37,13.37,0,0,1,4.28,9.73c-11.87,74.16-69.17,152.91-158.7,164.47-23.21,3-19.29,5.89-32.19-16.45A170,170,0,0,1,199.48,571.06Z"/>
    <path id="Pfad_58" data-name="Pfad 58" d="M465.94,528.51a47.88,47.88,0,0,0,67.7,1c.56-.54,1.11-1.1,1.64-1.66,2.84,9.34,4.86,16.83,7.3,24.13a290.26,290.26,0,0,0,46.49,85,18.27,18.27,0,0,1,4,12.72,173.3,173.3,0,0,1-84,122.77,14.91,14.91,0,0,1-17.74,0A174,174,0,0,1,407,648.67a13,13,0,0,1,2.14-9.42,285.27,285.27,0,0,0,54.42-106.83A26,26,0,0,1,465.94,528.51Z"/>
    <path id="Pfad_59" data-name="Pfad 59" d="M561.19,803a228.91,228.91,0,0,0,80.11-117.8A257.51,257.51,0,0,0,720.11,719a9.22,9.22,0,0,1,5.45,6.69,181,181,0,0,1-62.85,151.54c-5.2,4.63-9.31,2.44-13.86.59A183,183,0,0,1,561.19,803Z"/>
    <path id="Pfad_60" data-name="Pfad 60" d="M439.15,803a185.21,185.21,0,0,1-87.58,75,13.21,13.21,0,0,1-16.23-2.82,181.06,181.06,0,0,1-60.53-148.41c0-2.63,2.55-7,4.62-7.44A254.86,254.86,0,0,0,359,685.29,229,229,0,0,0,439.15,803Z"/>
    <path id="Pfad_61" data-name="Pfad 61" d="M584.16,907.66c-1.32,3.48-2,5.76-3,7.93a176.93,176.93,0,0,1-72.45,81.62,14.39,14.39,0,0,1-17,0A179.3,179.3,0,0,1,419,915.71a9.73,9.73,0,0,1,2.66-13.5,10,10,0,0,1,1.5-.83,223,223,0,0,0,59.54-63.26c3.26-5.18,6.13-7.56,12.16-4.28a10.33,10.33,0,0,0,8.42.66c7.57-4.24,11.12-1.32,15.33,5.3a225.55,225.55,0,0,0,57.46,61C579.05,903,581.62,905.49,584.16,907.66Z"/>
  </g>
</svg>
