<svg id="Ebene_1" data-name="Ebene 1" xmlns="http://www.w3.org/2000/svg" width="1000" height="1000" viewBox="0 0 1000 1000">
  <path d="M500,126.17q104.68,0,193.75,52.35a391.61,391.61,0,0,1,141.41,141.4Q887.49,409,887.5,513.67T835.16,707.42q-52.35,89.07-141.41,141.41T500,901.17q-104.69,0-193.75-52.34T164.84,707.42Q112.5,618.37,112.5,513.67t52.34-193.75a391.61,391.61,0,0,1,141.41-141.4Q395.31,126.17,500,126.17Zm87.5,568.75v-37.5a18.68,18.68,0,0,0-18.75-18.75H550V482.42a18.68,18.68,0,0,0-18.75-18.75h-100a18.68,18.68,0,0,0-18.75,18.75v37.5a18.68,18.68,0,0,0,18.75,18.75H450v100H431.25a18.68,18.68,0,0,0-18.75,18.75v37.5a18.68,18.68,0,0,0,18.75,18.75h137.5a18.68,18.68,0,0,0,18.75-18.75ZM500,298.05q-26.56,0-46.09,19.53t-19.53,46.09q0,26.57,19.53,46.1T500,429.3q26.57,0,46.09-19.53t19.53-46.1q0-26.57-19.53-46.09T500,298.05Z"/>
</svg>
