<svg id="Ebene_1" data-name="Ebene 1" xmlns="http://www.w3.org/2000/svg" width="1000" height="1000" viewBox="0 0 1000 1000">
  <g id="Gruppe_253" data-name="Gruppe 253">
    <g id="INSTAGRAM" style="isolation: isolate">
      <g style="isolation: isolate">
        <path d="M996.48,718.09c-4,80.09-22.3,151-80.75,209.48-58.45,58.67-129.39,77-209.49,80.76-82.54,4.68-329.95,4.68-412.49,0-80.09-4-150.81-22.31-209.48-80.76S7.3,798.18,3.51,718.09c-4.68-82.54-4.68-330,0-412.49,4-80.09,22.09-151,80.76-209.49S213.88,19.37,293.75,15.58c82.54-4.69,330-4.69,412.49,0,80.1,4,151,22.31,209.49,80.76,58.67,58.44,77,129.39,80.75,209.48C1001.17,388.36,1001.17,635.55,996.48,718.09ZM909.93,512c0-72.72,6-228.89-20.08-294.7-17.62-43.95-51.31-77.63-95-95-65.59-25.87-222-20.07-294.7-20.07s-228.89-6-294.7,20.07c-43.95,17.63-77.64,51.32-95,95-25.88,65.59-20.08,222-20.08,294.7s-6,228.89,20.08,294.71c17.63,43.94,51.31,77.63,95,95,65.59,25.88,222,20.08,294.7,20.08s228.89,6,294.7-20.08c44-17.62,77.64-51.31,95-95C916,741.07,909.93,584.68,909.93,512Zm-153.49,0A256.33,256.33,0,1,1,500.11,255.62,255.92,255.92,0,0,1,756.44,512Zm-89.68,0C666.76,420,592,345.3,500.11,345.3S333.46,420,333.46,512s75,166.65,166.65,166.65S666.76,603.86,666.76,512Zm100.17-207a59.79,59.79,0,1,1,59.78-59.78A59.64,59.64,0,0,1,766.93,304.92Z"/>
      </g>
    </g>
  </g>
</svg>
