<svg id="Ebene_1" data-name="Ebene 1" xmlns="http://www.w3.org/2000/svg" width="1000" height="1000" viewBox="0 0 1000 1000">
  <path d="M775,463.67q31.25,0,53.12,21.88T850,538.67v300q0,31.26-21.88,53.13T775,913.67H225q-31.25,0-53.12-21.87T150,838.67v-300q0-31.24,21.88-53.12T225,463.67h37.5V351.17q0-64.07,32-118.75a238.7,238.7,0,0,1,86.72-86.72q54.69-32,118.75-32t118.75,32a238.7,238.7,0,0,1,86.72,86.72q32,54.69,32,118.75v112.5Zm-162.5,0V351.17q0-46.87-32.81-79.69T500,238.67q-46.87,0-79.69,32.81T387.5,351.17v112.5Z"/>
</svg>
