<svg id="Ebene_1" data-name="Ebene 1" xmlns="http://www.w3.org/2000/svg" width="1000" height="1000" viewBox="0 0 1000 1000">
  <path d="M348.44,251.17a37.71,37.71,0,0,1,53.12,0l237.5,235.94a37.71,37.71,0,0,1,0,53.12L401.56,776.17a37.71,37.71,0,0,1-53.12,0L314.06,741.8q-10.94-12.51-10.94-28.13t12.5-26.56L437.5,576.17h-300a37.35,37.35,0,0,1-37.5-37.5v-50a37.35,37.35,0,0,1,37.5-37.5h300L315.62,340.23a34.83,34.83,0,0,1-12.5-27.34q0-16.41,10.94-27.34ZM900,363.67q0-62.49-43.75-106.25T750,213.67H618.75A18.68,18.68,0,0,0,600,232.42v62.5a18.68,18.68,0,0,0,18.75,18.75H750q20.31,0,35.16,14.85T800,363.67v300q0,20.31-14.84,35.16T750,713.67H618.75A18.68,18.68,0,0,0,600,732.42v62.5a18.68,18.68,0,0,0,18.75,18.75H750q62.5,0,106.25-43.75T900,663.67Z"/>
</svg>
