<svg id="Ebene_1" data-name="Ebene 1" xmlns="http://www.w3.org/2000/svg" width="1000" height="1000" viewBox="0 0 1000 1000">
  <path d="M364.06,748.05q-78.12-112.5-103.12-151.57Q225,540.23,212.5,502T200,413.67q0-81.24,40.62-150A305.82,305.82,0,0,1,350,154.3q68.75-40.64,150-40.63T650,154.3A305.82,305.82,0,0,1,759.38,263.67Q800,332.43,800,413.67q0,50-12.5,88.28t-48.44,94.53q-25,39.07-103.12,151.57l-104.69,150Q520.32,913.67,500,913.67t-31.25-15.62Q428.13,838.67,364.06,748.05ZM588.28,502Q625,465.23,625,413.67t-36.72-88.28Q551.56,288.67,500,288.67t-88.28,36.72Q375,362.11,375,413.67T411.72,502q36.72,36.72,88.28,36.72T588.28,502Z"/>
</svg>
