<svg id="Ebene_1" data-name="Ebene 1" xmlns="http://www.w3.org/2000/svg" width="1000" height="1000" viewBox="0 0 1000 1000">
  <path d="M950,790.23a75,75,0,0,1-75,75H125a75,75,0,0,1-75-75v-550a75,75,0,0,1,75-75H875a75,75,0,0,1,75,75ZM366.41,674.77a217.89,217.89,0,0,0,119.53-36.1C372,546,372.81,371.17,485.94,278.52a216.59,216.59,0,0,0-119.53-36.1C247,242.27,150,339.3,150,458.36,150,577.89,247,674.77,366.41,674.77ZM254.69,724.61c-7.19,0-14.85,2.19-20,10.16-3.75-6.41-10.16-10.16-19.07-10.16a19.85,19.85,0,0,0-16.56,8.44v-6.88H186.25v57.35h12.81c0-29.54-3.9-47.19,14.06-47.19,15.94,0,12.82,15.94,12.82,47.19h12.34c0-28.6-3.9-47.19,14.06-47.19,15.94,0,12.82,15.62,12.82,47.19H278V747.58h-.31C277.66,734,268.75,725.08,254.69,724.61Zm80.78,1.56v6.88a22.52,22.52,0,0,0-18.28-8.44c-16.1,0-28.44,12.81-28.44,30.16s12.34,30.15,28.44,30.15c8.12,0,14.06-3,18.28-8.44v7.19h12.34v-57.5Zm.47,28.6c0,10.62-6.88,18.28-17,18.28-11.1,0-17.5-8.13-17.5-18.28s6.4-18.29,17.5-18.29C329.06,736.48,335.78,744.61,335.94,754.77Zm39.37-12.35c0-8.9,18.6-7.5,28.91-1.72l5.16-10.15c-14.69-9.53-47.19-9.38-47.19,12.81S398,756.33,398,766.8c0,9.84-21.09,9.06-32.35,1.25l-5.46,9.84c17.5,11.88,50.93,9.38,50.93-11.72C411.09,742.73,375.31,753.36,375.31,742.42ZM500,288.52c-109.69,86.4-110.16,254.06,0,339.84C610.16,542.42,609.69,374.92,500,288.52ZM463,770.08c-5.94,3.28-19.06,6.87-19.06-6.41V737.73h20.47V726.17H443.91v-17.5H431.09v17.5H419.22v11.41h11.87v26.09c0,27.5,27,22.5,35.32,17Zm67.19-10.31c0-25.32-11.57-35.32-27.19-35.32-16.56,0-28.44,12.35-28.44,30.16,0,32,35.31,37.34,52.81,22.19l-5.93-9.38c-12.19,10-30.63,9.06-34.22-7.65ZM517.5,749.61H487.66c1.25-8.13,6.4-13.59,14.84-13.59C510.62,736,516.09,740.7,517.5,749.61ZM633.59,242.27a217.88,217.88,0,0,0-119.53,36.09c112.66,92.66,114.38,268,0,360.16a217.44,217.44,0,0,0,119.53,36.09C753,674.77,850,577.89,850,458.36,850,339.3,753,242.27,633.59,242.27ZM555.78,733.05v-6.88H543v57.35h12.81V751.17c0-18.12,14.84-15.78,20-13.12l3.75-11.88C572.34,723.05,561.41,723.36,555.78,733.05Zm72.66,8.59,5.94-10.16c-18.13-14.21-51.1-6.4-51.1,23.44,0,30.94,35,37.19,51.1,23.44l-5.94-10.16c-14.38,10.16-32.35,4.07-32.35-13.43C596.09,737,614.22,731.17,628.44,741.64Zm59.06-15.47v6.88c-13-17.19-46.72-7.5-46.72,21.72,0,30,35,38.59,46.72,21.71v7.19h12.81v-57.5Zm.94,28.6c0,10.62-6.88,18.28-17.5,18.28s-17-8.13-17-18.28,6.4-18.29,17-18.29S688.44,744.61,688.44,754.77Zm40.78-21.72v-6.88H716.88v57.35h12.34V751.17c0-17.19,14.06-16.09,20-13.12L753,726.17C749.22,724.3,735.78,721.64,729.22,733.05Zm74.37-30.16v30.16c-12.81-17-46.71-8-46.71,21.72,0,30.31,35.15,38.43,46.71,21.71v7.19h12.35V702.89ZM787,773.05c-10.62,0-17.5-8.13-17.5-18.28s6.88-18.29,17.5-18.29c10.31,0,17.5,8.13,17.5,18.29C804.53,765.39,797.34,773.05,787,773.05Zm40.78-180.32h1.25v-7.18h3V584.3h-7.19v1.25h3Zm9.85,183.75c-.47-.46-.78-1.25-1.25-1.71s-1.25-.79-1.72-1.25c-.78,0-1.72-.47-2.5-.47a16.57,16.57,0,0,1-2.19.47,7.89,7.89,0,0,0-1.72,1.25,2.44,2.44,0,0,0-1.25,1.71,4.77,4.77,0,0,0-.47,2.5,4.54,4.54,0,0,0,.47,2.19,2.45,2.45,0,0,0,1.25,1.72,5.41,5.41,0,0,0,1.72,1.25,4.24,4.24,0,0,0,2.19.47,4.75,4.75,0,0,0,2.5-.47c.47-.47,1.25-.78,1.72-1.25s.78-1.25,1.25-1.72a4.63,4.63,0,0,0,.46-2.19A4.86,4.86,0,0,0,837.66,776.48Zm-.78,2.5c0,.47-.47.79-.47,1.72a5.76,5.76,0,0,0-.79,1.25,2,2,0,0,1-1.71.78c-.47.47-.79.47-1.72.47a3.1,3.1,0,0,1-1.72-.47c-.47,0-.78-.46-1.25-.78-.47-.47-.78-.78-.78-1.25A2.84,2.84,0,0,1,828,779c0-.78,0-1.25.47-1.71a2.93,2.93,0,0,1,.78-1.72,5.35,5.35,0,0,1,1.25-.78,2.84,2.84,0,0,1,1.72-.47c.78,0,1.25,0,1.72.47.78.46,1.25.46,1.71.78s.32.93.79,1.72C836.41,777.73,836.88,778.05,836.88,779Zm-2.66,0a1.41,1.41,0,0,0,.47-1.25,1.43,1.43,0,0,0-.47-1.25c-.47,0-.78-.46-1.72-.46H830v5.46h1.25V779.3h.47l1.72,2.18h1.25l-1.72-2C833.75,779.45,833.75,779,834.22,779Zm6.72-194.84-2.5,5.47-2.5-5.47h-2.19v8.44H835v-6.41l2.5,5.47h1.72l2.19-5.47v6.41h1.71v-8.44Z"/>
</svg>
