<svg id="Ebene_1" data-name="Ebene 1" xmlns="http://www.w3.org/2000/svg" width="1000" height="1000" viewBox="0 0 1000 1000">
  <path d="M950,788.67a75,75,0,0,1-75,75H125a75,75,0,0,1-75-75v-550a75,75,0,0,1,75-75H875a75,75,0,0,1,75,75ZM196.25,406.48h-62.5a8.27,8.27,0,0,0-8.13,7.35L100,573.36c-.47,3.12,1.88,6.25,5,6.25h29.69c4.22,0,8.12-4.53,8.59-8.91l7-41.56c1.57-11.25,20.63-7.34,28.13-7.34,44.68,0,72-26.57,72-71.57C250.47,417.42,225.16,406.48,196.25,406.48Zm6.87,58.13c-3.12,19.84-16.4,22.19-33.59,22.19l-12.81.46,6.72-41.71a4.89,4.89,0,0,1,5-4.22h7.34C193.44,441.33,206.72,443.67,203.12,464.61ZM352.34,464c-5.93,0-6.25,8.6-6.56,12.82-9.06-13.28-22.19-15.63-37-15.63-38.28,0-67.5,33.6-67.5,70.63,0,30.46,19.06,50.31,49.53,50.31,14.06,0,31.56-7.66,41.41-18.59a41.77,41.77,0,0,0-1.57,9.68c0,3.6,1.57,6.25,5,6.25H362.5c4.22,0,7.81-4.53,8.59-8.9L387,470.08a5.32,5.32,0,0,0-5-6.1ZM306.72,550.7c-14.38,0-25-8.12-25-23.43,0-19.07,14.84-34.38,33.9-34.38,14.54,0,25.47,8.91,25.47,24.22C341.09,536.17,325.94,550.7,306.72,550.7Zm238.12-78.43a3.23,3.23,0,0,0,.78-2.66c0-2.66-2.34-5.47-5-5.47h-30a8.85,8.85,0,0,0-7,3.91L462.19,529,445,470.39a9.48,9.48,0,0,0-8.59-6.25H407.19c-2.66,0-5,2.81-5,5.47,0,1.87,30.47,88.75,33.12,97-4.22,5.94-32,44.69-32,49.38a5,5,0,0,0,5,5h30a9.2,9.2,0,0,0,7-4.07ZM640,406.48H578a8.6,8.6,0,0,0-8.59,7.35L544.06,573.2c-.31,3.13,2,6.25,5,6.25h32a6.69,6.69,0,0,0,6.25-5l7-45.31c1.56-11.25,20.62-7.34,28.12-7.34,44.38,0,71.72-26.57,71.72-71.57C694.22,417.42,668.91,406.48,640,406.48Zm7.81,52.19c0,23.44-14.06,28.13-34.37,28.13l-12.5.46,6.56-41.71c.31-2.66,2.19-4.22,5-4.22h7C632.81,441.33,647.66,442.11,647.81,458.67ZM796.09,464c-5.93,0-6.25,8.6-6.71,12.82-8.6-13.28-21.88-15.63-37-15.63-38.28,0-67.5,33.6-67.5,70.63,0,30.46,19.07,50.31,49.54,50.31,14.53,0,32-7.66,41.4-18.59-.47,2.34-1.56,7.34-1.56,9.68,0,3.6,1.56,6.25,5,6.25h27c4.22,0,7.81-4.53,8.59-8.9l15.94-100.47a5.32,5.32,0,0,0-5-6.1Zm-11.4,53.13c0,19.22-15.16,33.59-33.91,33.59-14.37,0-25.31-8.28-25.31-23.43,0-19.22,14.84-34.38,33.91-34.38C773.91,492.89,784.84,501.8,784.69,517.11ZM895,406.48H866.09a5.2,5.2,0,0,0-5,4.22L835.78,573.2l-.47.78a5.54,5.54,0,0,0,5.47,5.47h25.78c3.91,0,7.82-4.53,8.13-8.9L900,412.42V412A5.25,5.25,0,0,0,895,406.48Z"/>
</svg>
