<svg id="Ebene_1" data-name="Ebene 1" xmlns="http://www.w3.org/2000/svg" width="1000" height="1000" viewBox="0 0 1000 1000">
  <path d="M773.47,791.62a23.35,23.35,0,0,1-9.84,17.23A31.18,31.18,0,0,1,745.17,815q-155,0-287.93-77.52Q328,661.19,251.75,532,174.23,399.1,174.23,244.06a31.1,31.1,0,0,1,6.16-18.45,23.31,23.31,0,0,1,17.22-9.85l128-29.53a27.79,27.79,0,0,1,19.69,2.46,26.47,26.47,0,0,1,13.53,14.77l59.07,137.81a31.25,31.25,0,0,1,1.84,18.46,24.68,24.68,0,0,1-10.46,16L335.42,436A432.5,432.5,0,0,0,425.25,564.6a452.1,452.1,0,0,0,128,89.21L614.74,580a29.46,29.46,0,0,1,15.38-9.84,30.69,30.69,0,0,1,19.07,1.23L787,630.43q8.61,3.69,13.53,13.53A27.79,27.79,0,0,1,803,663.65Z"/>
</svg>
