<svg id="Ebene_1" data-name="Ebene 1" xmlns="http://www.w3.org/2000/svg" width="1000" height="1000" viewBox="0 0 1000 1000">
  <path d="M970.31,198.05a48.11,48.11,0,0,1,21.88,18.75,51.92,51.92,0,0,1,7.81,28.12V740.23q0,21.88-14.84,35.94A49.39,49.39,0,0,1,950,790.23a54.83,54.83,0,0,1-17.19-3.12Q865.63,766.8,789.06,766.8q-64.06,0-145.31,14.06Q596.88,790.24,500,814.45t-143.75,33.6Q275,863.67,210.94,863.67q-98.44,0-181.25-34.37A48.23,48.23,0,0,1,7.81,810.55,52,52,0,0,1,0,782.42V287.11q0-21.87,14.84-35.94A49.44,49.44,0,0,1,50,237.11a54.83,54.83,0,0,1,17.19,3.12q67.19,20.33,143.75,20.32,64.07,0,145.31-14.07,46.88-9.37,143.75-33.59T643.75,179.3Q725,163.67,789.06,163.67,887.51,163.67,970.31,198.05ZM75,319.92v95.31q35.94,0,63.28-23.43T173.44,334Q117.19,330.86,75,319.92Zm0,445.31a388.45,388.45,0,0,0,100,21.88q-1.56-40.62-30.47-68.75T75,690.23ZM500,663.67q51.57,0,88.28-43.75T625,513.67q0-62.5-36.72-106.25T500,363.67q-51.57,0-88.28,43.75T375,513.67q0,62.51,36.72,106.25T500,663.67Zm425-325V262.11a335.33,335.33,0,0,0-87.5-20.31q1.56,37.5,26.56,64.84T925,338.67Zm0,368.75V616.8a102.87,102.87,0,0,0-54.69,25.78q-23.43,21.09-29.69,50.78Q889.07,698,925,707.42Z"/>
</svg>
