<svg id="Ebene_1" data-name="Ebene 1" xmlns="http://www.w3.org/2000/svg" width="1000" height="1000" viewBox="0 0 1000 1000">
  <path d="M875,713.67q10.93,0,18,7t7,18v50q0,10.94-7,18t-18,7H125q-10.94,0-18-7t-7-18v-50q0-10.93,7-18t18-7ZM550,318.36q84.38,10.93,153.12,60.16A348.83,348.83,0,0,1,810.94,502.73Q850,577.73,850,663.67H150q0-85.93,39.06-160.94A348.83,348.83,0,0,1,296.88,378.52Q365.63,329.29,450,318.36V288.67H425q-10.94,0-18-7t-7-18v-25q0-10.93,7-18t18-7H575q10.93,0,18,7t7,18v25q0,10.93-7,18t-18,7H550Z"/>
</svg>
