<svg id="Ebene_1" data-name="Ebene 1" xmlns="http://www.w3.org/2000/svg" width="1000" height="1000" viewBox="0 0 1000 1000">
  <path d="M889.06,805.86a37.71,37.71,0,0,1,0,53.12l-43.75,43.75a37.71,37.71,0,0,1-53.12,0L635.94,746.48A36.16,36.16,0,0,1,625,719.92v-25q-87.5,68.76-200,68.75-89.07,0-163.28-43.75a328.33,328.33,0,0,1-118-118Q100,527.73,100,438.67t43.75-163.28a328.4,328.4,0,0,1,118-118Q335.94,113.68,425,113.67t163.28,43.75a328.4,328.4,0,0,1,118,118Q750,349.61,750,438.67q0,112.5-68.75,200h25a36.16,36.16,0,0,1,26.56,10.94ZM425,638.67q54.69,0,100.78-26.56a194.6,194.6,0,0,0,72.66-72.66Q625,493.36,625,438.67T598.44,337.89a194.6,194.6,0,0,0-72.66-72.66Q479.69,238.68,425,238.67T324.22,265.23a194.6,194.6,0,0,0-72.66,72.66Q225,384,225,438.67t26.56,100.78a194.6,194.6,0,0,0,72.66,72.66Q370.31,638.68,425,638.67Z"/>
</svg>
