<svg id="Ebene_1" data-name="Ebene 1" xmlns="http://www.w3.org/2000/svg" width="1000" height="1000" viewBox="0 0 1000 1000">
  <g id="pointed-star">
    <path id="Pfad_1812" data-name="Pfad 1812" d="M640.49,388.93a29.31,29.31,0,0,1-26.23-18.24L506.15,51.88c-3.42-10-8.95-10-12.37,0L385.67,370.69a29.31,29.31,0,0,1-26.23,18.24H9.56c-11.06,0-12.77,5.05-3.83,11.27l283.1,197a27.32,27.32,0,0,1,10,29.5L190.68,945.48c-3.41,10,1.1,13.18,10,6.83l283.09-197a30.43,30.43,0,0,1,32.38,0L799.07,952.45c8.95,6.21,13.66,3.07,10-6.83l-108-319a27.33,27.33,0,0,1,10-29.5l283.1-197c8.94-6.21,7.23-11.27-3.83-11.27h-350Z"/>
  </g>
</svg>
