<svg id="Ebene_1" data-name="Ebene 1" xmlns="http://www.w3.org/2000/svg" width="1000" height="1000" viewBox="0 0 1000 1000">
  <g>
    <path d="M517.86,0c1.27.71,2.48,1.87,3.83,2.07,5.62.79,11.4.8,16.9,2,5.81,1.32,11.38,3.68,17,5.63,5.35,1.85,10.76,3.59,16,5.72a61.76,61.76,0,0,1,8.13,4.6c5,3,10.11,5.79,14.92,9.05A112.37,112.37,0,0,1,605.81,38q7.76,6.88,15.17,14.16a167.45,167.45,0,0,1,11.76,12.52c2.32,2.8,3.85,6.25,5.85,9.34,2.52,3.9,5.24,7.68,7.72,11.61.76,1.2.9,2.79,1.53,4.1,3.21,6.79,7.25,13.19,8.7,20.78A62.62,62.62,0,0,0,660.33,123c6.65,15.63,6,32.11,6,48.52q0,193.61-.11,387.2c0,4.21,2.21,6.47,4.57,9,2.07,2.19,4.43,4.1,6.56,6.23,3.86,3.87,7.71,7.75,11.43,11.76,2.06,2.22,3.85,4.7,5.75,7.07,2.77,3.46,5.66,6.83,8.27,10.4,1.94,2.67,3.46,5.63,5.24,8.41,3.32,5.2,7,10.18,10,15.57,3.28,6,5.79,12.44,8.81,18.6,2.49,5.07,5.32,10,7.8,15a31.28,31.28,0,0,1,1.61,5.69c1.4,5.2,2.87,10.39,4.17,15.62,1.39,5.62,2.07,11.47,4,16.87,3.21,8.94,2.15,18.42,4.09,27.34,3,13.67,1.43,27.25,1.38,40.84,0,7.41-2,14.82-3.12,22.23-.08.5-.07,1-.16,1.52-1.4,7.83-2.47,15.73-4.33,23.45-1.22,5.1-3.64,9.91-5.41,14.89-.74,2.1-.94,4.41-1.8,6.44-2.59,6.07-5.44,12-8.07,18.07-.49,1.12-.19,2.61-.72,3.7-2.95,6.05-5.69,12.25-9.17,18s-7.67,10.76-11.41,16.21c-1.73,2.52-3,5.34-4.7,7.89a57.85,57.85,0,0,1-4,4.92c-1.93,2.34-3.8,4.74-5.85,7q-5.34,5.82-10.88,11.46c-3.76,3.83-7.63,7.56-11.49,11.29-2.06,2-4.2,3.91-6.34,5.82-3.57,3.16-7,6.55-10.8,9.37-4.57,3.38-9.54,6.22-14.27,9.39-3.61,2.42-7.08,5-10.68,7.46a29.59,29.59,0,0,1-3.06,1.23c-6.3,3.26-12.26,7.07-19.16,9.32-5.29,1.72-10,5.18-15.06,7.67-1.52.75-3.37.8-5.05,1.27-5.28,1.45-10.53,3.07-15.85,4.4-5.86,1.47-12,2.12-17.62,4.16-8.33,3-16.89,3.22-25.49,3.77-1.3.08-2.52,1.31-3.77,2H478.87c-1-.69-1.95-1.86-3-2-7.17-.77-14.38-1.12-21.52-2a100.31,100.31,0,0,1-11.87-2.72c-6.07-1.54-12.21-2.92-18.17-4.82-5-1.58-9.75-3.79-14.6-5.77q-4.62-1.87-9.19-3.86c-5.2-2.25-10.59-4.17-15.53-6.89-8.5-4.68-16.89-9.61-25-14.93a198.39,198.39,0,0,1-18.54-13.88c-5.27-4.39-10-9.4-15-14.14-3.74-3.56-7.63-7-11.17-10.71-3.1-3.28-5.83-6.92-8.67-10.45-1.48-1.83-2.84-3.75-4.27-5.63-2.26-3-4.64-5.82-6.77-8.86-3.94-5.62-7.87-11.24-11.53-17a103.83,103.83,0,0,1-6-11.34c-2.41-5.13-4.6-10.36-6.84-15.57-2.75-6.39-6.25-12.4-7.57-19.47-1-5.12-3.61-9.9-5.3-14.9a50.37,50.37,0,0,1-1.44-7c-1-5.23-2.12-10.44-2.82-15.7-.81-6.13-.42-12.52-2-18.43-3.54-13.7-1.52-27.49-1.48-41.22,0-7.41,2-14.81,3.14-22.22.05-.38,0-.76.11-1.14,1.41-7.94,2.5-16,4.36-23.79,1.21-5.12,3.57-10,5.35-15,.66-1.86,1-3.84,1.71-5.67,1.87-4.78,3.87-9.5,5.81-14.24,1.49-3.64,2.49-7.58,4.55-10.86,4-6.43,6.34-13.74,11.38-19.69,3.91-4.62,6.46-10.38,9.83-15.49,2.1-3.18,4.55-6.13,6.92-9.12q2.63-3.33,5.46-6.48c3.84-4.26,7.68-8.54,11.65-12.68,4.21-4.4,8.68-8.56,12.8-13,.74-.81.44-2.67.44-4.05q0-80.25,0-160.5.06-122.67.24-245.34a110.42,110.42,0,0,1,1.71-18.5c.72-4.13,2.74-8,4-12.05.68-2.12.9-4.38,1.54-6.52,1.32-4.42,2.52-8.89,4.25-13.15,1.61-4,3.82-7.74,5.81-11.58,2.18-4.2,4.12-8.55,6.68-12.5,3.42-5.29,7.21-10.35,11.06-15.36a154.94,154.94,0,0,1,10.2-12.22c3.45-3.63,7.34-6.84,11.09-10.19q3.53-3.15,7.18-6.15a100.66,100.66,0,0,1,8.8-7A118.63,118.63,0,0,1,420,20.66c5-2.39,9.43-5.65,15-7.15,6.56-1.8,12.67-5.3,19.25-7,7.93-2,16.16-2.88,24.22-4.42,1.49-.28,2.83-1.38,4.24-2.1Zm66.32,381.1c0-37.71.46-75.43-.13-113.14-.6-38.07,2.73-76.23-2-114.21a82.4,82.4,0,0,0-4.67-18.83c-2-5.39-4.49-10.73-8.68-15.16-4.88-5.16-8.43-11.74-13.78-16.26-6-5.1-13.4-8.67-20.28-12.74-1.24-.74-3.27-.29-4.36-1.14-5-3.87-11.16-5-16.92-5.19-14.71-.5-29.46-2.11-43.67,5.19-5.89,3-12,5.92-17.87,9.08a24.08,24.08,0,0,0-6.6,5.17c-4.69,5.33-9.23,10.81-13.52,16.47a62.62,62.62,0,0,0-7.57,12,73.16,73.16,0,0,0-4.26,14.25c-1.79,8.19-3.51,16.38-3.51,24.87q.1,211.38.07,422.75c0,4,.25,7.51-3.74,10.41-4.85,3.53-8.94,8.1-13.41,12.15-3.92,3.56-8,6.9-11.85,10.57-3.08,3-5.53,6.64-8.81,9.33-4.61,3.77-7.94,8.49-11.39,13.17q-3.09,4.21-5.94,8.6c-2.67,4.12-5.49,8.17-7.76,12.5a147.11,147.11,0,0,0-5.89,13.49q-3.6,8.91-6.93,17.91c-.51,1.39-.26,3.06-.71,4.49-1.2,3.77-3.27,7.39-3.78,11.23a204.66,204.66,0,0,0-1.84,24.22c-.21,17.62-1.06,35.31,5.83,52.23,1.62,4,1.76,8.48,3.89,12.51s3.11,8.5,4.63,12.77a22,22,0,0,0,1.68,4.06c2.52,4.18,5.2,8.27,7.75,12.44,1.87,3,3.22,6.48,5.54,9.1,4.22,4.77,6.57,11,11.95,14.86,1.55,1.1,2.52,3,3.9,4.36,3.66,3.69,7.28,7.42,11.13,10.91,2.28,2.07,5,3.68,7.44,5.55,3.17,2.4,6.18,5,9.48,7.24a126.06,126.06,0,0,0,11.51,6.86c6.14,3.25,12.3,6.45,18.64,9.27A126,126,0,0,0,451.07,909c1.9.59,4,.57,5.87,1.18,3.76,1.21,7.36,3,11.18,3.94A42.88,42.88,0,0,0,479,915.57c15.48-.17,31-.48,46.43-1.07,4-.16,8-1.45,11.94-2.32s7.83-1.83,11.74-2.77a41.16,41.16,0,0,0,5.76-1.46c4.8-1.9,9.53-4,14.3-6a41,41,0,0,0,4.76-1.9c4.43-2.55,8.8-5.24,13.15-7.93,3-1.88,6.11-3.74,9-5.82s5.64-4.43,8.45-6.64,5.81-4.26,8.44-6.69c3.91-3.62,7.56-7.52,11.32-11.29,1.64-1.64,3.56-3.08,4.87-4.95,3.4-4.88,6.56-9.93,9.76-15,1.47-2.32,2.41-5.07,4.23-7,5.83-6.34,8-14.56,11.52-22,2-4.11,3-8.68,4.36-13,1.81-5.64,4-11.2,5.29-17A73.24,73.24,0,0,0,666,766.85c0-18,2.14-36.15-3.5-53.81-1.22-3.83-1.88-7.84-2.81-11.76a38.56,38.56,0,0,0-1.58-6.11c-1.73-4.08-4.08-7.92-5.56-12.08A81.05,81.05,0,0,0,645,667.81c-4.45-7.26-9-14.39-14-21.28-3.45-4.71-7.56-8.62-11.49-12.73-5-5.26-10.7-9.92-16.11-14.82-1.52-1.37-3.2-2.57-4.7-4-3.38-3.14-6.68-6.35-10-9.52-2.86-2.71-4.69-5.4-4.67-10C584.25,524.06,584.18,452.58,584.18,381.1Z"/>
    <path d="M458.8,334V626a13,13,0,0,1-.08,3.42c-.35,1.26-.85,2.9-1.82,3.49a77.8,77.8,0,0,1-8,3.8c-3.77,1.7-7.73,3.08-11.28,5.16a98.15,98.15,0,0,0-12.78,8.79c-6.3,5.19-12.66,10.43-18.24,16.36-3.92,4.17-5.94,10.19-10,14.16s-5.85,9.13-8.66,13.73c-.74,1.21-.62,2.91-1.23,4.23-1.72,3.74-4,7.29-5.36,11.15a97.36,97.36,0,0,0-3.81,14.19A76.29,76.29,0,0,0,375.9,738c-.17,13.79-1,27.55,3.2,41.17,1.81,5.93,2.93,12.09,5.53,17.79,2.39,5.25,4.65,10.58,7.32,15.67A77,77,0,0,0,399,823.76a145.2,145.2,0,0,0,11.09,12.79,142.74,142.74,0,0,0,12.44,11.27c2.85,2.3,6.23,3.94,9.35,5.92,4.24,2.68,8.41,5.48,12.72,8,1.43.86,3.28,1,4.82,1.7,3.73,1.77,7.25,4.06,11.1,5.46a80.68,80.68,0,0,0,14.22,3.81c7.13,1.18,14.35,2,21.56,2.53,5.07.37,10.19,0,15.28-.07a11.21,11.21,0,0,0,2.66-.22c5.18-1.34,10.35-2.7,15.51-4.14,5.64-1.56,11.37-2.9,16.85-4.92a112.18,112.18,0,0,0,14-6.65,102.54,102.54,0,0,0,12.84-7.79,122.58,122.58,0,0,0,12.48-11c4.31-4.25,8.44-8.72,12.33-13.36,2.19-2.61,3.29-6.22,5.67-8.57,5.56-5.48,8-12.7,11.45-19.3,2.1-4,3-8.7,4.25-13.14.74-2.64,1.08-5.4,1.73-8.07,1.31-5.45,3.74-10.85,3.85-16.31.21-9.6,2.09-19.34-1.49-28.89-1.38-3.69-.56-7.89-2.28-11.94-1.8-4.24-1.68-9.24-4-13.63-2-3.77-3-8.1-4.57-12.12a24.94,24.94,0,0,0-2.47-4.18c-2.24-3.47-4.5-6.94-6.82-10.37A116.87,116.87,0,0,0,596,669.86a155.76,155.76,0,0,0-11.68-12A121.62,121.62,0,0,0,572,647.27c-3.82-2.74-8.19-4.75-12.37-7-3.81-2-7.54-4.34-11.58-5.71-5.69-2-6.31-2.31-6.31-8.65V334Z" fill="#fff"/>
    <path d="M458.8,334h82.95v291.9c0,6.34.62,6.7,6.31,8.65,4,1.37,7.77,3.69,11.58,5.71,4.18,2.23,8.55,4.24,12.37,7a121.62,121.62,0,0,1,12.35,10.58,155.76,155.76,0,0,1,11.68,12,116.87,116.87,0,0,1,7.56,10.78c2.32,3.43,4.58,6.9,6.82,10.37a24.94,24.94,0,0,1,2.47,4.18c1.58,4,2.55,8.35,4.57,12.12,2.34,4.39,2.22,9.39,4,13.63,1.72,4,.9,8.25,2.28,11.94,3.58,9.55,1.7,19.29,1.49,28.89-.11,5.46-2.54,10.86-3.85,16.31-.65,2.67-1,5.43-1.73,8.07-1.26,4.44-2.15,9.12-4.25,13.14-3.46,6.6-5.89,13.82-11.45,19.3-2.38,2.35-3.48,6-5.67,8.57-3.89,4.64-8,9.11-12.33,13.36a122.58,122.58,0,0,1-12.48,11,102.54,102.54,0,0,1-12.84,7.79,112.18,112.18,0,0,1-14,6.65c-5.48,2-11.21,3.36-16.85,4.92-5.16,1.44-10.33,2.8-15.51,4.14a11.21,11.21,0,0,1-2.66.22c-5.09.07-10.21.44-15.28.07-7.21-.53-14.43-1.35-21.56-2.53a80.68,80.68,0,0,1-14.22-3.81c-3.85-1.4-7.37-3.69-11.1-5.46-1.54-.73-3.39-.84-4.82-1.7-4.31-2.56-8.48-5.36-12.72-8-3.12-2-6.5-3.62-9.35-5.92a142.74,142.74,0,0,1-12.44-11.27A145.2,145.2,0,0,1,399,823.76,77,77,0,0,1,392,812.61c-2.67-5.09-4.93-10.42-7.32-15.67-2.6-5.7-3.72-11.86-5.53-17.79-4.16-13.62-3.37-27.38-3.2-41.17a76.29,76.29,0,0,1,1.6-13.53,97.36,97.36,0,0,1,3.81-14.19c1.39-3.86,3.64-7.41,5.36-11.15.61-1.32.49-3,1.23-4.23,2.81-4.6,4.52-9.69,8.66-13.73s6.08-10,10-14.16c5.58-5.93,11.94-11.17,18.24-16.36a98.15,98.15,0,0,1,12.78-8.79c3.55-2.08,7.51-3.46,11.28-5.16a77.8,77.8,0,0,0,8-3.8c1-.59,1.47-2.23,1.82-3.49a13,13,0,0,0,.08-3.42V334Z"/>
  </g>
</svg>
