<svg id="Ebene_1" data-name="Ebene 1" xmlns="http://www.w3.org/2000/svg" width="1000" height="1000" viewBox="0 0 1000 1000">
  <path d="M850,663.67q0,39.06-28.12,74.22t-75,55.47q-46.89,20.31-100,20.31l98.43,78.13q6.26,4.68,3.91,13.28t-11.72,8.59h-475q-9.37,0-11.72-8.59t3.91-13.28l98.43-78.13q-53.12,0-100-20.31t-75-55.47Q150,702.73,150,663.67v-400q0-40.62,28.91-75t75-54.69A235.83,235.83,0,0,1,350,113.67H650A241.36,241.36,0,0,1,746.88,134q46.86,20.33,75,54.69t28.12,75Zm-75-362.5a37.35,37.35,0,0,0-37.5-37.5h-475a37.35,37.35,0,0,0-37.5,37.5v175a37.35,37.35,0,0,0,37.5,37.5h475a37.35,37.35,0,0,0,37.5-37.5ZM438.28,602q-25.78,25.78-25.78,61.72t25.78,61.72q25.79,25.79,61.72,25.78t61.72-25.78q25.78-25.78,25.78-61.72T561.72,602Q535.93,576.18,500,576.17T438.28,602Z"/>
</svg>
