<svg id="Ebene_1" data-name="Ebene 1" xmlns="http://www.w3.org/2000/svg" width="1000" height="1000" viewBox="0 0 1000 1000">
  <path d="M150,201.17a37.35,37.35,0,0,1,37.5-37.5h175L376.56,134a35.19,35.19,0,0,1,14.06-14.84,39.63,39.63,0,0,1,20.32-5.47H589.06a39.63,39.63,0,0,1,20.32,5.47A35.19,35.19,0,0,1,623.44,134l14.06,29.69h175a37.35,37.35,0,0,1,37.5,37.5v43.75a18.68,18.68,0,0,1-18.75,18.75H168.75A18.68,18.68,0,0,1,150,244.92Zm650,637.5q0,31.26-21.88,53.13T725,913.67H275q-31.25,0-53.12-21.87T200,838.67V332.42a18.68,18.68,0,0,1,18.75-18.75h562.5A18.68,18.68,0,0,1,800,332.42Zm-432-418q-7-7-18-7t-18,7q-7,7-7,18v350q0,10.94,7,18t18,7q10.94,0,18-7t7-18v-350Q375,427.74,368,420.7Zm150,0q-7-7-18-7t-18,7q-7,7-7,18v350q0,10.94,7,18t18,7q10.94,0,18-7t7-18v-350Q525,427.74,518,420.7Zm150,0q-7-7-18-7t-18,7q-7,7-7,18v350q0,10.94,7,18t18,7q10.93,0,18-7t7-18v-350Q675,427.74,668,420.7Z"/>
</svg>
