<svg id="Ebene_1" data-name="Ebene 1" xmlns="http://www.w3.org/2000/svg" width="1000" height="1000" viewBox="0 0 1000 1000">
  <path d="M270.31,543.36q-46.87,25-78.12,70.31a231.41,231.41,0,0,0-39.07,100H50q-20.31,0-35.16-14.84T0,663.67v-50q0-40.62,29.69-70.31T100,513.67H200Q240.62,513.67,270.31,543.36ZM150,463.67q-40.62,0-70.31-29.69T50,363.67Q50,323,79.69,293.36T150,263.67q40.62,0,70.31,29.69T250,363.67q0,40.63-29.69,70.31T150,463.67Zm470.31,100a174.85,174.85,0,0,1,89.85,24.22,180.19,180.19,0,0,1,65.62,65.63A174.79,174.79,0,0,1,800,743.36v45.31q0,31.26-21.88,53.13T725,863.67H275q-31.25,0-53.12-21.87T200,788.67V743.36a174.79,174.79,0,0,1,24.22-89.84,180.19,180.19,0,0,1,65.62-65.63,174.85,174.85,0,0,1,89.85-24.22h12.5q53.12,25,107.81,25t107.81-25ZM500,513.67a175,175,0,0,1-175-175A175,175,0,0,1,587.5,187.11a175,175,0,0,1,64.06,239.06A175,175,0,0,1,500,513.67Zm400,0q40.62,0,70.31,29.69T1000,613.67v50q0,20.31-14.84,35.16T950,713.67H846.88a231.41,231.41,0,0,0-39.07-100q-31.24-45.31-78.12-70.31,29.68-29.68,70.31-29.69Zm-50-50q-40.62,0-70.31-29.69T750,363.67q0-40.62,29.69-70.31T850,263.67q40.62,0,70.31,29.69T950,363.67q0,40.63-29.69,70.31T850,463.67Z"/>
</svg>
