<svg id="Ebene_1" data-name="Ebene 1" xmlns="http://www.w3.org/2000/svg" width="1000" height="1000" viewBox="0 0 1000 1000">
  <path d="M950,788.67a75,75,0,0,1-75,75H125a75,75,0,0,1-75-75v-550a75,75,0,0,1,75-75H875a75,75,0,0,1,75,75Zm-563-400h-66.4L259.22,554.3l-6.72-33.6L230.62,409.14c-3.59-15.47-14.68-19.84-28.43-20.47H101.09L100,393.51a248.16,248.16,0,0,1,65.94,26.72l55.94,210.94h66.4Zm88.13,0H412.34L373.12,631.48h62.66ZM601.72,486c-22-11.09-35.47-18.59-35.47-30,.31-10.31,11.41-20.93,36.09-20.93a107.56,107.56,0,0,1,46.72,9.22l5.63,2.65,8.59-52.5A156.1,156.1,0,0,0,607,384.14c-62,0-105.62,33.12-105.94,80.31-.46,34.85,31.25,54.22,55,65.94,24.22,11.87,32.5,19.69,32.5,30.16-.31,16.25-19.68,23.75-37.65,23.75-25,0-38.44-3.91-58.91-13l-8.28-3.91L475,622c14.69,6.72,41.88,12.66,70,13,65.94.16,108.91-32.5,109.38-82.81C654.69,524.45,637.81,503.36,601.72,486Zm222.66-97.34h-48.6c-15,0-26.4,4.38-32.81,20.16L649.69,631.48h65.93s10.79-30,13.13-36.4h80.63c1.87,8.59,7.5,36.4,7.5,36.4H875ZM799.06,545.39H746.88c5.15-13.91,25-68,25-68-.32.47,5.15-14.22,8.28-23.28l4.37,20.94S796.41,533.2,799.06,545.39Z"/>
</svg>
