<svg id="Ebene_1" data-name="Ebene 1" xmlns="http://www.w3.org/2000/svg" width="1000" height="1000" viewBox="0 0 1000 1000">
  <g id="Gruppe_250" data-name="Gruppe 250">
    <g id="YouTube" style="isolation: isolate">
      <g style="isolation: isolate">
        <path d="M1000,512.82s0,163.77-20.9,242.26c-11.5,43.3-45.38,76-88.41,87.56-78,21-390.69,21-390.69,21s-312.71,0-390.69-21c-43-11.57-76.91-44.26-88.41-87.56C0,676.59,0,512.82,0,512.82S0,349.05,20.9,270.56a125.63,125.63,0,0,1,88.41-89c78-21,390.69-21,390.69-21s312.71,0,390.69,21a125.63,125.63,0,0,1,88.41,89C1000,349.05,1000,512.82,1000,512.82Zm-340.91,0L397.73,364.13V661.51Z"/>
      </g>
    </g>
  </g>
</svg>
